Courier Prime Italic.ufo
<glyph name="exclam" format="1">
  <advance width="1228"/>
  <unicode hex="0021"/>
  <outline>
    <contour>
      <point x="554" y="-22" type="qcurve" smooth="yes"/>
      <point x="525" y="-22"/>
      <point x="476" y="-1"/>
      <point x="458.5" y="17.0" type="qcurve" smooth="yes" name="inserted"/>
      <point x="441" y="35"/>
      <point x="422" y="83"/>
      <point x="422" y="110" type="qcurve" smooth="yes"/>
      <point x="422" y="146"/>
      <point x="452" y="210"/>
      <point x="477.0" y="234.0" type="qcurve" smooth="yes" name="inserted"/>
      <point x="502" y="258"/>
      <point x="566" y="286"/>
      <point x="600" y="286" type="qcurve" smooth="yes"/>
      <point x="629" y="286"/>
      <point x="678" y="265"/>
      <point x="695.5" y="247.0" type="qcurve" smooth="yes" name="inserted"/>
      <point x="713" y="229"/>
      <point x="732" y="181"/>
      <point x="732" y="153" type="qcurve" smooth="yes"/>
      <point x="732" y="117"/>
      <point x="702" y="53"/>
      <point x="677.5" y="29.5" type="qcurve" smooth="yes" name="inserted"/>
      <point x="653" y="6"/>
      <point x="588" y="-22"/>
    </contour>
    <contour>
      <point x="812" y="1209" type="line" smooth="yes"/>
      <point x="834.5" y="1209.0" name="inserted"/>
      <point x="850.5" y="1184.0"/>
      <point x="844" y="1159" type="qcurve" smooth="yes"/>
      <point x="681" y="512" type="line" smooth="yes"/>
      <point x="675.0" y="488.0" name="inserted"/>
      <point x="642.0" y="464.0"/>
      <point x="615" y="464" type="qcurve" smooth="yes"/>
      <point x="589" y="464"/>
      <point x="564" y="489"/>
      <point x="566" y="512" type="qcurve" smooth="yes"/>
      <point x="632" y="1159" type="line" smooth="yes"/>
      <point x="634.0" y="1184.0" name="inserted"/>
      <point x="659.0" y="1209.0"/>
      <point x="682" y="1209" type="qcurve" smooth="yes"/>
    </contour>
  </outline>
</glyph>
<glyph name="numbersign" format="1">
  <advance width="1228"/>
  <unicode hex="0023"/>
  <outline>
    <contour>
      <point x="534" y="861" type="line"/>
      <point x="689" y="1176" type="line" smooth="yes"/>
      <point x="697" y="1193"/>
      <point x="731" y="1209"/>
      <point x="749" y="1209" type="qcurve" smooth="yes"/>
      <point x="764" y="1209"/>
      <point x="791" y="1200"/>
      <point x="800.0" y="1191.0" type="qcurve" smooth="yes" name="inserted"/>
      <point x="809" y="1182"/>
      <point x="814" y="1157"/>
      <point x="807" y="1142" type="qcurve" smooth="yes"/>
      <point x="669" y="861" type="line"/>
      <point x="888" y="861" type="line"/>
      <point x="1043" y="1176" type="line" smooth="yes"/>
      <point x="1051" y="1193"/>
      <point x="1085" y="1209"/>
      <point x="1103" y="1209" type="qcurve" smooth="yes"/>
      <point x="1118" y="1209"/>
      <point x="1145" y="1200"/>
      <point x="1154.0" y="1191.0" type="qcurve" smooth="yes" name="inserted"/>
      <point x="1163" y="1182"/>
      <point x="1168" y="1157"/>
      <point x="1161" y="1142" type="qcurve" smooth="yes"/>
      <point x="1023" y="861" type="line"/>
      <point x="1206" y="861" type="line" smooth="yes"/>
      <point x="1240" y="861"/>
      <point x="1264" y="831"/>
      <point x="1257" y="793" type="qcurve" smooth="yes"/>
      <point x="1251" y="755"/>
      <point x="1216" y="725"/>
      <point x="1182" y="725" type="qcurve" smooth="yes"/>
      <point x="957" y="725" type="line"/>
      <point x="833" y="472" type="line"/>
      <point x="1038" y="472" type="line" smooth="yes"/>
      <point x="1072" y="472"/>
      <point x="1096" y="442"/>
      <point x="1089" y="404" type="qcurve" smooth="yes"/>
      <point x="1082" y="366"/>
      <point x="1048" y="336"/>
      <point x="1014" y="336" type="qcurve" smooth="yes"/>
      <point x="766" y="336" type="line"/>
      <point x="607" y="11" type="line" smooth="yes"/>
      <point x="599" y="-6"/>
      <point x="566" y="-22"/>
      <point x="547" y="-22" type="qcurve" smooth="yes"/>
      <point x="532" y="-22"/>
      <point x="505" y="-13"/>
      <point x="496.0" y="-4.0" type="qcurve" smooth="yes" name="inserted"/>
      <point x="487" y="5"/>
      <point x="481" y="30"/>
      <point x="489" y="45" type="qcurve" smooth="yes"/>
      <point x="631" y="336" type="line"/>
      <point x="412" y="336" type="line"/>
      <point x="253" y="11" type="line" smooth="yes"/>
      <point x="245" y="-6"/>
      <point x="212" y="-22"/>
      <point x="193" y="-22" type="qcurve" smooth="yes"/>
      <point x="178" y="-22"/>
      <point x="151" y="-13"/>
      <point x="142.0" y="-4.0" type="qcurve" smooth="yes" name="inserted"/>
      <point x="133" y="5"/>
      <point x="127" y="30"/>
      <point x="135" y="45" type="qcurve" smooth="yes"/>
      <point x="277" y="336" type="line"/>
      <point x="92" y="336" type="line" smooth="yes"/>
      <point x="58" y="336"/>
      <point x="34" y="366"/>
      <point x="41" y="404" type="qcurve" smooth="yes"/>
      <point x="48" y="442"/>
      <point x="82" y="472"/>
      <point x="116" y="472" type="qcurve" smooth="yes"/>
      <point x="344" y="472" type="line"/>
      <point x="468" y="725" type="line"/>
      <point x="260" y="725" type="line" smooth="yes"/>
      <point x="226" y="725"/>
      <point x="203" y="755"/>
      <point x="209" y="793" type="qcurve" smooth="yes"/>
      <point x="216" y="831"/>
      <point x="250" y="861"/>
      <point x="284" y="861" type="qcurve" smooth="yes"/>
    </contour>
    <contour>
      <point x="479" y="472" type="line"/>
      <point x="698" y="472" type="line"/>
      <point x="822" y="725" type="line"/>
      <point x="603" y="725" type="line"/>
    </contour>
  </outline>
</glyph>
<glyph name="percent" format="1">
  <advance width="1228"/>
  <unicode hex="0025"/>
  <outline>
    <contour>
      <point x="836" y="-22" type="qcurve" smooth="yes"/>
      <point x="785" y="-22"/>
      <point x="700" y="15"/>
      <point x="668.5" y="47.5" type="qcurve" smooth="yes" name="inserted"/>
      <point x="637" y="80"/>
      <point x="602" y="166"/>
      <point x="602" y="215" type="qcurve" smooth="yes"/>
      <point x="602" y="280"/>
      <point x="655" y="394"/>
      <point x="699.5" y="436.0" type="qcurve" smooth="yes" name="inserted"/>
      <point x="744" y="478"/>
      <point x="858" y="526"/>
      <point x="920" y="526" type="qcurve" smooth="yes"/>
      <point x="971" y="526"/>
      <point x="1056" y="488"/>
      <point x="1087.5" y="456.0" type="qcurve" smooth="yes" name="inserted"/>
      <point x="1119" y="424"/>
      <point x="1154" y="338"/>
      <point x="1154" y="289" type="qcurve" smooth="yes"/>
      <point x="1154" y="224"/>
      <point x="1100" y="110"/>
      <point x="1056.0" y="68.0" type="qcurve" smooth="yes" name="inserted"/>
      <point x="1012" y="26"/>
      <point x="897" y="-22"/>
    </contour>
    <contour>
      <point x="853" y="108" type="qcurve" smooth="yes"/>
      <point x="886" y="108"/>
      <point x="947" y="135"/>
      <point x="971.0" y="158.5" type="qcurve" smooth="yes" name="inserted"/>
      <point x="995" y="182"/>
      <point x="1024" y="243"/>
      <point x="1024" y="277" type="qcurve" smooth="yes"/>
      <point x="1024" y="302"/>
      <point x="1006" y="346"/>
      <point x="990.0" y="362.0" type="qcurve" smooth="yes" name="inserted"/>
      <point x="974" y="378"/>
      <point x="929" y="396"/>
      <point x="903" y="396" type="qcurve" smooth="yes"/>
      <point x="870" y="396"/>
      <point x="809" y="368"/>
      <point x="785.0" y="345.0" type="qcurve" smooth="yes" name="inserted"/>
      <point x="761" y="322"/>
      <point x="732" y="261"/>
      <point x="732" y="227" type="qcurve" smooth="yes"/>
      <point x="732" y="176"/>
      <point x="799" y="108"/>
    </contour>
    <contour>
      <point x="376" y="661" type="qcurve" smooth="yes"/>
      <point x="325" y="661"/>
      <point x="240" y="698"/>
      <point x="208.5" y="730.5" type="qcurve" smooth="yes" name="inserted"/>
      <point x="177" y="763"/>
      <point x="142" y="849"/>
      <point x="142" y="898" type="qcurve" smooth="yes"/>
      <point x="142" y="963"/>
      <point x="195" y="1077"/>
      <point x="239.5" y="1119.0" type="qcurve" smooth="yes" name="inserted"/>
      <point x="284" y="1161"/>
      <point x="398" y="1209"/>
      <point x="460" y="1209" type="qcurve" smooth="yes"/>
      <point x="511" y="1209"/>
      <point x="596" y="1171"/>
      <point x="627.5" y="1139.0" type="qcurve" smooth="yes" name="inserted"/>
      <point x="659" y="1107"/>
      <point x="694" y="1021"/>
      <point x="694" y="972" type="qcurve" smooth="yes"/>
      <point x="694" y="907"/>
      <point x="640" y="793"/>
      <point x="596.0" y="751.0" type="qcurve" smooth="yes" name="inserted"/>
      <point x="552" y="709"/>
      <point x="437" y="661"/>
    </contour>
    <contour>
      <point x="393" y="791" type="qcurve" smooth="yes"/>
      <point x="426" y="791"/>
      <point x="487" y="818"/>
      <point x="511.0" y="841.5" type="qcurve" smooth="yes" name="inserted"/>
      <point x="535" y="865"/>
      <point x="564" y="926"/>
      <point x="564" y="960" type="qcurve" smooth="yes"/>
      <point x="564" y="985"/>
      <point x="546" y="1029"/>
      <point x="530.0" y="1045.0" type="qcurve" smooth="yes" name="inserted"/>
      <point x="514" y="1061"/>
      <point x="469" y="1079"/>
      <point x="443" y="1079" type="qcurve" smooth="yes"/>
      <point x="410" y="1079"/>
      <point x="349" y="1051"/>
      <point x="325.0" y="1028.0" type="qcurve" smooth="yes" name="inserted"/>
      <point x="301" y="1005"/>
      <point x="272" y="944"/>
      <point x="272" y="910" type="qcurve" smooth="yes"/>
      <point x="272" y="859"/>
      <point x="339" y="791"/>
    </contour>
    <contour>
      <point x="1119" y="1059" type="line" smooth="yes"/>
      <point x="1148" y="1082"/>
      <point x="1193" y="1079"/>
      <point x="1213" y="1054" type="qcurve" smooth="yes"/>
      <point x="1233.0" y="1029.0" name="inserted"/>
      <point x="1225.5" y="981.5"/>
      <point x="1198" y="959" type="qcurve" smooth="yes"/>
      <point x="177" y="129" type="line" smooth="yes"/>
      <point x="149.0" y="106.5" name="inserted"/>
      <point x="102.0" y="109.0"/>
      <point x="83" y="134" type="qcurve" smooth="yes"/>
      <point x="63" y="159"/>
      <point x="70" y="206"/>
      <point x="99" y="229" type="qcurve" smooth="yes"/>
    </contour>
  </outline>
</glyph>
<glyph name="parenleft" format="1">
  <advance width="1228"/>
  <unicode hex="0028"/>
  <outline>
    <contour>
      <point x="440" y="302" type="qcurve" smooth="yes"/>
      <point x="440" y="195"/>
      <point x="487" y="13"/>
      <point x="527.0" y="-62.0" type="qcurve" smooth="yes" name="inserted"/>
      <point x="567" y="-137"/>
      <point x="670" y="-253"/>
      <point x="726" y="-295" type="qcurve" smooth="yes"/>
      <point x="733" y="-300"/>
      <point x="736" y="-319"/>
      <point x="733.0" y="-330.0" type="qcurve" smooth="yes" name="inserted"/>
      <point x="730" y="-341"/>
      <point x="716" y="-365"/>
      <point x="707" y="-375" type="qcurve" smooth="yes"/>
      <point x="690" y="-393"/>
      <point x="649" y="-410"/>
      <point x="630" y="-397" type="qcurve" smooth="yes"/>
      <point x="566" y="-354"/>
      <point x="445" y="-218"/>
      <point x="397.5" y="-129.5" type="qcurve" smooth="yes" name="inserted"/>
      <point x="350" y="-41"/>
      <point x="293" y="176"/>
      <point x="293" y="302" type="qcurve" smooth="yes"/>
      <point x="293" y="462"/>
      <point x="387" y="767"/>
      <point x="471.0" y="900.0" type="qcurve" smooth="yes" name="inserted"/>
      <point x="555" y="1033"/>
      <point x="789" y="1247"/>
      <point x="929" y="1315" type="qcurve" smooth="yes"/>
      <point x="953" y="1326"/>
      <point x="990" y="1298"/>
      <point x="1000" y="1274" type="qcurve" smooth="yes"/>
      <point x="1006" y="1261"/>
      <point x="1011" y="1233"/>
      <point x="1010.0" y="1220.5" type="qcurve" smooth="yes" name="inserted"/>
      <point x="1009" y="1208"/>
      <point x="999" y="1188"/>
      <point x="990" y="1183" type="qcurve" smooth="yes"/>
      <point x="863" y="1117"/>
      <point x="659" y="932"/>
      <point x="588.0" y="819.0" type="qcurve" smooth="yes" name="inserted"/>
      <point x="517" y="706"/>
      <point x="440" y="445"/>
    </contour>
  </outline>
</glyph>
<glyph name="plus" format="1">
  <advance width="1228"/>
  <unicode hex="002B"/>
  <outline>
    <contour>
      <point x="590" y="650" type="line"/>
      <point x="645" y="963" type="line" smooth="yes"/>
      <point x="651" y="997"/>
      <point x="686" y="1026"/>
      <point x="724" y="1026" type="qcurve" smooth="yes"/>
      <point x="762" y="1026"/>
      <point x="787" y="997"/>
      <point x="781" y="963" type="qcurve" smooth="yes"/>
      <point x="726" y="650" type="line"/>
      <point x="1039" y="650" type="line" smooth="yes"/>
      <point x="1073" y="650"/>
      <point x="1097" y="620"/>
      <point x="1090" y="582" type="qcurve" smooth="yes"/>
      <point x="1083" y="544"/>
      <point x="1049" y="514"/>
      <point x="1015" y="514" type="qcurve" smooth="yes"/>
      <point x="702" y="514" type="line"/>
      <point x="647" y="201" type="line" smooth="yes"/>
      <point x="641" y="167"/>
      <point x="606" y="138"/>
      <point x="568" y="138" type="qcurve" smooth="yes"/>
      <point x="530" y="138"/>
      <point x="505" y="167"/>
      <point x="511" y="201" type="qcurve" smooth="yes"/>
      <point x="566" y="514" type="line"/>
      <point x="253" y="514" type="line" smooth="yes"/>
      <point x="219" y="514"/>
      <point x="195" y="544"/>
      <point x="202" y="582" type="qcurve" smooth="yes"/>
      <point x="209" y="620"/>
      <point x="243" y="650"/>
      <point x="277" y="650" type="qcurve" smooth="yes"/>
    </contour>
  </outline>
</glyph>
<glyph name="period" format="1">
  <advance width="1228"/>
  <unicode hex="002E"/>
  <outline>
    <contour>
      <point x="544" y="-22" type="qcurve" smooth="yes"/>
      <point x="512" y="-22"/>
      <point x="459" y="1"/>
      <point x="439.5" y="20.5" type="qcurve" smooth="yes" name="inserted"/>
      <point x="420" y="40"/>
      <point x="398" y="94"/>
      <point x="398" y="124" type="qcurve" smooth="yes"/>
      <point x="398" y="164"/>
      <point x="431" y="234"/>
      <point x="459.0" y="260.0" type="qcurve" smooth="yes" name="inserted"/>
      <point x="487" y="286"/>
      <point x="557" y="316"/>
      <point x="595" y="316" type="qcurve" smooth="yes"/>
      <point x="627" y="316"/>
      <point x="680" y="293"/>
      <point x="699.5" y="273.5" type="qcurve" smooth="yes" name="inserted"/>
      <point x="719" y="254"/>
      <point x="740" y="202"/>
      <point x="740" y="172" type="qcurve" smooth="yes"/>
      <point x="740" y="132"/>
      <point x="707" y="61"/>
      <point x="680.0" y="35.0" type="qcurve" smooth="yes" name="inserted"/>
      <point x="653" y="9"/>
      <point x="582" y="-22"/>
    </contour>
  </outline>
</glyph>
<glyph name="slash" format="1">
  <advance width="1228"/>
  <unicode hex="002F"/>
  <outline>
    <contour>
      <point x="232" y="-267" type="line" smooth="yes"/>
      <point x="222" y="-283"/>
      <point x="182" y="-297"/>
      <point x="159" y="-297" type="qcurve" smooth="yes"/>
      <point x="141" y="-297"/>
      <point x="106" y="-288"/>
      <point x="94.0" y="-279.5" type="qcurve" smooth="yes" name="inserted"/>
      <point x="82" y="-271"/>
      <point x="75" y="-248"/>
      <point x="84" y="-233" type="qcurve" smooth="yes"/>
      <point x="1038" y="1305" type="line" smooth="yes"/>
      <point x="1048" y="1321"/>
      <point x="1088" y="1335"/>
      <point x="1111" y="1335" type="qcurve" smooth="yes"/>
      <point x="1129" y="1335"/>
      <point x="1164" y="1326"/>
      <point x="1176.0" y="1317.5" type="qcurve" smooth="yes" name="inserted"/>
      <point x="1188" y="1309"/>
      <point x="1195" y="1286"/>
      <point x="1186" y="1271" type="qcurve" smooth="yes"/>
    </contour>
  </outline>
</glyph>
<glyph name="zero" format="1">
  <advance width="1228"/>
  <unicode hex="0030"/>
  <outline>
    <contour>
      <point x="731" y="1061" type="qcurve" smooth="yes"/>
      <point x="672" y="1061"/>
      <point x="573" y="1005"/>
      <point x="532.0" y="957.5" type="qcurve" smooth="yes" name="inserted"/>
      <point x="491" y="910"/>
      <point x="429" y="784"/>
      <point x="408.0" y="713.5" type="qcurve" smooth="yes" name="inserted"/>
      <point x="387" y="643"/>
      <point x="365" y="495"/>
      <point x="365" y="426" type="qcurve" smooth="yes"/>
      <point x="365" y="280"/>
      <point x="472" y="126"/>
      <point x="566" y="126" type="qcurve" smooth="yes"/>
      <point x="624" y="126"/>
      <point x="724" y="182"/>
      <point x="765.0" y="229.5" type="qcurve" smooth="yes" name="inserted"/>
      <point x="806" y="277"/>
      <point x="868" y="403"/>
      <point x="889.0" y="473.5" type="qcurve" smooth="yes" name="inserted"/>
      <point x="910" y="544"/>
      <point x="932" y="692"/>
      <point x="932" y="761" type="qcurve" smooth="yes"/>
      <point x="932" y="907"/>
      <point x="825" y="1061"/>
    </contour>
    <contour>
      <point x="744" y="1209" type="qcurve" smooth="yes"/>
      <point x="825" y="1209"/>
      <point x="952" y="1144"/>
      <point x="996.5" y="1085.0" type="qcurve" smooth="yes" name="inserted"/>
      <point x="1041" y="1026"/>
      <point x="1087" y="858"/>
      <point x="1087" y="756" type="qcurve" smooth="yes"/>
      <point x="1087" y="677"/>
      <point x="1060" y="500"/>
      <point x="1031.5" y="413.5" type="qcurve" smooth="yes" name="inserted"/>
      <point x="1003" y="327"/>
      <point x="917" y="170"/>
      <point x="857.5" y="109.5" type="qcurve" smooth="yes" name="inserted"/>
      <point x="798" y="49"/>
      <point x="646" y="-22"/>
      <point x="553" y="-22" type="qcurve" smooth="yes"/>
      <point x="472" y="-22"/>
      <point x="345" y="43"/>
      <point x="300.5" y="102.0" type="qcurve" smooth="yes" name="inserted"/>
      <point x="256" y="161"/>
      <point x="210" y="329"/>
      <point x="210" y="431" type="qcurve" smooth="yes"/>
      <point x="210" y="510"/>
      <point x="237" y="687"/>
      <point x="265.5" y="773.5" type="qcurve" smooth="yes" name="inserted"/>
      <point x="294" y="860"/>
      <point x="380" y="1017"/>
      <point x="439.5" y="1077.5" type="qcurve" smooth="yes" name="inserted"/>
      <point x="499" y="1138"/>
      <point x="651" y="1209"/>
    </contour>
    <contour>
      <point x="494" y="907" type="move"/>
      <point x="571" y="1010" type="line"/>
      <point x="807" y="271" type="line"/>
      <point x="729" y="171" type="line"/>
    </contour>
  </outline>
</glyph>
<glyph name="one" format="1">
  <advance width="1228"/>
  <unicode hex="0031"/>
  <outline>
    <contour>
      <point x="522" y="136" type="line"/>
      <point x="679" y="1027" type="line"/>
      <point x="419" y="938" type="line" smooth="yes"/>
      <point x="396" y="930"/>
      <point x="360" y="951"/>
      <point x="352" y="989" type="qcurve" smooth="yes"/>
      <point x="344" y="1025"/>
      <point x="366" y="1067"/>
      <point x="392" y="1075" type="qcurve" smooth="yes"/>
      <point x="786" y="1208" type="line" smooth="yes"/>
      <point x="819" y="1219"/>
      <point x="858" y="1184"/>
      <point x="851" y="1146" type="qcurve" smooth="yes"/>
      <point x="672" y="136" type="line"/>
      <point x="947" y="136" type="line" smooth="yes"/>
      <point x="981" y="136"/>
      <point x="1005" y="106"/>
      <point x="998" y="68" type="qcurve" smooth="yes"/>
      <point x="992" y="30"/>
      <point x="958" y="0"/>
      <point x="924" y="0" type="qcurve" smooth="yes"/>
      <point x="250" y="0" type="line" smooth="yes"/>
      <point x="216" y="0"/>
      <point x="192" y="30"/>
      <point x="198" y="68" type="qcurve" smooth="yes"/>
      <point x="205" y="106"/>
      <point x="239" y="136"/>
      <point x="273" y="136" type="qcurve" smooth="yes"/>
    </contour>
  </outline>
</glyph>
<glyph name="four" format="1">
  <advance width="1228"/>
  <unicode hex="0034"/>
  <outline>
    <contour>
      <point x="641" y="136" type="line"/>
      <point x="681" y="360" type="line"/>
      <point x="203" y="360" type="line" smooth="yes"/>
      <point x="169" y="360"/>
      <point x="145" y="390"/>
      <point x="152" y="428" type="qcurve" smooth="yes"/>
      <point x="155" y="444"/>
      <point x="163" y="470"/>
      <point x="170" y="478" type="qcurve" smooth="yes"/>
      <point x="773" y="1151" type="line" smooth="yes"/>
      <point x="799" y="1181"/>
      <point x="855" y="1209"/>
      <point x="894" y="1209" type="qcurve" smooth="yes"/>
      <point x="941" y="1209"/>
      <point x="973" y="1166"/>
      <point x="967" y="1131" type="qcurve" smooth="yes"/>
      <point x="855" y="496" type="line"/>
      <point x="1017" y="496" type="line" smooth="yes"/>
      <point x="1051" y="496"/>
      <point x="1075" y="466"/>
      <point x="1068" y="428" type="qcurve" smooth="yes"/>
      <point x="1061" y="390"/>
      <point x="1027" y="360"/>
      <point x="993" y="360" type="qcurve" smooth="yes"/>
      <point x="831" y="360" type="line"/>
      <point x="791" y="136" type="line"/>
      <point x="923" y="136" type="line" smooth="yes"/>
      <point x="957" y="136"/>
      <point x="981" y="106"/>
      <point x="974" y="68" type="qcurve" smooth="yes"/>
      <point x="968" y="30"/>
      <point x="934" y="0"/>
      <point x="900" y="0" type="qcurve" smooth="yes"/>
      <point x="470" y="0" type="line" smooth="yes"/>
      <point x="436" y="0"/>
      <point x="412" y="30"/>
      <point x="418" y="68" type="qcurve" smooth="yes"/>
      <point x="425" y="106"/>
      <point x="459" y="136"/>
      <point x="493" y="136" type="qcurve" smooth="yes"/>
    </contour>
    <contour>
      <point x="799" y="986" type="line"/>
      <point x="368" y="496" type="line"/>
      <point x="705" y="496" type="line"/>
    </contour>
  </outline>
</glyph>
<glyph name="eight" format="1">
  <advance width="1228"/>
  <unicode hex="0038"/>
  <outline>
    <contour>
      <point x="550" y="-22" type="qcurve" smooth="yes"/>
      <point x="471" y="-22"/>
      <point x="339" y="25"/>
      <point x="292.0" y="67.0" type="qcurve" smooth="yes" name="inserted"/>
      <point x="245" y="109"/>
      <point x="192" y="223"/>
      <point x="192" y="290" type="qcurve" smooth="yes"/>
      <point x="192" y="353"/>
      <point x="232" y="460"/>
      <point x="267.5" y="503.0" type="qcurve" smooth="yes" name="inserted"/>
      <point x="303" y="546"/>
      <point x="398" y="612"/>
      <point x="452" y="635" type="qcurve"/>
      <point x="398" y="668"/>
      <point x="327" y="776"/>
      <point x="327" y="846" type="qcurve" smooth="yes"/>
      <point x="327" y="903"/>
      <point x="381" y="1031"/>
      <point x="434.0" y="1085.0" type="qcurve" smooth="yes" name="inserted"/>
      <point x="487" y="1139"/>
      <point x="644" y="1209"/>
      <point x="747" y="1209" type="qcurve" smooth="yes"/>
      <point x="819" y="1209"/>
      <point x="937" y="1165"/>
      <point x="980.0" y="1126.0" type="qcurve" smooth="yes" name="inserted"/>
      <point x="1023" y="1087"/>
      <point x="1070" y="983"/>
      <point x="1070" y="923" type="qcurve" smooth="yes"/>
      <point x="1070" y="869"/>
      <point x="1037" y="779"/>
      <point x="1008.0" y="742.0" type="qcurve" smooth="yes" name="inserted"/>
      <point x="979" y="705"/>
      <point x="901" y="647"/>
      <point x="857" y="625" type="qcurve"/>
      <point x="927" y="590"/>
      <point x="1014" y="467"/>
      <point x="1014" y="384" type="qcurve" smooth="yes"/>
      <point x="1014" y="315"/>
      <point x="955" y="171"/>
      <point x="896.5" y="112.0" type="qcurve" smooth="yes" name="inserted"/>
      <point x="838" y="53"/>
      <point x="664" y="-22"/>
    </contour>
    <contour>
      <point x="641" y="554" type="qcurve" smooth="yes"/>
      <point x="572" y="554"/>
      <point x="464" y="510"/>
      <point x="427.5" y="474.0" type="qcurve" smooth="yes" name="inserted"/>
      <point x="391" y="438"/>
      <point x="352" y="347"/>
      <point x="352" y="301" type="qcurve" smooth="yes"/>
      <point x="352" y="262"/>
      <point x="382" y="198"/>
      <point x="410.0" y="174.5" type="qcurve" smooth="yes" name="inserted"/>
      <point x="438" y="151"/>
      <point x="517" y="126"/>
      <point x="566" y="126" type="qcurve" smooth="yes"/>
      <point x="634" y="126"/>
      <point x="741" y="170"/>
      <point x="778.5" y="205.5" type="qcurve" smooth="yes" name="inserted"/>
      <point x="816" y="241"/>
      <point x="855" y="332"/>
      <point x="855" y="379" type="qcurve" smooth="yes"/>
      <point x="855" y="418"/>
      <point x="825" y="483"/>
      <point x="797.5" y="506.0" type="qcurve" smooth="yes" name="inserted"/>
      <point x="770" y="529"/>
      <point x="690" y="554"/>
    </contour>
    <contour>
      <point x="666" y="693" type="qcurve" smooth="yes"/>
      <point x="717" y="693"/>
      <point x="808" y="727"/>
      <point x="842.0" y="756.5" type="qcurve" smooth="yes" name="inserted"/>
      <point x="876" y="786"/>
      <point x="916" y="865"/>
      <point x="916" y="910" type="qcurve" smooth="yes"/>
      <point x="916" y="981"/>
      <point x="814" y="1061"/>
      <point x="731" y="1061" type="qcurve" smooth="yes"/>
      <point x="671" y="1061"/>
      <point x="578" y="1023"/>
      <point x="545.5" y="992.5" type="qcurve" smooth="yes" name="inserted"/>
      <point x="513" y="962"/>
      <point x="480" y="886"/>
      <point x="480" y="847" type="qcurve" smooth="yes"/>
      <point x="480" y="814"/>
      <point x="507" y="757"/>
      <point x="531.5" y="736.5" type="qcurve" smooth="yes" name="inserted"/>
      <point x="556" y="716"/>
      <point x="624" y="693"/>
    </contour>
  </outline>
</glyph>
<glyph name="nine" format="1">
  <advance width="1228"/>
  <unicode hex="0039"/>
  <outline>
    <contour>
      <point x="633" y="604" type="qcurve" smooth="yes"/>
      <point x="690" y="604"/>
      <point x="797" y="640"/>
      <point x="838.5" y="673.5" type="qcurve" smooth="yes" name="inserted"/>
      <point x="880" y="707"/>
      <point x="929" y="805"/>
      <point x="929" y="868" type="qcurve" smooth="yes"/>
      <point x="929" y="911"/>
      <point x="900" y="982"/>
      <point x="872.5" y="1007.5" type="qcurve" smooth="yes" name="inserted"/>
      <point x="845" y="1033"/>
      <point x="765" y="1061"/>
      <point x="714" y="1061" type="qcurve" smooth="yes"/>
      <point x="633" y="1061"/>
      <point x="519" y="1007"/>
      <point x="484.0" y="966.0" type="qcurve" smooth="yes" name="inserted"/>
      <point x="449" y="925"/>
      <point x="417" y="828"/>
      <point x="417" y="786" type="qcurve" smooth="yes"/>
      <point x="417" y="702"/>
      <point x="529" y="604"/>
    </contour>
    <contour>
      <point x="234" y="125" type="qcurve" smooth="yes"/>
      <point x="373" y="132"/>
      <point x="592" y="205"/>
      <point x="674.5" y="266.0" type="qcurve" smooth="yes" name="inserted"/>
      <point x="757" y="327"/>
      <point x="868" y="490"/>
      <point x="899" y="587" type="qcurve"/>
      <point x="834" y="523"/>
      <point x="677" y="456"/>
      <point x="591" y="456" type="qcurve" smooth="yes"/>
      <point x="517" y="456"/>
      <point x="395" y="502"/>
      <point x="351.5" y="543.0" type="qcurve" smooth="yes" name="inserted"/>
      <point x="308" y="584"/>
      <point x="259" y="700"/>
      <point x="259" y="770" type="qcurve" smooth="yes"/>
      <point x="259" y="851"/>
      <point x="320" y="1008"/>
      <point x="379.5" y="1070.0" type="qcurve" smooth="yes" name="inserted"/>
      <point x="439" y="1132"/>
      <point x="615" y="1209"/>
      <point x="730" y="1209" type="qcurve" smooth="yes"/>
      <point x="783" y="1209"/>
      <point x="882" y="1184"/>
      <point x="923.5" y="1159.0" type="qcurve" smooth="yes" name="inserted"/>
      <point x="965" y="1134"/>
      <point x="1030" y="1060"/>
      <point x="1050" y="1011" type="qcurve" smooth="yes"/>
      <point x="1066.5" y="971.0" name="inserted"/>
      <point x="1083.0" y="873.0"/>
      <point x="1083" y="815" type="qcurve" smooth="yes"/>
      <point x="1083" y="719"/>
      <point x="1040" y="524"/>
      <point x="995.5" y="433.0" type="qcurve" smooth="yes" name="inserted"/>
      <point x="951" y="342"/>
      <point x="815" y="182"/>
      <point x="721.0" y="121.5" type="qcurve" smooth="yes" name="inserted"/>
      <point x="627" y="61"/>
      <point x="387" y="-15"/>
      <point x="239" y="-22" type="qcurve" smooth="yes"/>
      <point x="216" y="-23"/>
      <point x="186" y="4"/>
      <point x="186" y="45" type="qcurve" smooth="yes"/>
      <point x="186" y="90"/>
      <point x="214" y="124"/>
    </contour>
  </outline>
</glyph>
<glyph name="less" format="1">
  <advance width="1228"/>
  <unicode hex="003C"/>
  <outline>
    <contour>
      <point x="988" y="261" type="line" smooth="yes"/>
      <point x="1017" y="246"/>
      <point x="1023" y="201"/>
      <point x="1000" y="166" type="qcurve" smooth="yes"/>
      <point x="977" y="133"/>
      <point x="930" y="118"/>
      <point x="902" y="133" type="qcurve" smooth="yes"/>
      <point x="192" y="514" type="line" smooth="yes"/>
      <point x="170" y="526"/>
      <point x="152" y="557"/>
      <point x="157" y="583" type="qcurve" smooth="yes"/>
      <point x="162" y="609"/>
      <point x="190" y="640"/>
      <point x="216" y="652" type="qcurve" smooth="yes"/>
      <point x="1061" y="1033" type="line" smooth="yes"/>
      <point x="1094" y="1048"/>
      <point x="1138" y="1026"/>
      <point x="1149" y="993" type="qcurve" smooth="yes"/>
      <point x="1160" y="958"/>
      <point x="1143" y="909"/>
      <point x="1108" y="894" type="qcurve" smooth="yes"/>
      <point x="386" y="576" type="line"/>
    </contour>
  </outline>
</glyph>
<glyph name="equal" format="1">
  <advance width="1228"/>
  <unicode hex="003D"/>
  <outline>
    <contour>
      <point x="1074" y="850" type="line" smooth="yes"/>
      <point x="1108" y="850"/>
      <point x="1132" y="820"/>
      <point x="1125" y="782" type="qcurve" smooth="yes"/>
      <point x="1119" y="744"/>
      <point x="1084" y="714"/>
      <point x="1050" y="714" type="qcurve" smooth="yes"/>
      <point x="288" y="714" type="line" smooth="yes"/>
      <point x="254" y="714"/>
      <point x="231" y="744"/>
      <point x="237" y="782" type="qcurve" smooth="yes"/>
      <point x="244" y="820"/>
      <point x="278" y="850"/>
      <point x="312" y="850" type="qcurve" smooth="yes"/>
    </contour>
    <contour>
      <point x="1004" y="450" type="line" smooth="yes"/>
      <point x="1038" y="450"/>
      <point x="1062" y="420"/>
      <point x="1055" y="382" type="qcurve" smooth="yes"/>
      <point x="1048" y="344"/>
      <point x="1014" y="314"/>
      <point x="980" y="314" type="qcurve" smooth="yes"/>
      <point x="218" y="314" type="line" smooth="yes"/>
      <point x="184" y="314"/>
      <point x="160" y="344"/>
      <point x="167" y="382" type="qcurve" smooth="yes"/>
      <point x="174" y="420"/>
      <point x="208" y="450"/>
      <point x="242" y="450" type="qcurve" smooth="yes"/>
    </contour>
  </outline>
</glyph>
<glyph name="greater" format="1">
  <advance width="1228"/>
  <unicode hex="003E"/>
  <outline>
    <contour>
      <point x="304" y="905" type="line" smooth="yes"/>
      <point x="275" y="920"/>
      <point x="269" y="965"/>
      <point x="292" y="1000" type="qcurve" smooth="yes"/>
      <point x="315" y="1033"/>
      <point x="362" y="1048"/>
      <point x="390" y="1033" type="qcurve" smooth="yes"/>
      <point x="1100" y="652" type="line" smooth="yes"/>
      <point x="1122" y="640"/>
      <point x="1140" y="609"/>
      <point x="1135" y="583" type="qcurve" smooth="yes"/>
      <point x="1130" y="557"/>
      <point x="1102" y="526"/>
      <point x="1076" y="514" type="qcurve" smooth="yes"/>
      <point x="231" y="133" type="line" smooth="yes"/>
      <point x="198" y="118"/>
      <point x="154" y="140"/>
      <point x="143" y="173" type="qcurve" smooth="yes"/>
      <point x="132" y="208"/>
      <point x="149" y="257"/>
      <point x="184" y="272" type="qcurve" smooth="yes"/>
      <point x="906" y="590" type="line"/>
    </contour>
  </outline>
</glyph>
<glyph name="question" format="1">
  <advance width="1228"/>
  <unicode hex="003F"/>
  <outline>
    <contour>
      <point x="514" y="-22" type="qcurve" smooth="yes"/>
      <point x="488" y="-22"/>
      <point x="444" y="-3"/>
      <point x="428.0" y="13.0" type="qcurve" smooth="yes" name="inserted"/>
      <point x="412" y="29"/>
      <point x="395" y="72"/>
      <point x="395" y="97" type="qcurve" smooth="yes"/>
      <point x="395" y="130"/>
      <point x="422" y="187"/>
      <point x="444.5" y="208.0" type="qcurve" smooth="yes" name="inserted"/>
      <point x="467" y="229"/>
      <point x="525" y="254"/>
      <point x="555" y="254" type="qcurve" smooth="yes"/>
      <point x="581" y="254"/>
      <point x="625" y="235"/>
      <point x="640.5" y="219.0" type="qcurve" smooth="yes" name="inserted"/>
      <point x="656" y="203"/>
      <point x="674" y="159"/>
      <point x="674" y="134" type="qcurve" smooth="yes"/>
      <point x="674" y="102"/>
      <point x="647" y="45"/>
      <point x="624.5" y="24.0" type="qcurve" smooth="yes" name="inserted"/>
      <point x="602" y="3"/>
      <point x="544" y="-22"/>
    </contour>
    <contour>
      <point x="372" y="1067" type="line" smooth="yes"/>
      <point x="375.5" y="1087.5" name="inserted"/>
      <point x="393.0" y="1115.5"/>
      <point x="407" y="1123" type="qcurve" smooth="yes"/>
      <point x="489.5" y="1166.0" name="inserted"/>
      <point x="661.5" y="1209.0"/>
      <point x="751" y="1209" type="qcurve" smooth="yes"/>
      <point x="826" y="1209"/>
      <point x="941" y="1170"/>
      <point x="980.5" y="1135.5" type="qcurve" smooth="yes" name="inserted"/>
      <point x="1020" y="1101"/>
      <point x="1061" y="1004"/>
      <point x="1061" y="947" type="qcurve" smooth="yes"/>
      <point x="1061" y="904"/>
      <point x="1039" y="817"/>
      <point x="1018" y="777" type="qcurve" smooth="yes"/>
      <point x="997" y="737"/>
      <point x="933" y="673"/>
      <point x="890.5" y="646.0" type="qcurve" smooth="yes" name="inserted"/>
      <point x="848" y="619"/>
      <point x="742" y="570"/>
      <point x="679" y="546" type="qcurve"/>
      <point x="645" y="410" type="line" smooth="yes"/>
      <point x="639" y="387"/>
      <point x="599" y="359"/>
      <point x="567" y="359" type="qcurve" smooth="yes"/>
      <point x="535" y="359"/>
      <point x="504" y="387"/>
      <point x="507" y="410" type="qcurve" smooth="yes"/>
      <point x="531" y="605" type="line" smooth="yes"/>
      <point x="533.0" y="624.0" name="inserted"/>
      <point x="552.5" y="649.5"/>
      <point x="570" y="656" type="qcurve" smooth="yes"/>
      <point x="644" y="684" type="line" smooth="yes"/>
      <point x="731" y="717"/>
      <point x="840" y="779"/>
      <point x="869" y="820" type="qcurve" smooth="yes"/>
      <point x="886" y="843"/>
      <point x="902" y="901"/>
      <point x="902" y="930" type="qcurve" smooth="yes"/>
      <point x="902" y="990"/>
      <point x="819" y="1061"/>
      <point x="736" y="1061" type="qcurve" smooth="yes"/>
      <point x="675" y="1061"/>
      <point x="564" y="1039"/>
      <point x="513" y="1019" type="qcurve"/>
      <point x="498" y="935" type="line" smooth="yes"/>
      <point x="492" y="900"/>
      <point x="454" y="870"/>
      <point x="412" y="870" type="qcurve" smooth="yes"/>
      <point x="370" y="870"/>
      <point x="342" y="900"/>
      <point x="348" y="935" type="qcurve" smooth="yes"/>
    </contour>
  </outline>
</glyph>
<glyph name="at" format="1">
  <advance width="1228"/>
  <unicode hex="0040"/>
  <outline>
    <contour>
      <point x="462" y="132" type="qcurve" smooth="yes"/>
      <point x="430" y="132"/>
      <point x="375" y="154"/>
      <point x="354.5" y="176.0" type="qcurve" smooth="yes" name="inserted"/>
      <point x="334" y="198"/>
      <point x="310" y="262"/>
      <point x="310" y="303" type="qcurve" smooth="yes"/>
      <point x="310" y="350"/>
      <point x="342" y="458"/>
      <point x="370.0" y="512.0" type="qcurve" smooth="yes" name="inserted"/>
      <point x="398" y="566"/>
      <point x="474" y="664"/>
      <point x="518.5" y="702.0" type="qcurve" smooth="yes" name="inserted"/>
      <point x="563" y="740"/>
      <point x="659" y="785"/>
      <point x="708" y="785" type="qcurve" smooth="yes"/>
      <point x="756" y="785"/>
      <point x="807" y="730"/>
      <point x="818" y="685" type="qcurve"/>
      <point x="860" y="748" type="line" smooth="yes"/>
      <point x="867" y="758"/>
      <point x="898" y="761"/>
      <point x="920" y="752" type="qcurve" smooth="yes"/>
      <point x="939" y="744"/>
      <point x="957" y="721"/>
      <point x="951" y="706" type="qcurve" smooth="yes"/>
      <point x="821" y="404" type="line" smooth="yes"/>
      <point x="811.5" y="383.0" name="inserted"/>
      <point x="802.0" y="345.0"/>
      <point x="802" y="328" type="qcurve" smooth="yes"/>
      <point x="802" y="297"/>
      <point x="835" y="263"/>
      <point x="864" y="263" type="qcurve" smooth="yes"/>
      <point x="901" y="263"/>
      <point x="962" y="297"/>
      <point x="986.5" y="325.5" type="qcurve" smooth="yes" name="inserted"/>
      <point x="1011" y="354"/>
      <point x="1046" y="429"/>
      <point x="1058.0" y="470.5" type="qcurve" smooth="yes" name="inserted"/>
      <point x="1070" y="512"/>
      <point x="1082" y="596"/>
      <point x="1082" y="634" type="qcurve" smooth="yes"/>
      <point x="1082" y="709"/>
      <point x="1038" y="828"/>
      <point x="996.0" y="869.5" type="qcurve" smooth="yes" name="inserted"/>
      <point x="954" y="911"/>
      <point x="831" y="955"/>
      <point x="753" y="955" type="qcurve" smooth="yes"/>
      <point x="667" y="955"/>
      <point x="512" y="898"/>
      <point x="446.0" y="849.0" type="qcurve" smooth="yes" name="inserted"/>
      <point x="380" y="800"/>
      <point x="275" y="669"/>
      <point x="238.0" y="594.0" type="qcurve" smooth="yes" name="inserted"/>
      <point x="201" y="519"/>
      <point x="161" y="359"/>
      <point x="161" y="282" type="qcurve" smooth="yes"/>
      <point x="161" y="209"/>
      <point x="202" y="94"/>
      <point x="243.0" y="53.5" type="qcurve" smooth="yes" name="inserted"/>
      <point x="284" y="13"/>
      <point x="404" y="-30"/>
      <point x="484" y="-30" type="qcurve" smooth="yes"/>
      <point x="556" y="-30"/>
      <point x="692" y="-9"/>
      <point x="746" y="7" type="qcurve" smooth="yes"/>
      <point x="764.0" y="12.0" name="inserted"/>
      <point x="787.0" y="-9.0"/>
      <point x="792" y="-35" type="qcurve" smooth="yes"/>
      <point x="797.5" y="-61.5" name="inserted"/>
      <point x="786.5" y="-94.5"/>
      <point x="770" y="-101" type="qcurve" smooth="yes"/>
      <point x="713" y="-124"/>
      <point x="558" y="-153"/>
      <point x="475" y="-153" type="qcurve" smooth="yes"/>
      <point x="371" y="-153"/>
      <point x="209" y="-94"/>
      <point x="153.0" y="-39.5" type="qcurve" smooth="yes" name="inserted"/>
      <point x="97" y="15"/>
      <point x="38" y="172"/>
      <point x="38" y="270" type="qcurve" smooth="yes"/>
      <point x="38" y="369"/>
      <point x="88" y="567"/>
      <point x="134.0" y="656.5" type="qcurve" smooth="yes" name="inserted"/>
      <point x="180" y="746"/>
      <point x="310" y="900"/>
      <point x="391.5" y="957.0" type="qcurve" smooth="yes" name="inserted"/>
      <point x="473" y="1014"/>
      <point x="664" y="1078"/>
      <point x="770" y="1078" type="qcurve" smooth="yes"/>
      <point x="871" y="1078"/>
      <point x="1032" y="1014"/>
      <point x="1087.5" y="956.0" type="qcurve" smooth="yes" name="inserted"/>
      <point x="1143" y="898"/>
      <point x="1202" y="738"/>
      <point x="1202" y="641" type="qcurve" smooth="yes"/>
      <point x="1202" y="546"/>
      <point x="1153" y="365"/>
      <point x="1107.0" y="294.5" type="qcurve" smooth="yes" name="inserted"/>
      <point x="1061" y="224"/>
      <point x="929" y="137"/>
      <point x="847" y="137" type="qcurve" smooth="yes"/>
      <point x="782" y="137"/>
      <point x="705" y="204"/>
      <point x="691" y="267" type="qcurve"/>
      <point x="636" y="204"/>
      <point x="526" y="132"/>
    </contour>
    <contour>
      <point x="500" y="266" type="qcurve" smooth="yes"/>
      <point x="532" y="266"/>
      <point x="592" y="301"/>
      <point x="619.0" y="329.0" type="qcurve" smooth="yes" name="inserted"/>
      <point x="646" y="357"/>
      <point x="692" y="427"/>
      <point x="708.5" y="463.0" type="qcurve" smooth="yes" name="inserted"/>
      <point x="725" y="499"/>
      <point x="743" y="566"/>
      <point x="743" y="590" type="qcurve" smooth="yes"/>
      <point x="743.0" y="624.0" name="inserted"/>
      <point x="712.5" y="658.0"/>
      <point x="682" y="658" type="qcurve" smooth="yes"/>
      <point x="660" y="658"/>
      <point x="608" y="627"/>
      <point x="582.0" y="601.0" type="qcurve" smooth="yes" name="inserted"/>
      <point x="556" y="575"/>
      <point x="507" y="508"/>
      <point x="488.5" y="471.0" type="qcurve" smooth="yes" name="inserted"/>
      <point x="470" y="434"/>
      <point x="448" y="360"/>
      <point x="448" y="327" type="qcurve" smooth="yes"/>
      <point x="448" y="295"/>
      <point x="477" y="266"/>
    </contour>
  </outline>
</glyph>
<glyph name="D" format="1">
  <advance width="1228"/>
  <unicode hex="0044"/>
  <outline>
    <contour>
      <point x="370" y="1051" type="line"/>
      <point x="258" y="1051" type="line" smooth="yes"/>
      <point x="224" y="1051"/>
      <point x="200" y="1081"/>
      <point x="207" y="1119" type="qcurve" smooth="yes"/>
      <point x="214" y="1157"/>
      <point x="248" y="1187"/>
      <point x="282" y="1187" type="qcurve" smooth="yes"/>
      <point x="738" y="1187" type="line" smooth="yes"/>
      <point x="840" y="1187"/>
      <point x="1006" y="1123"/>
      <point x="1064.0" y="1063.0" type="qcurve" smooth="yes" name="inserted"/>
      <point x="1122" y="1003"/>
      <point x="1185" y="832"/>
      <point x="1185" y="724" type="qcurve" smooth="yes"/>
      <point x="1185" y="655"/>
      <point x="1157" y="494"/>
      <point x="1126.5" y="413.5" type="qcurve" smooth="yes" name="inserted"/>
      <point x="1096" y="333"/>
      <point x="998" y="184"/>
      <point x="928.5" y="126.5" type="qcurve" smooth="yes" name="inserted"/>
      <point x="859" y="69"/>
      <point x="676" y="0"/>
      <point x="559" y="0" type="qcurve" smooth="yes"/>
      <point x="73" y="0" type="line" smooth="yes"/>
      <point x="39" y="0"/>
      <point x="15" y="30"/>
      <point x="21" y="68" type="qcurve" smooth="yes"/>
      <point x="28" y="106"/>
      <point x="62" y="136"/>
      <point x="96" y="136" type="qcurve" smooth="yes"/>
      <point x="208" y="136" type="line"/>
    </contour>
    <contour>
      <point x="544" y="136" type="line" smooth="yes"/>
      <point x="634" y="136"/>
      <point x="776" y="190"/>
      <point x="829.5" y="235.5" type="qcurve" smooth="yes" name="inserted"/>
      <point x="883" y="281"/>
      <point x="959" y="400"/>
      <point x="982.5" y="465.0" type="qcurve" smooth="yes" name="inserted"/>
      <point x="1006" y="530"/>
      <point x="1028" y="661"/>
      <point x="1028" y="719" type="qcurve" smooth="yes"/>
      <point x="1028" y="882"/>
      <point x="857" y="1051"/>
      <point x="706" y="1051" type="qcurve" smooth="yes"/>
      <point x="520" y="1051" type="line"/>
      <point x="358" y="136" type="line"/>
    </contour>
  </outline>
</glyph>
<glyph name="G" format="1">
  <advance width="1228"/>
  <unicode hex="0047"/>
  <outline>
    <contour>
      <point x="678" y="410" type="line" smooth="yes"/>
      <point x="644" y="410"/>
      <point x="620" y="440"/>
      <point x="627" y="478" type="qcurve" smooth="yes"/>
      <point x="634" y="516"/>
      <point x="668" y="546"/>
      <point x="702" y="546" type="qcurve" smooth="yes"/>
      <point x="1131" y="546" type="line" smooth="yes"/>
      <point x="1165" y="546"/>
      <point x="1189" y="516"/>
      <point x="1182" y="478" type="qcurve" smooth="yes"/>
      <point x="1175" y="440"/>
      <point x="1141" y="410"/>
      <point x="1107" y="410" type="qcurve" smooth="yes"/>
      <point x="1075" y="410" type="line"/>
      <point x="1026" y="134" type="line" smooth="yes"/>
      <point x="1021" y="110"/>
      <point x="997" y="74"/>
      <point x="978" y="65" type="qcurve" smooth="yes"/>
      <point x="887" y="20"/>
      <point x="679" y="-22"/>
      <point x="565" y="-22" type="qcurve" smooth="yes"/>
      <point x="463" y="-22"/>
      <point x="299" y="47"/>
      <point x="241.0" y="110.0" type="qcurve" smooth="yes" name="inserted"/>
      <point x="183" y="173"/>
      <point x="121" y="351"/>
      <point x="121" y="460" type="qcurve" smooth="yes"/>
      <point x="121" y="556"/>
      <point x="163" y="742"/>
      <point x="202.0" y="825.5" type="qcurve" smooth="yes" name="inserted"/>
      <point x="241" y="909"/>
      <point x="354" y="1049"/>
      <point x="425.0" y="1100.5" type="qcurve" smooth="yes" name="inserted"/>
      <point x="496" y="1152"/>
      <point x="666" y="1209"/>
      <point x="762" y="1209" type="qcurve" smooth="yes"/>
      <point x="861" y="1209"/>
      <point x="995" y="1144"/>
      <point x="1034" y="1090" type="qcurve"/>
      <point x="1043" y="1144" type="line" smooth="yes"/>
      <point x="1049" y="1179"/>
      <point x="1088" y="1209"/>
      <point x="1130" y="1209" type="qcurve" smooth="yes"/>
      <point x="1172" y="1209"/>
      <point x="1199" y="1179"/>
      <point x="1193" y="1144" type="qcurve" smooth="yes"/>
      <point x="1142" y="854" type="line" smooth="yes"/>
      <point x="1136" y="819"/>
      <point x="1098" y="789"/>
      <point x="1056" y="789" type="qcurve" smooth="yes"/>
      <point x="1014" y="789"/>
      <point x="986" y="819"/>
      <point x="992" y="854" type="qcurve" smooth="yes"/>
      <point x="1000" y="899"/>
      <point x="977" y="975"/>
      <point x="946.5" y="1002.5" type="qcurve" smooth="yes" name="inserted"/>
      <point x="916" y="1030"/>
      <point x="818" y="1061"/>
      <point x="751" y="1061" type="qcurve" smooth="yes"/>
      <point x="675" y="1061"/>
      <point x="545" y="1011"/>
      <point x="492.5" y="968.5" type="qcurve" smooth="yes" name="inserted"/>
      <point x="440" y="926"/>
      <point x="360" y="810"/>
      <point x="333.0" y="743.5" type="qcurve" smooth="yes" name="inserted"/>
      <point x="306" y="677"/>
      <point x="278" y="535"/>
      <point x="278" y="465" type="qcurve" smooth="yes"/>
      <point x="278" y="385"/>
      <point x="319" y="260"/>
      <point x="357.0" y="216.0" type="qcurve" smooth="yes" name="inserted"/>
      <point x="395" y="172"/>
      <point x="506" y="126"/>
      <point x="576" y="126" type="qcurve" smooth="yes"/>
      <point x="661" y="126"/>
      <point x="814" y="153"/>
      <point x="885" y="183" type="qcurve"/>
      <point x="925" y="410" type="line"/>
    </contour>
  </outline>
</glyph>
<glyph name="I" format="1">
  <advance width="1228"/>
  <unicode hex="0049"/>
  <outline>
    <contour>
      <point x="654" y="1051" type="line"/>
      <point x="388" y="1051" type="line" smooth="yes"/>
      <point x="354" y="1051"/>
      <point x="330" y="1081"/>
      <point x="337" y="1119" type="qcurve" smooth="yes"/>
      <point x="344" y="1157"/>
      <point x="378" y="1187"/>
      <point x="412" y="1187" type="qcurve" smooth="yes"/>
      <point x="1074" y="1187" type="line" smooth="yes"/>
      <point x="1108" y="1187"/>
      <point x="1132" y="1157"/>
      <point x="1125" y="1119" type="qcurve" smooth="yes"/>
      <point x="1118" y="1081"/>
      <point x="1084" y="1051"/>
      <point x="1050" y="1051" type="qcurve" smooth="yes"/>
      <point x="804" y="1051" type="line"/>
      <point x="642" y="136" type="line"/>
      <point x="928" y="136" type="line" smooth="yes"/>
      <point x="962" y="136"/>
      <point x="986" y="106"/>
      <point x="979" y="68" type="qcurve" smooth="yes"/>
      <point x="973" y="30"/>
      <point x="939" y="0"/>
      <point x="905" y="0" type="qcurve" smooth="yes"/>
      <point x="203" y="0" type="line" smooth="yes"/>
      <point x="169" y="0"/>
      <point x="145" y="30"/>
      <point x="151" y="68" type="qcurve" smooth="yes"/>
      <point x="158" y="106"/>
      <point x="192" y="136"/>
      <point x="226" y="136" type="qcurve" smooth="yes"/>
      <point x="492" y="136" type="line"/>
    </contour>
  </outline>
</glyph>
<glyph name="K" format="1">
  <advance width="1228"/>
  <unicode hex="004B"/>
  <outline>
    <contour>
      <point x="370" y="1051" type="line"/>
      <point x="258" y="1051" type="line" smooth="yes"/>
      <point x="224" y="1051"/>
      <point x="200" y="1081"/>
      <point x="207" y="1119" type="qcurve" smooth="yes"/>
      <point x="214" y="1157"/>
      <point x="248" y="1187"/>
      <point x="282" y="1187" type="qcurve" smooth="yes"/>
      <point x="636" y="1187" type="line" smooth="yes"/>
      <point x="670" y="1187"/>
      <point x="694" y="1157"/>
      <point x="687" y="1119" type="qcurve" smooth="yes"/>
      <point x="680" y="1081"/>
      <point x="646" y="1051"/>
      <point x="612" y="1051" type="qcurve" smooth="yes"/>
      <point x="520" y="1051" type="line"/>
      <point x="447" y="635" type="line"/>
      <point x="949" y="1051" type="line"/>
      <point x="886" y="1051" type="line" smooth="yes"/>
      <point x="852" y="1051"/>
      <point x="828" y="1081"/>
      <point x="835" y="1119" type="qcurve" smooth="yes"/>
      <point x="842" y="1157"/>
      <point x="876" y="1187"/>
      <point x="910" y="1187" type="qcurve" smooth="yes"/>
      <point x="1234" y="1187" type="line" smooth="yes"/>
      <point x="1268" y="1187"/>
      <point x="1292" y="1157"/>
      <point x="1285" y="1119" type="qcurve" smooth="yes"/>
      <point x="1278" y="1081"/>
      <point x="1244" y="1051"/>
      <point x="1210" y="1051" type="qcurve" smooth="yes"/>
      <point x="1158" y="1051" type="line"/>
      <point x="663" y="646" type="line"/>
      <point x="732" y="651"/>
      <point x="833" y="607"/>
      <point x="869" y="547" type="qcurve" smooth="yes"/>
      <point x="891" y="510"/>
      <point x="918" y="420"/>
      <point x="928.0" y="374.0" type="qcurve" smooth="yes" name="inserted"/>
      <point x="938" y="328"/>
      <point x="956" y="241"/>
      <point x="968" y="208" type="qcurve" smooth="yes"/>
      <point x="980" y="175"/>
      <point x="1016" y="136"/>
      <point x="1045" y="136" type="qcurve" smooth="yes"/>
      <point x="1078" y="136" type="line" smooth="yes"/>
      <point x="1112" y="136"/>
      <point x="1136" y="106"/>
      <point x="1129" y="68" type="qcurve" smooth="yes"/>
      <point x="1123" y="30"/>
      <point x="1089" y="0"/>
      <point x="1055" y="0" type="qcurve" smooth="yes"/>
      <point x="978" y="0" type="line" smooth="yes"/>
      <point x="933" y="0"/>
      <point x="856" y="62"/>
      <point x="830" y="139" type="qcurve" smooth="yes"/>
      <point x="817" y="179"/>
      <point x="799" y="266"/>
      <point x="790.0" y="308.5" type="qcurve" smooth="yes" name="inserted"/>
      <point x="781" y="351"/>
      <point x="760" y="429"/>
      <point x="744" y="460" type="qcurve" smooth="yes"/>
      <point x="726" y="495"/>
      <point x="658" y="532"/>
      <point x="610" y="532" type="qcurve" smooth="yes"/>
      <point x="568" y="532"/>
      <point x="484" y="503"/>
      <point x="448" y="473" type="qcurve" smooth="yes"/>
      <point x="413" y="444" type="line"/>
      <point x="358" y="136" type="line"/>
      <point x="520" y="136" type="line" smooth="yes"/>
      <point x="554" y="136"/>
      <point x="578" y="106"/>
      <point x="571" y="68" type="qcurve" smooth="yes"/>
      <point x="565" y="30"/>
      <point x="531" y="0"/>
      <point x="497" y="0" type="qcurve" smooth="yes"/>
      <point x="73" y="0" type="line" smooth="yes"/>
      <point x="39" y="0"/>
      <point x="15" y="30"/>
      <point x="21" y="68" type="qcurve" smooth="yes"/>
      <point x="28" y="106"/>
      <point x="62" y="136"/>
      <point x="96" y="136" type="qcurve" smooth="yes"/>
      <point x="208" y="136" type="line"/>
    </contour>
  </outline>
</glyph>
<glyph name="M" format="1">
  <advance width="1228"/>
  <unicode hex="004D"/>
  <outline>
    <contour>
      <point x="287" y="1051" type="line"/>
      <point x="238" y="1051" type="line" smooth="yes"/>
      <point x="204" y="1051"/>
      <point x="180" y="1081"/>
      <point x="187" y="1119" type="qcurve" smooth="yes"/>
      <point x="194" y="1157"/>
      <point x="228" y="1187"/>
      <point x="262" y="1187" type="qcurve" smooth="yes"/>
      <point x="467" y="1187" type="line" smooth="yes"/>
      <point x="490.0" y="1187.0" name="inserted"/>
      <point x="516.0" y="1170.5"/>
      <point x="519" y="1154" type="qcurve" smooth="yes"/>
      <point x="634" y="545" type="line"/>
      <point x="962" y="1154" type="line" smooth="yes"/>
      <point x="970.5" y="1170.5" name="inserted"/>
      <point x="1003.0" y="1187.0"/>
      <point x="1027" y="1187" type="qcurve" smooth="yes"/>
      <point x="1244" y="1187" type="line" smooth="yes"/>
      <point x="1278" y="1187"/>
      <point x="1302" y="1157"/>
      <point x="1295" y="1119" type="qcurve" smooth="yes"/>
      <point x="1288" y="1081"/>
      <point x="1254" y="1051"/>
      <point x="1220" y="1051" type="qcurve" smooth="yes"/>
      <point x="1170" y="1051" type="line"/>
      <point x="1034" y="136" type="line"/>
      <point x="1088" y="136" type="line" smooth="yes"/>
      <point x="1122" y="136"/>
      <point x="1146" y="106"/>
      <point x="1139" y="68" type="qcurve" smooth="yes"/>
      <point x="1133" y="30"/>
      <point x="1099" y="0"/>
      <point x="1065" y="0" type="qcurve" smooth="yes"/>
      <point x="751" y="0" type="line" smooth="yes"/>
      <point x="717" y="0"/>
      <point x="693" y="30"/>
      <point x="699" y="68" type="qcurve" smooth="yes"/>
      <point x="706" y="106"/>
      <point x="740" y="136"/>
      <point x="774" y="136" type="qcurve" smooth="yes"/>
      <point x="885" y="136" type="line"/>
      <point x="1008" y="955" type="line"/>
      <point x="703" y="385" type="line" smooth="yes"/>
      <point x="684" y="350"/>
      <point x="635" y="320"/>
      <point x="600" y="320" type="qcurve" smooth="yes"/>
      <point x="565" y="320"/>
      <point x="526" y="350"/>
      <point x="519" y="385" type="qcurve" smooth="yes"/>
      <point x="415" y="955" type="line"/>
      <point x="249" y="136" type="line"/>
      <point x="360" y="136" type="line" smooth="yes"/>
      <point x="394" y="136"/>
      <point x="418" y="106"/>
      <point x="411" y="68" type="qcurve" smooth="yes"/>
      <point x="405" y="30"/>
      <point x="371" y="0"/>
      <point x="337" y="0" type="qcurve" smooth="yes"/>
      <point x="23" y="0" type="line" smooth="yes"/>
      <point x="-11" y="0"/>
      <point x="-35" y="30"/>
      <point x="-29" y="68" type="qcurve" smooth="yes"/>
      <point x="-22" y="106"/>
      <point x="12" y="136"/>
      <point x="46" y="136" type="qcurve" smooth="yes"/>
      <point x="100" y="136" type="line"/>
    </contour>
  </outline>
</glyph>
<glyph name="N" format="1">
  <advance width="1228"/>
  <unicode hex="004E"/>
  <outline>
    <contour>
      <point x="325" y="1051" type="line"/>
      <point x="248" y="1051" type="line" smooth="yes"/>
      <point x="214" y="1051"/>
      <point x="190" y="1081"/>
      <point x="197" y="1119" type="qcurve" smooth="yes"/>
      <point x="204" y="1157"/>
      <point x="238" y="1187"/>
      <point x="272" y="1187" type="qcurve" smooth="yes"/>
      <point x="496" y="1187" type="line" smooth="yes"/>
      <point x="517.0" y="1187.0" name="inserted"/>
      <point x="543.0" y="1173.0"/>
      <point x="548" y="1159" type="qcurve" smooth="yes"/>
      <point x="870" y="298" type="line"/>
      <point x="1003" y="1051" type="line"/>
      <point x="886" y="1051" type="line" smooth="yes"/>
      <point x="852" y="1051"/>
      <point x="828" y="1081"/>
      <point x="835" y="1119" type="qcurve" smooth="yes"/>
      <point x="842" y="1157"/>
      <point x="876" y="1187"/>
      <point x="910" y="1187" type="qcurve" smooth="yes"/>
      <point x="1234" y="1187" type="line" smooth="yes"/>
      <point x="1268" y="1187"/>
      <point x="1292" y="1157"/>
      <point x="1285" y="1119" type="qcurve" smooth="yes"/>
      <point x="1278" y="1081"/>
      <point x="1244" y="1051"/>
      <point x="1210" y="1051" type="qcurve" smooth="yes"/>
      <point x="1153" y="1051" type="line"/>
      <point x="974" y="37" type="line" smooth="yes"/>
      <point x="969" y="11"/>
      <point x="928" y="-22"/>
      <point x="889" y="-22" type="qcurve" smooth="yes"/>
      <point x="861.5" y="-22.0" name="inserted"/>
      <point x="824.0" y="5.5"/>
      <point x="814" y="33" type="qcurve" smooth="yes"/>
      <point x="461" y="973" type="line"/>
      <point x="313" y="136" type="line"/>
      <point x="450" y="136" type="line" smooth="yes"/>
      <point x="484" y="136"/>
      <point x="508" y="106"/>
      <point x="501" y="68" type="qcurve" smooth="yes"/>
      <point x="495" y="30"/>
      <point x="461" y="0"/>
      <point x="427" y="0" type="qcurve" smooth="yes"/>
      <point x="73" y="0" type="line" smooth="yes"/>
      <point x="39" y="0"/>
      <point x="15" y="30"/>
      <point x="21" y="68" type="qcurve" smooth="yes"/>
      <point x="28" y="106"/>
      <point x="62" y="136"/>
      <point x="96" y="136" type="qcurve" smooth="yes"/>
      <point x="163" y="136" type="line"/>
    </contour>
  </outline>
</glyph>
<glyph name="Q" format="1">
  <advance width="1228"/>
  <unicode hex="0051"/>
  <outline>
    <contour>
      <point x="1189" y="746" type="qcurve" smooth="yes"/>
      <point x="1189" y="663"/>
      <point x="1155" y="492"/>
      <point x="1120.0" y="412.0" type="qcurve" smooth="yes" name="inserted"/>
      <point x="1085" y="332"/>
      <point x="982" y="192"/>
      <point x="912.0" y="140.0" type="qcurve" smooth="yes" name="inserted"/>
      <point x="842" y="88"/>
      <point x="668" y="28"/>
      <point x="563" y="28" type="qcurve" smooth="yes"/>
      <point x="549" y="28"/>
      <point x="522" y="29"/>
      <point x="508" y="30" type="qcurve"/>
      <point x="360" y="-100" type="line"/>
      <point x="404" y="-85"/>
      <point x="477" y="-73"/>
      <point x="509" y="-73" type="qcurve" smooth="yes"/>
      <point x="543" y="-73"/>
      <point x="603" y="-83"/>
      <point x="631.0" y="-89.0" type="qcurve" smooth="yes" name="inserted"/>
      <point x="659" y="-95"/>
      <point x="713" y="-105"/>
      <point x="742" y="-105" type="qcurve" smooth="yes"/>
      <point x="780" y="-105"/>
      <point x="863" y="-81"/>
      <point x="914" y="-48" type="qcurve" smooth="yes"/>
      <point x="933" y="-36"/>
      <point x="973" y="-61"/>
      <point x="986" y="-84" type="qcurve" smooth="yes"/>
      <point x="999" y="-107"/>
      <point x="999" y="-162"/>
      <point x="973" y="-179" type="qcurve" smooth="yes"/>
      <point x="903" y="-226"/>
      <point x="794" y="-259"/>
      <point x="746" y="-259" type="qcurve" smooth="yes"/>
      <point x="711" y="-259"/>
      <point x="646" y="-247"/>
      <point x="612.0" y="-239.5" type="qcurve" smooth="yes" name="inserted"/>
      <point x="578" y="-232"/>
      <point x="504" y="-220"/>
      <point x="461" y="-220" type="qcurve" smooth="yes"/>
      <point x="413" y="-220"/>
      <point x="300" y="-241"/>
      <point x="229" y="-269" type="qcurve" smooth="yes"/>
      <point x="208" y="-277"/>
      <point x="168" y="-256"/>
      <point x="151" y="-233" type="qcurve" smooth="yes"/>
      <point x="133" y="-208"/>
      <point x="124" y="-158"/>
      <point x="141" y="-142" type="qcurve" smooth="yes"/>
      <point x="362" y="67" type="line"/>
      <point x="245" y="118"/>
      <point x="116" y="337"/>
      <point x="116" y="492" type="qcurve" smooth="yes"/>
      <point x="116" y="575"/>
      <point x="150" y="746"/>
      <point x="185.0" y="826.0" type="qcurve" smooth="yes" name="inserted"/>
      <point x="220" y="906"/>
      <point x="323" y="1045"/>
      <point x="393.0" y="1097.0" type="qcurve" smooth="yes" name="inserted"/>
      <point x="463" y="1149"/>
      <point x="637" y="1209"/>
      <point x="742" y="1209" type="qcurve" smooth="yes"/>
      <point x="844" y="1209"/>
      <point x="1010" y="1144"/>
      <point x="1068.0" y="1083.5" type="qcurve" smooth="yes" name="inserted"/>
      <point x="1126" y="1023"/>
      <point x="1189" y="852"/>
    </contour>
    <contour>
      <point x="1031" y="737" type="qcurve" smooth="yes"/>
      <point x="1031" y="892"/>
      <point x="873" y="1061"/>
      <point x="731" y="1061" type="qcurve" smooth="yes"/>
      <point x="654" y="1061"/>
      <point x="527" y="1014"/>
      <point x="476.0" y="973.0" type="qcurve" smooth="yes" name="inserted"/>
      <point x="425" y="932"/>
      <point x="349" y="822"/>
      <point x="323.5" y="760.0" type="qcurve" smooth="yes" name="inserted"/>
      <point x="298" y="698"/>
      <point x="273" y="564"/>
      <point x="273" y="500" type="qcurve" smooth="yes"/>
      <point x="273" y="423"/>
      <point x="314" y="302"/>
      <point x="353.0" y="260.5" type="qcurve" smooth="yes" name="inserted"/>
      <point x="392" y="219"/>
      <point x="504" y="176"/>
      <point x="575" y="176" type="qcurve" smooth="yes"/>
      <point x="651" y="176"/>
      <point x="779" y="223"/>
      <point x="829.5" y="264.0" type="qcurve" smooth="yes" name="inserted"/>
      <point x="880" y="305"/>
      <point x="956" y="415"/>
      <point x="981.0" y="477.0" type="qcurve" smooth="yes" name="inserted"/>
      <point x="1006" y="539"/>
      <point x="1031" y="672"/>
    </contour>
  </outline>
</glyph>
<glyph name="S" format="1">
  <advance width="1228"/>
  <unicode hex="0053"/>
  <outline>
    <contour>
      <point x="248" y="821" type="qcurve" smooth="yes"/>
      <point x="248" y="885"/>
      <point x="298" y="1022"/>
      <point x="351.5" y="1079.0" type="qcurve" smooth="yes" name="inserted"/>
      <point x="405" y="1136"/>
      <point x="574" y="1209"/>
      <point x="694" y="1209" type="qcurve" smooth="yes"/>
      <point x="740" y="1209"/>
      <point x="826" y="1189"/>
      <point x="863.5" y="1171.5" type="qcurve" smooth="yes" name="inserted"/>
      <point x="901" y="1154"/>
      <point x="964" y="1106"/>
      <point x="987" y="1078" type="qcurve"/>
      <point x="999" y="1144" type="line" smooth="yes"/>
      <point x="1005" y="1179"/>
      <point x="1044" y="1209"/>
      <point x="1086" y="1209" type="qcurve" smooth="yes"/>
      <point x="1128" y="1209"/>
      <point x="1155" y="1179"/>
      <point x="1149" y="1144" type="qcurve" smooth="yes"/>
      <point x="1109" y="914" type="line" smooth="yes"/>
      <point x="1103" y="879"/>
      <point x="1064" y="849"/>
      <point x="1022" y="849" type="qcurve" smooth="yes"/>
      <point x="1003.5" y="849.0" name="inserted"/>
      <point x="980.0" y="862.0"/>
      <point x="975" y="875" type="qcurve" smooth="yes"/>
      <point x="942" y="968"/>
      <point x="785" y="1061"/>
      <point x="675" y="1061" type="qcurve" smooth="yes"/>
      <point x="605" y="1061"/>
      <point x="504" y="1021"/>
      <point x="471.5" y="990.5" type="qcurve" smooth="yes" name="inserted"/>
      <point x="439" y="960"/>
      <point x="408" y="885"/>
      <point x="408" y="849" type="qcurve" smooth="yes"/>
      <point x="408" y="807"/>
      <point x="462" y="757"/>
      <point x="507" y="740" type="qcurve" smooth="yes"/>
      <point x="548" y="724"/>
      <point x="652" y="702"/>
      <point x="707.5" y="689.5" type="qcurve" smooth="yes" name="inserted"/>
      <point x="763" y="677"/>
      <point x="872" y="645"/>
      <point x="919" y="620" type="qcurve" smooth="yes"/>
      <point x="949" y="603"/>
      <point x="1000" y="561"/>
      <point x="1018.5" y="533.5" type="qcurve" smooth="yes" name="inserted"/>
      <point x="1037" y="506"/>
      <point x="1057" y="436"/>
      <point x="1057" y="392" type="qcurve" smooth="yes"/>
      <point x="1057" y="346"/>
      <point x="1036" y="248"/>
      <point x="1012.5" y="202.0" type="qcurve" smooth="yes" name="inserted"/>
      <point x="989" y="156"/>
      <point x="915" y="75"/>
      <point x="861.5" y="44.5" type="qcurve" smooth="yes" name="inserted"/>
      <point x="808" y="14"/>
      <point x="666" y="-22"/>
      <point x="575" y="-22" type="qcurve" smooth="yes"/>
      <point x="472" y="-22"/>
      <point x="311" y="55"/>
      <point x="260" y="126" type="qcurve"/>
      <point x="245" y="43" type="line" smooth="yes"/>
      <point x="239" y="8"/>
      <point x="201" y="-22"/>
      <point x="159" y="-22" type="qcurve" smooth="yes"/>
      <point x="117" y="-22"/>
      <point x="89" y="8"/>
      <point x="95" y="43" type="qcurve" smooth="yes"/>
      <point x="148" y="343" type="line" smooth="yes"/>
      <point x="154" y="378"/>
      <point x="192" y="408"/>
      <point x="234" y="408" type="qcurve" smooth="yes"/>
      <point x="255.5" y="408.0" name="inserted"/>
      <point x="281.0" y="387.0"/>
      <point x="285" y="366" type="qcurve" smooth="yes"/>
      <point x="305" y="250"/>
      <point x="462" y="126"/>
      <point x="594" y="126" type="qcurve" smooth="yes"/>
      <point x="670" y="126"/>
      <point x="783" y="165"/>
      <point x="821.0" y="197.5" type="qcurve" smooth="yes" name="inserted"/>
      <point x="859" y="230"/>
      <point x="897" y="315"/>
      <point x="897" y="361" type="qcurve" smooth="yes"/>
      <point x="897" y="409"/>
      <point x="847" y="471"/>
      <point x="805" y="492" type="qcurve" smooth="yes"/>
      <point x="765" y="512"/>
      <point x="663" y="538"/>
      <point x="608.5" y="550.0" type="qcurve" smooth="yes" name="inserted"/>
      <point x="554" y="562"/>
      <point x="444" y="590"/>
      <point x="397" y="611" type="qcurve" smooth="yes"/>
      <point x="365" y="626"/>
      <point x="310" y="664"/>
      <point x="290.0" y="689.0" type="qcurve" smooth="yes" name="inserted"/>
      <point x="270" y="714"/>
      <point x="248" y="779"/>
    </contour>
  </outline>
</glyph>
<glyph name="U" format="1">
  <advance width="1228"/>
  <unicode hex="0055"/>
  <outline>
    <contour>
      <point x="248" y="1051" type="line" smooth="yes"/>
      <point x="214" y="1051"/>
      <point x="190" y="1081"/>
      <point x="197" y="1119" type="qcurve" smooth="yes"/>
      <point x="204" y="1157"/>
      <point x="238" y="1187"/>
      <point x="272" y="1187" type="qcurve" smooth="yes"/>
      <point x="596" y="1187" type="line" smooth="yes"/>
      <point x="630" y="1187"/>
      <point x="654" y="1157"/>
      <point x="647" y="1119" type="qcurve" smooth="yes"/>
      <point x="640" y="1081"/>
      <point x="606" y="1051"/>
      <point x="572" y="1051" type="qcurve" smooth="yes"/>
      <point x="460" y="1051" type="line"/>
      <point x="347" y="413" type="line" smooth="yes"/>
      <point x="342.5" y="387.5" name="inserted"/>
      <point x="338.0" y="341.5"/>
      <point x="338" y="321" type="qcurve" smooth="yes"/>
      <point x="338" y="216"/>
      <point x="452" y="126"/>
      <point x="566" y="126" type="qcurve" smooth="yes"/>
      <point x="634" y="126"/>
      <point x="741" y="157"/>
      <point x="780.5" y="191.5" type="qcurve" smooth="yes" name="inserted"/>
      <point x="820" y="226"/>
      <point x="871" y="335"/>
      <point x="885" y="413" type="qcurve" smooth="yes"/>
      <point x="998" y="1051" type="line"/>
      <point x="886" y="1051" type="line" smooth="yes"/>
      <point x="852" y="1051"/>
      <point x="828" y="1081"/>
      <point x="835" y="1119" type="qcurve" smooth="yes"/>
      <point x="842" y="1157"/>
      <point x="876" y="1187"/>
      <point x="910" y="1187" type="qcurve" smooth="yes"/>
      <point x="1234" y="1187" type="line" smooth="yes"/>
      <point x="1268" y="1187"/>
      <point x="1292" y="1157"/>
      <point x="1285" y="1119" type="qcurve" smooth="yes"/>
      <point x="1278" y="1081"/>
      <point x="1244" y="1051"/>
      <point x="1210" y="1051" type="qcurve" smooth="yes"/>
      <point x="1148" y="1051" type="line"/>
      <point x="1030" y="383" type="line" smooth="yes"/>
      <point x="1011" y="276"/>
      <point x="931" y="123"/>
      <point x="871.0" y="73.5" type="qcurve" smooth="yes" name="inserted"/>
      <point x="811" y="24"/>
      <point x="652" y="-22"/>
      <point x="555" y="-22" type="qcurve" smooth="yes"/>
      <point x="470" y="-22"/>
      <point x="334" y="18"/>
      <point x="286.0" y="58.0" type="qcurve" smooth="yes" name="inserted"/>
      <point x="238" y="98"/>
      <point x="186" y="218"/>
      <point x="186" y="299" type="qcurve" smooth="yes"/>
      <point x="186" y="323"/>
      <point x="191" y="375"/>
      <point x="196" y="403" type="qcurve" smooth="yes"/>
      <point x="310" y="1051" type="line"/>
    </contour>
  </outline>
</glyph>
<glyph name="Z" format="1">
  <advance width="1228"/>
  <unicode hex="005A"/>
  <outline>
    <contour>
      <point x="872" y="136" type="line"/>
      <point x="920" y="405" type="line" smooth="yes"/>
      <point x="926" y="440"/>
      <point x="964" y="470"/>
      <point x="1006" y="470" type="qcurve" smooth="yes"/>
      <point x="1048" y="470"/>
      <point x="1076" y="440"/>
      <point x="1070" y="405" type="qcurve" smooth="yes"/>
      <point x="1010" y="68" type="line" smooth="yes"/>
      <point x="1004" y="30"/>
      <point x="970" y="0"/>
      <point x="936" y="0" type="qcurve" smooth="yes"/>
      <point x="170" y="0" type="line" smooth="yes"/>
      <point x="136" y="0"/>
      <point x="112" y="30"/>
      <point x="118" y="68" type="qcurve"/>
      <point x="121" y="82"/>
      <point x="132" y="102"/>
      <point x="140" y="111" type="qcurve" smooth="yes"/>
      <point x="935" y="1051" type="line"/>
      <point x="443" y="1051" type="line"/>
      <point x="399" y="802" type="line" smooth="yes"/>
      <point x="393" y="767"/>
      <point x="354" y="737"/>
      <point x="312" y="737" type="qcurve" smooth="yes"/>
      <point x="270" y="737"/>
      <point x="243" y="767"/>
      <point x="249" y="802" type="qcurve" smooth="yes"/>
      <point x="305" y="1119" type="line" smooth="yes"/>
      <point x="312" y="1157"/>
      <point x="346" y="1187"/>
      <point x="380" y="1187" type="qcurve" smooth="yes"/>
      <point x="1116" y="1187" type="line" smooth="yes"/>
      <point x="1150" y="1187"/>
      <point x="1174" y="1157"/>
      <point x="1167" y="1119" type="qcurve" smooth="yes"/>
      <point x="1164.5" y="1106.5" name="inserted"/>
      <point x="1156.0" y="1087.0"/>
      <point x="1150" y="1080" type="qcurve" smooth="yes"/>
      <point x="350" y="136" type="line"/>
    </contour>
  </outline>
</glyph>
<glyph name="bracketright" format="1">
  <advance width="1228"/>
  <unicode hex="005D"/>
  <outline>
    <contour>
      <point x="885" y="1176" type="line"/>
      <point x="558" y="1176" type="line" smooth="yes"/>
      <point x="524" y="1176"/>
      <point x="500" y="1206"/>
      <point x="507" y="1244" type="qcurve" smooth="yes"/>
      <point x="514" y="1282"/>
      <point x="548" y="1312"/>
      <point x="582" y="1312" type="qcurve" smooth="yes"/>
      <point x="996" y="1312" type="line" smooth="yes"/>
      <point x="1030" y="1312"/>
      <point x="1054" y="1282"/>
      <point x="1047" y="1244" type="qcurve" smooth="yes"/>
      <point x="770" y="-325" type="line" smooth="yes"/>
      <point x="763" y="-363"/>
      <point x="729" y="-393"/>
      <point x="695" y="-393" type="qcurve" smooth="yes"/>
      <point x="281" y="-393" type="line" smooth="yes"/>
      <point x="247" y="-393"/>
      <point x="223" y="-363"/>
      <point x="230" y="-325" type="qcurve" smooth="yes"/>
      <point x="237" y="-287"/>
      <point x="271" y="-257"/>
      <point x="305" y="-257" type="qcurve" smooth="yes"/>
      <point x="632" y="-257" type="line"/>
    </contour>
  </outline>
</glyph>
<glyph name="asciicircum" format="1">
  <advance width="1228"/>
  <unicode hex="005E"/>
  <outline>
    <contour>
      <point x="408" y="527" type="line" smooth="yes"/>
      <point x="402" y="517"/>
      <point x="380" y="506"/>
      <point x="366.5" y="503.5" type="qcurve" smooth="yes" name="inserted"/>
      <point x="353" y="501"/>
      <point x="324" y="503"/>
      <point x="311" y="507" type="qcurve" smooth="yes"/>
      <point x="297" y="511"/>
      <point x="273" y="525"/>
      <point x="266.5" y="534.5" type="qcurve" smooth="yes" name="inserted"/>
      <point x="260" y="544"/>
      <point x="261" y="567"/>
      <point x="270" y="581" type="qcurve" smooth="yes"/>
      <point x="682" y="1172" type="line" smooth="yes"/>
      <point x="695" y="1190"/>
      <point x="728" y="1209"/>
      <point x="757" y="1209" type="qcurve" smooth="yes"/>
      <point x="786" y="1209"/>
      <point x="811" y="1190"/>
      <point x="818" y="1172" type="qcurve" smooth="yes"/>
      <point x="1022" y="581" type="line" smooth="yes"/>
      <point x="1031" y="556"/>
      <point x="997" y="519"/>
      <point x="971" y="510" type="qcurve" smooth="yes"/>
      <point x="943" y="500"/>
      <point x="889" y="507"/>
      <point x="882" y="527" type="qcurve" smooth="yes"/>
      <point x="728" y="1007" type="line"/>
    </contour>
  </outline>
</glyph>
<glyph name="a" format="1">
  <advance width="1228"/>
  <unicode hex="0061"/>
  <outline>
    <contour>
      <point x="485" y="-22" type="qcurve" smooth="yes"/>
      <point x="404" y="-22"/>
      <point x="270" y="32"/>
      <point x="222.0" y="82.5" type="qcurve" smooth="yes" name="inserted"/>
      <point x="174" y="133"/>
      <point x="121" y="276"/>
      <point x="121" y="366" type="qcurve" smooth="yes"/>
      <point x="121" y="431"/>
      <point x="148" y="567"/>
      <point x="176.0" y="631.5" type="qcurve" smooth="yes" name="inserted"/>
      <point x="204" y="696"/>
      <point x="288" y="810"/>
      <point x="345.0" y="853.0" type="qcurve" smooth="yes" name="inserted"/>
      <point x="402" y="896"/>
      <point x="547" y="946"/>
      <point x="635" y="946" type="qcurve" smooth="yes"/>
      <point x="686" y="946"/>
      <point x="777" y="920"/>
      <point x="815.5" y="896.0" type="qcurve" smooth="yes" name="inserted"/>
      <point x="854" y="872"/>
      <point x="916" y="806"/>
      <point x="940" y="766" type="qcurve"/>
      <point x="959" y="869" type="line" smooth="yes"/>
      <point x="965" y="904"/>
      <point x="998" y="934"/>
      <point x="1040" y="934" type="qcurve" smooth="yes"/>
      <point x="1082" y="934"/>
      <point x="1105" y="904"/>
      <point x="1099" y="869" type="qcurve" smooth="yes"/>
      <point x="981" y="201" type="line" smooth="yes"/>
      <point x="976" y="170"/>
      <point x="997" y="136"/>
      <point x="1025" y="136" type="qcurve" smooth="yes"/>
      <point x="1050" y="136" type="line" smooth="yes"/>
      <point x="1084" y="136"/>
      <point x="1108" y="106"/>
      <point x="1101" y="68" type="qcurve" smooth="yes"/>
      <point x="1095" y="30"/>
      <point x="1061" y="0"/>
      <point x="1027" y="0" type="qcurve" smooth="yes"/>
      <point x="976" y="0" type="line" smooth="yes"/>
      <point x="914" y="0"/>
      <point x="835" y="77"/>
      <point x="830" y="143" type="qcurve"/>
      <point x="753.5" y="60.5" name="inserted"/>
      <point x="581.0" y="-22.0"/>
    </contour>
    <contour>
      <point x="511" y="126" type="qcurve" smooth="yes"/>
      <point x="600" y="126"/>
      <point x="739" y="198"/>
      <point x="786.5" y="256.5" type="qcurve" smooth="yes" name="inserted"/>
      <point x="834" y="315"/>
      <point x="884" y="464"/>
      <point x="884" y="541" type="qcurve" smooth="yes"/>
      <point x="884" y="602"/>
      <point x="848" y="698"/>
      <point x="814.5" y="731.0" type="qcurve" smooth="yes" name="inserted"/>
      <point x="781" y="764"/>
      <point x="687" y="798"/>
      <point x="629" y="798" type="qcurve" smooth="yes"/>
      <point x="545" y="798"/>
      <point x="414" y="724"/>
      <point x="369.0" y="664.0" type="qcurve" smooth="yes" name="inserted"/>
      <point x="324" y="604"/>
      <point x="278" y="452"/>
      <point x="278" y="375" type="qcurve" smooth="yes"/>
      <point x="278" y="319"/>
      <point x="308" y="227"/>
      <point x="337.0" y="194.5" type="qcurve" smooth="yes" name="inserted"/>
      <point x="366" y="162"/>
      <point x="454" y="126"/>
    </contour>
  </outline>
</glyph>
<glyph name="e" format="1">
  <advance width="1228"/>
  <unicode hex="0065"/>
  <outline>
    <contour>
      <point x="969" y="66" type="qcurve" smooth="yes"/>
      <point x="927" y="47"/>
      <point x="825" y="15"/>
      <point x="769.5" y="3.0" type="qcurve" smooth="yes" name="inserted"/>
      <point x="714" y="-9"/>
      <point x="597" y="-22"/>
      <point x="539" y="-22" type="qcurve" smooth="yes"/>
      <point x="444" y="-22"/>
      <point x="299" y="30"/>
      <point x="249.0" y="79.0" type="qcurve" smooth="yes" name="inserted"/>
      <point x="199" y="128"/>
      <point x="148" y="267"/>
      <point x="148" y="354" type="qcurve" smooth="yes"/>
      <point x="148" y="478"/>
      <point x="231" y="694"/>
      <point x="306.0" y="774.0" type="qcurve" smooth="yes" name="inserted"/>
      <point x="381" y="854"/>
      <point x="591" y="946"/>
      <point x="719" y="946" type="qcurve" smooth="yes"/>
      <point x="802" y="946"/>
      <point x="936" y="902"/>
      <point x="982.5" y="863.0" type="qcurve" smooth="yes" name="inserted"/>
      <point x="1029" y="824"/>
      <point x="1079" y="717"/>
      <point x="1079" y="655" type="qcurve" smooth="yes"/>
      <point x="1079" y="604"/>
      <point x="1054" y="520"/>
      <point x="1027.0" y="488.5" type="qcurve" smooth="yes" name="inserted"/>
      <point x="1000" y="457"/>
      <point x="914" y="417"/>
      <point x="853" y="411" type="qcurve" smooth="yes"/>
      <point x="304" y="354" type="line"/>
      <point x="306" y="232"/>
      <point x="438" y="123"/>
      <point x="554" y="123" type="qcurve" smooth="yes"/>
      <point x="604" y="123"/>
      <point x="706" y="137"/>
      <point x="754.0" y="149.5" type="qcurve" smooth="yes" name="inserted"/>
      <point x="802" y="162"/>
      <point x="891" y="196"/>
      <point x="929" y="215" type="qcurve" smooth="yes"/>
      <point x="954" y="228"/>
      <point x="998" y="204"/>
      <point x="1010" y="166" type="qcurve" smooth="yes"/>
      <point x="1022" y="127"/>
      <point x="1001" y="80"/>
    </contour>
    <contour>
      <point x="704" y="801" type="qcurve" smooth="yes"/>
      <point x="626" y="801"/>
      <point x="499" y="754"/>
      <point x="450.5" y="713.0" type="qcurve" smooth="yes" name="inserted"/>
      <point x="402" y="672"/>
      <point x="335" y="559"/>
      <point x="319" y="492" type="qcurve"/>
      <point x="822" y="550" type="line" smooth="yes"/>
      <point x="880" y="556"/>
      <point x="921" y="606"/>
      <point x="921" y="650" type="qcurve" smooth="yes"/>
      <point x="921" y="681"/>
      <point x="894" y="737"/>
      <point x="867.0" y="757.0" type="qcurve" smooth="yes" name="inserted"/>
      <point x="840" y="777"/>
      <point x="758" y="801"/>
    </contour>
  </outline>
</glyph>
<glyph name="g" format="1">
  <advance width="1228"/>
  <unicode hex="0067"/>
  <outline>
    <contour>
      <point x="518" y="28" type="qcurve" smooth="yes"/>
      <point x="437" y="28"/>
      <point x="302" y="80"/>
      <point x="254.0" y="128.5" type="qcurve" smooth="yes" name="inserted"/>
      <point x="206" y="177"/>
      <point x="152" y="314"/>
      <point x="152" y="400" type="qcurve" smooth="yes"/>
      <point x="152" y="507"/>
      <point x="222" y="704"/>
      <point x="288.5" y="780.0" type="qcurve" smooth="yes" name="inserted"/>
      <point x="355" y="856"/>
      <point x="547" y="946"/>
      <point x="670" y="946" type="qcurve" smooth="yes"/>
      <point x="773" y="946"/>
      <point x="920" y="850"/>
      <point x="965" y="766" type="qcurve"/>
      <point x="984" y="869" type="line" smooth="yes"/>
      <point x="990" y="904"/>
      <point x="1023" y="934"/>
      <point x="1065" y="934" type="qcurve" smooth="yes"/>
      <point x="1107" y="934"/>
      <point x="1130" y="904"/>
      <point x="1124" y="869" type="qcurve" smooth="yes"/>
      <point x="962" y="-45" type="line" smooth="yes"/>
      <point x="930" y="-225"/>
      <point x="692" y="-415"/>
      <point x="494" y="-415" type="qcurve" smooth="yes"/>
      <point x="407" y="-415"/>
      <point x="240" y="-385"/>
      <point x="166" y="-355" type="qcurve" smooth="yes"/>
      <point x="140" y="-344"/>
      <point x="123" y="-299"/>
      <point x="139" y="-261" type="qcurve" smooth="yes"/>
      <point x="155" y="-222"/>
      <point x="197" y="-200"/>
      <point x="221" y="-211" type="qcurve" smooth="yes"/>
      <point x="287" y="-240"/>
      <point x="437" y="-267"/>
      <point x="510" y="-267" type="qcurve" smooth="yes"/>
      <point x="577" y="-267"/>
      <point x="682" y="-232"/>
      <point x="720.5" y="-199.5" type="qcurve" smooth="yes" name="inserted"/>
      <point x="759" y="-167"/>
      <point x="807" y="-77"/>
      <point x="817" y="-22" type="qcurve" smooth="yes"/>
      <point x="851" y="174" type="line"/>
      <point x="778" y="102"/>
      <point x="615" y="28"/>
    </contour>
    <contour>
      <point x="545" y="176" type="qcurve" smooth="yes"/>
      <point x="638" y="176"/>
      <point x="777" y="246"/>
      <point x="822.5" y="301.0" type="qcurve" smooth="yes" name="inserted"/>
      <point x="868" y="356"/>
      <point x="913" y="491"/>
      <point x="913" y="556" type="qcurve" smooth="yes"/>
      <point x="913" y="614"/>
      <point x="876" y="704"/>
      <point x="842.0" y="735.0" type="qcurve" smooth="yes" name="inserted"/>
      <point x="808" y="766"/>
      <point x="712" y="798"/>
      <point x="654" y="798" type="qcurve" smooth="yes"/>
      <point x="570" y="798"/>
      <point x="441" y="731"/>
      <point x="397.5" y="676.5" type="qcurve" smooth="yes" name="inserted"/>
      <point x="354" y="622"/>
      <point x="309" y="483"/>
      <point x="309" y="412" type="qcurve" smooth="yes"/>
      <point x="309" y="359"/>
      <point x="339" y="272"/>
      <point x="369.0" y="241.0" type="qcurve" smooth="yes" name="inserted"/>
      <point x="399" y="210"/>
      <point x="487" y="176"/>
    </contour>
  </outline>
</glyph>
<glyph name="k" format="1">
  <advance width="1228"/>
  <unicode hex="006B"/>
  <outline>
    <contour>
      <point x="1127" y="924" type="line" smooth="yes"/>
      <point x="1161" y="924"/>
      <point x="1185" y="894"/>
      <point x="1178" y="856" type="qcurve" smooth="yes"/>
      <point x="1172" y="818"/>
      <point x="1137" y="788"/>
      <point x="1103" y="788" type="qcurve" smooth="yes"/>
      <point x="1048" y="788" type="line"/>
      <point x="634" y="486" type="line"/>
      <point x="684.0" y="494.0" name="inserted"/>
      <point x="769.5" y="463.0"/>
      <point x="805" y="424" type="qcurve" smooth="yes"/>
      <point x="832" y="395"/>
      <point x="867" y="323"/>
      <point x="881.0" y="287.5" type="qcurve" smooth="yes" name="inserted"/>
      <point x="895" y="252"/>
      <point x="922" y="188"/>
      <point x="940" y="167" type="qcurve" smooth="yes"/>
      <point x="952" y="153"/>
      <point x="984" y="136"/>
      <point x="1005" y="136" type="qcurve" smooth="yes"/>
      <point x="1029" y="136" type="line" smooth="yes"/>
      <point x="1063" y="136"/>
      <point x="1087" y="106"/>
      <point x="1080" y="68" type="qcurve" smooth="yes"/>
      <point x="1074" y="30"/>
      <point x="1040" y="0"/>
      <point x="1006" y="0" type="qcurve" smooth="yes"/>
      <point x="963" y="0" type="line" smooth="yes"/>
      <point x="929" y="0"/>
      <point x="869" y="19"/>
      <point x="848" y="40" type="qcurve" smooth="yes"/>
      <point x="815" y="73"/>
      <point x="775" y="150"/>
      <point x="760.0" y="189.0" type="qcurve" smooth="yes" name="inserted"/>
      <point x="745" y="228"/>
      <point x="716" y="299"/>
      <point x="694" y="325" type="qcurve" smooth="yes"/>
      <point x="670" y="352"/>
      <point x="602" y="379"/>
      <point x="564" y="379" type="qcurve" smooth="yes"/>
      <point x="528" y="379"/>
      <point x="445" y="356"/>
      <point x="415" y="334" type="qcurve" smooth="yes"/>
      <point x="397" y="321" type="line"/>
      <point x="350" y="55" type="line" smooth="yes"/>
      <point x="344" y="20"/>
      <point x="306" y="-10"/>
      <point x="264" y="-10" type="qcurve" smooth="yes"/>
      <point x="222" y="-10"/>
      <point x="194" y="20"/>
      <point x="200" y="55" type="qcurve" smooth="yes"/>
      <point x="398" y="1176" type="line"/>
      <point x="267" y="1176" type="line" smooth="yes"/>
      <point x="233" y="1176"/>
      <point x="209" y="1206"/>
      <point x="216" y="1244" type="qcurve" smooth="yes"/>
      <point x="223" y="1282"/>
      <point x="257" y="1312"/>
      <point x="291" y="1312" type="qcurve" smooth="yes"/>
      <point x="509" y="1312" type="line" smooth="yes"/>
      <point x="543" y="1312"/>
      <point x="567" y="1282"/>
      <point x="560" y="1244" type="qcurve" smooth="yes"/>
      <point x="428" y="497" type="line"/>
      <point x="823" y="788" type="line"/>
      <point x="769" y="788" type="line" smooth="yes"/>
      <point x="735" y="788"/>
      <point x="712" y="818"/>
      <point x="718" y="856" type="qcurve" smooth="yes"/>
      <point x="725" y="894"/>
      <point x="759" y="924"/>
      <point x="793" y="924" type="qcurve" smooth="yes"/>
    </contour>
  </outline>
</glyph>
<glyph name="m" format="1">
  <advance width="1228"/>
  <unicode hex="006D"/>
  <outline>
    <contour>
      <point x="209" y="788" type="line"/>
      <point x="127" y="788" type="line" smooth="yes"/>
      <point x="93" y="788"/>
      <point x="70" y="818"/>
      <point x="76" y="856" type="qcurve" smooth="yes"/>
      <point x="83" y="894"/>
      <point x="117" y="924"/>
      <point x="151" y="924" type="qcurve" smooth="yes"/>
      <point x="300" y="924" type="line" smooth="yes"/>
      <point x="334" y="924"/>
      <point x="358" y="894"/>
      <point x="351" y="856" type="qcurve" smooth="yes"/>
      <point x="334" y="757" type="line"/>
      <point x="391" y="854"/>
      <point x="526" y="946"/>
      <point x="588" y="946" type="qcurve" smooth="yes"/>
      <point x="654" y="946"/>
      <point x="741" y="855"/>
      <point x="746" y="765" type="qcurve"/>
      <point x="803" y="858"/>
      <point x="940" y="946"/>
      <point x="1005" y="946" type="qcurve" smooth="yes"/>
      <point x="1042" y="946"/>
      <point x="1107" y="919"/>
      <point x="1131.0" y="893.0" type="qcurve" smooth="yes" name="inserted"/>
      <point x="1155" y="867"/>
      <point x="1183" y="790"/>
      <point x="1183" y="740" type="qcurve" smooth="yes"/>
      <point x="1183" y="723"/>
      <point x="1180" y="688"/>
      <point x="1176" y="668" type="qcurve" smooth="yes"/>
      <point x="1082" y="136" type="line"/>
      <point x="1144" y="136" type="line" smooth="yes"/>
      <point x="1178" y="136"/>
      <point x="1202" y="106"/>
      <point x="1195" y="68" type="qcurve" smooth="yes"/>
      <point x="1189" y="30"/>
      <point x="1155" y="0"/>
      <point x="1121" y="0" type="qcurve" smooth="yes"/>
      <point x="972" y="0" type="line" smooth="yes"/>
      <point x="938" y="0"/>
      <point x="913" y="30"/>
      <point x="920" y="68" type="qcurve" smooth="yes"/>
      <point x="1025" y="660" type="line" smooth="yes"/>
      <point x="1027" y="674"/>
      <point x="1030" y="701"/>
      <point x="1030" y="712" type="qcurve" smooth="yes"/>
      <point x="1030" y="754"/>
      <point x="994" y="798"/>
      <point x="954" y="798" type="qcurve" smooth="yes"/>
      <point x="918" y="798"/>
      <point x="845" y="742"/>
      <point x="812.5" y="693.0" type="qcurve" smooth="yes" name="inserted"/>
      <point x="780" y="644"/>
      <point x="729" y="513"/>
      <point x="716" y="437" type="qcurve" smooth="yes"/>
      <point x="649" y="55" type="line" smooth="yes"/>
      <point x="643" y="20"/>
      <point x="605" y="-10"/>
      <point x="563" y="-10" type="qcurve" smooth="yes"/>
      <point x="521" y="-10"/>
      <point x="493" y="20"/>
      <point x="499" y="55" type="qcurve" smooth="yes"/>
      <point x="606" y="660" type="line" smooth="yes"/>
      <point x="608" y="674"/>
      <point x="611" y="700"/>
      <point x="611" y="712" type="qcurve" smooth="yes"/>
      <point x="611" y="754"/>
      <point x="575" y="798"/>
      <point x="535" y="798" type="qcurve" smooth="yes"/>
      <point x="499" y="798"/>
      <point x="426" y="742"/>
      <point x="393.5" y="693.0" type="qcurve" smooth="yes" name="inserted"/>
      <point x="361" y="644"/>
      <point x="310" y="513"/>
      <point x="297" y="437" type="qcurve" smooth="yes"/>
      <point x="230" y="55" type="line" smooth="yes"/>
      <point x="224" y="20"/>
      <point x="186" y="-10"/>
      <point x="144" y="-10" type="qcurve" smooth="yes"/>
      <point x="102" y="-10"/>
      <point x="74" y="20"/>
      <point x="80" y="55" type="qcurve" smooth="yes"/>
    </contour>
  </outline>
</glyph>
<glyph name="n" format="1">
  <advance width="1228"/>
  <unicode hex="006E"/>
  <outline>
    <contour>
      <point x="411" y="924" type="line" smooth="yes"/>
      <point x="445" y="924"/>
      <point x="469" y="894"/>
      <point x="462" y="856" type="qcurve" smooth="yes"/>
      <point x="441" y="736" type="line"/>
      <point x="526" y="839"/>
      <point x="714" y="946"/>
      <point x="813" y="946" type="qcurve" smooth="yes"/>
      <point x="873" y="946"/>
      <point x="968" y="909"/>
      <point x="1000.5" y="875.0" type="qcurve" smooth="yes" name="inserted"/>
      <point x="1033" y="841"/>
      <point x="1068" y="745"/>
      <point x="1068" y="686" type="qcurve" smooth="yes"/>
      <point x="1068.0" y="667.0" name="inserted"/>
      <point x="1064.5" y="629.0"/>
      <point x="1061" y="610" type="qcurve" smooth="yes"/>
      <point x="977" y="136" type="line"/>
      <point x="1059" y="136" type="line" smooth="yes"/>
      <point x="1093" y="136"/>
      <point x="1117" y="106"/>
      <point x="1110" y="68" type="qcurve" smooth="yes"/>
      <point x="1104" y="30"/>
      <point x="1070" y="0"/>
      <point x="1036" y="0" type="qcurve" smooth="yes"/>
      <point x="867" y="0" type="line" smooth="yes"/>
      <point x="833" y="0"/>
      <point x="808" y="30"/>
      <point x="815" y="68" type="qcurve" smooth="yes"/>
      <point x="910" y="605" type="line" smooth="yes"/>
      <point x="912" y="619"/>
      <point x="915" y="646"/>
      <point x="915" y="659" type="qcurve" smooth="yes"/>
      <point x="915" y="723"/>
      <point x="851" y="798"/>
      <point x="782" y="798" type="qcurve" smooth="yes"/>
      <point x="718" y="798"/>
      <point x="591" y="736"/>
      <point x="537.5" y="682.0" type="qcurve" smooth="yes" name="inserted"/>
      <point x="484" y="628"/>
      <point x="406" y="484"/>
      <point x="392" y="402" type="qcurve" smooth="yes"/>
      <point x="331" y="55" type="line" smooth="yes"/>
      <point x="325" y="20"/>
      <point x="287" y="-10"/>
      <point x="245" y="-10" type="qcurve" smooth="yes"/>
      <point x="203" y="-10"/>
      <point x="175" y="20"/>
      <point x="181" y="55" type="qcurve" smooth="yes"/>
      <point x="310" y="788" type="line"/>
      <point x="208" y="788" type="line" smooth="yes"/>
      <point x="174" y="788"/>
      <point x="151" y="818"/>
      <point x="157" y="856" type="qcurve" smooth="yes"/>
      <point x="164" y="894"/>
      <point x="198" y="924"/>
      <point x="232" y="924" type="qcurve" smooth="yes"/>
    </contour>
  </outline>
</glyph>
<glyph name="q" format="1">
  <advance width="1228"/>
  <unicode hex="0071"/>
  <outline>
    <contour>
      <point x="670" y="946" type="qcurve" smooth="yes"/>
      <point x="773" y="946"/>
      <point x="920" y="850"/>
      <point x="965" y="766" type="qcurve"/>
      <point x="984" y="869" type="line" smooth="yes"/>
      <point x="990" y="904"/>
      <point x="1023" y="934"/>
      <point x="1065" y="934" type="qcurve" smooth="yes"/>
      <point x="1107" y="934"/>
      <point x="1130" y="904"/>
      <point x="1124" y="869" type="qcurve" smooth="yes"/>
      <point x="925" y="-257" type="line"/>
      <point x="1037" y="-257" type="line" smooth="yes"/>
      <point x="1071" y="-257"/>
      <point x="1095" y="-287"/>
      <point x="1088" y="-325" type="qcurve" smooth="yes"/>
      <point x="1081" y="-363"/>
      <point x="1047" y="-393"/>
      <point x="1013" y="-393" type="qcurve" smooth="yes"/>
      <point x="529" y="-393" type="line" smooth="yes"/>
      <point x="495" y="-393"/>
      <point x="471" y="-363"/>
      <point x="478" y="-325" type="qcurve" smooth="yes"/>
      <point x="485" y="-287"/>
      <point x="519" y="-257"/>
      <point x="553" y="-257" type="qcurve" smooth="yes"/>
      <point x="775" y="-257" type="line"/>
      <point x="851" y="174" type="line"/>
      <point x="778" y="102"/>
      <point x="615" y="28"/>
      <point x="518" y="28" type="qcurve" smooth="yes"/>
      <point x="437" y="28"/>
      <point x="302" y="80"/>
      <point x="254.0" y="128.5" type="qcurve" smooth="yes" name="inserted"/>
      <point x="206" y="177"/>
      <point x="152" y="314"/>
      <point x="152" y="400" type="qcurve" smooth="yes"/>
      <point x="152" y="507"/>
      <point x="222" y="704"/>
      <point x="288.5" y="780.0" type="qcurve" smooth="yes" name="inserted"/>
      <point x="355" y="856"/>
      <point x="547" y="946"/>
    </contour>
    <contour>
      <point x="545" y="176" type="qcurve" smooth="yes"/>
      <point x="638" y="176"/>
      <point x="777" y="246"/>
      <point x="822.5" y="301.0" type="qcurve" smooth="yes" name="inserted"/>
      <point x="868" y="356"/>
      <point x="913" y="491"/>
      <point x="913" y="556" type="qcurve" smooth="yes"/>
      <point x="913" y="614"/>
      <point x="876" y="704"/>
      <point x="842.0" y="735.0" type="qcurve" smooth="yes" name="inserted"/>
      <point x="808" y="766"/>
      <point x="712" y="798"/>
      <point x="654" y="798" type="qcurve" smooth="yes"/>
      <point x="570" y="798"/>
      <point x="441" y="731"/>
      <point x="397.5" y="676.5" type="qcurve" smooth="yes" name="inserted"/>
      <point x="354" y="622"/>
      <point x="309" y="483"/>
      <point x="309" y="412" type="qcurve" smooth="yes"/>
      <point x="309" y="359"/>
      <point x="339" y="272"/>
      <point x="369.0" y="241.0" type="qcurve" smooth="yes" name="inserted"/>
      <point x="399" y="210"/>
      <point x="487" y="176"/>
    </contour>
  </outline>
</glyph>
<glyph name="r" format="1">
  <advance width="1228"/>
  <unicode hex="0072"/>
  <outline>
    <contour>
      <point x="536" y="924" type="line" smooth="yes"/>
      <point x="570" y="924"/>
      <point x="594" y="894"/>
      <point x="587" y="856" type="qcurve" smooth="yes"/>
      <point x="552" y="654" type="line"/>
      <point x="601" y="721"/>
      <point x="711" y="829"/>
      <point x="769.0" y="867.0" type="qcurve" smooth="yes" name="inserted"/>
      <point x="827" y="905"/>
      <point x="944" y="946"/>
      <point x="999" y="946" type="qcurve" smooth="yes"/>
      <point x="1036.5" y="946.0" name="inserted"/>
      <point x="1104.5" y="926.0"/>
      <point x="1135" y="906" type="qcurve" smooth="yes"/>
      <point x="1161" y="889"/>
      <point x="1182" y="836"/>
      <point x="1162" y="798" type="qcurve" smooth="yes"/>
      <point x="1142.0" y="759.5" name="inserted"/>
      <point x="1097.5" y="737.0"/>
      <point x="1073" y="753" type="qcurve" smooth="yes"/>
      <point x="1052" y="767"/>
      <point x="1003" y="779"/>
      <point x="977" y="779" type="qcurve" smooth="yes"/>
      <point x="931" y="779"/>
      <point x="832" y="744"/>
      <point x="782.5" y="713.0" type="qcurve" smooth="yes" name="inserted"/>
      <point x="733" y="682"/>
      <point x="641" y="595"/>
      <point x="603.5" y="543.0" type="qcurve" smooth="yes" name="inserted"/>
      <point x="566" y="491"/>
      <point x="512" y="372"/>
      <point x="501" y="310" type="qcurve" smooth="yes"/>
      <point x="470" y="136" type="line"/>
      <point x="807" y="136" type="line" smooth="yes"/>
      <point x="841" y="136"/>
      <point x="865" y="106"/>
      <point x="858" y="68" type="qcurve" smooth="yes"/>
      <point x="852" y="30"/>
      <point x="818" y="0"/>
      <point x="784" y="0" type="qcurve" smooth="yes"/>
      <point x="140" y="0" type="line" smooth="yes"/>
      <point x="106" y="0"/>
      <point x="82" y="30"/>
      <point x="88" y="68" type="qcurve" smooth="yes"/>
      <point x="95" y="106"/>
      <point x="129" y="136"/>
      <point x="163" y="136" type="qcurve" smooth="yes"/>
      <point x="320" y="136" type="line"/>
      <point x="435" y="788" type="line"/>
      <point x="308" y="788" type="line" smooth="yes"/>
      <point x="274" y="788"/>
      <point x="251" y="818"/>
      <point x="257" y="856" type="qcurve" smooth="yes"/>
      <point x="264" y="894"/>
      <point x="298" y="924"/>
      <point x="332" y="924" type="qcurve" smooth="yes"/>
    </contour>
  </outline>
</glyph>
<glyph name="v" format="1">
  <advance width="1228"/>
  <unicode hex="0076"/>
  <outline>
    <contour>
      <point x="181" y="788" type="line" smooth="yes"/>
      <point x="147" y="788"/>
      <point x="124" y="818"/>
      <point x="130" y="856" type="qcurve" smooth="yes"/>
      <point x="137" y="894"/>
      <point x="171" y="924"/>
      <point x="205" y="924" type="qcurve" smooth="yes"/>
      <point x="559" y="924" type="line" smooth="yes"/>
      <point x="593" y="924"/>
      <point x="617" y="894"/>
      <point x="610" y="856" type="qcurve" smooth="yes"/>
      <point x="604" y="818"/>
      <point x="569" y="788"/>
      <point x="535" y="788" type="qcurve" smooth="yes"/>
      <point x="403" y="788" type="line"/>
      <point x="561" y="136" type="line"/>
      <point x="952" y="788" type="line"/>
      <point x="869" y="788" type="line" smooth="yes"/>
      <point x="835" y="788"/>
      <point x="812" y="818"/>
      <point x="818" y="856" type="qcurve" smooth="yes"/>
      <point x="825" y="894"/>
      <point x="859" y="924"/>
      <point x="893" y="924" type="qcurve" smooth="yes"/>
      <point x="1207" y="924" type="line" smooth="yes"/>
      <point x="1241" y="924"/>
      <point x="1265" y="894"/>
      <point x="1258" y="856" type="qcurve" smooth="yes"/>
      <point x="1252" y="818"/>
      <point x="1217" y="788"/>
      <point x="1183" y="788" type="qcurve" smooth="yes"/>
      <point x="1124" y="788" type="line"/>
      <point x="670" y="43" type="line" smooth="yes"/>
      <point x="650" y="9"/>
      <point x="591" y="-22"/>
      <point x="541" y="-22" type="qcurve" smooth="yes"/>
      <point x="491" y="-22"/>
      <point x="444" y="10"/>
      <point x="436" y="43" type="qcurve" smooth="yes"/>
      <point x="247" y="788" type="line"/>
    </contour>
  </outline>
</glyph>
<glyph name="y" format="1">
  <advance width="1228"/>
  <unicode hex="0079"/>
  <outline>
    <contour>
      <point x="1207" y="924" type="line" smooth="yes"/>
      <point x="1241" y="924"/>
      <point x="1265" y="894"/>
      <point x="1258" y="856" type="qcurve" smooth="yes"/>
      <point x="1252" y="818"/>
      <point x="1217" y="788"/>
      <point x="1183" y="788" type="qcurve" smooth="yes"/>
      <point x="1124" y="788" type="line"/>
      <point x="568" y="-50" type="line" smooth="yes"/>
      <point x="503" y="-149"/>
      <point x="389" y="-285"/>
      <point x="330.0" y="-327.5" type="qcurve" smooth="yes" name="inserted"/>
      <point x="271" y="-370"/>
      <point x="139" y="-411"/>
      <point x="56" y="-414" type="qcurve" smooth="yes"/>
      <point x="26" y="-415"/>
      <point x="-15" y="-387"/>
      <point x="-15" y="-347" type="qcurve" smooth="yes"/>
      <point x="-15" y="-303"/>
      <point x="20" y="-265"/>
      <point x="47" y="-263" type="qcurve" smooth="yes"/>
      <point x="117" y="-259"/>
      <point x="220" y="-228"/>
      <point x="267.5" y="-190.0" type="qcurve" smooth="yes" name="inserted"/>
      <point x="315" y="-152"/>
      <point x="416" y="-23"/>
      <point x="484" y="78" type="qcurve"/>
      <point x="247" y="788" type="line"/>
      <point x="181" y="788" type="line" smooth="yes"/>
      <point x="147" y="788"/>
      <point x="124" y="818"/>
      <point x="130" y="856" type="qcurve" smooth="yes"/>
      <point x="137" y="894"/>
      <point x="171" y="924"/>
      <point x="205" y="924" type="qcurve" smooth="yes"/>
      <point x="559" y="924" type="line" smooth="yes"/>
      <point x="593" y="924"/>
      <point x="617" y="894"/>
      <point x="610" y="856" type="qcurve" smooth="yes"/>
      <point x="604" y="818"/>
      <point x="569" y="788"/>
      <point x="535" y="788" type="qcurve" smooth="yes"/>
      <point x="403" y="788" type="line"/>
      <point x="586" y="226" type="line"/>
      <point x="954" y="788" type="line"/>
      <point x="869" y="788" type="line" smooth="yes"/>
      <point x="835" y="788"/>
      <point x="812" y="818"/>
      <point x="818" y="856" type="qcurve" smooth="yes"/>
      <point x="825" y="894"/>
      <point x="859" y="924"/>
      <point x="893" y="924" type="qcurve" smooth="yes"/>
    </contour>
  </outline>
</glyph>
<glyph name="asciitilde" format="1">
  <advance width="1228"/>
  <unicode hex="007E"/>
  <outline>
    <contour>
      <point x="1091" y="561" type="qcurve" smooth="yes"/>
      <point x="1017" y="505"/>
      <point x="889" y="462"/>
      <point x="832" y="462" type="qcurve" smooth="yes"/>
      <point x="778" y="462"/>
      <point x="679" y="489"/>
      <point x="631.0" y="505.0" type="qcurve" smooth="yes" name="inserted"/>
      <point x="583" y="521"/>
      <point x="488" y="548"/>
      <point x="438" y="548" type="qcurve" smooth="yes"/>
      <point x="396" y="548"/>
      <point x="308" y="522"/>
      <point x="259" y="490" type="qcurve" smooth="yes"/>
      <point x="240" y="478"/>
      <point x="202" y="497"/>
      <point x="191" y="517" type="qcurve" smooth="yes"/>
      <point x="179" y="537"/>
      <point x="180" y="586"/>
      <point x="200" y="601" type="qcurve" smooth="yes"/>
      <point x="274" y="657"/>
      <point x="402" y="700"/>
      <point x="460" y="700" type="qcurve" smooth="yes"/>
      <point x="514" y="700"/>
      <point x="613" y="673"/>
      <point x="661.0" y="657.0" type="qcurve" smooth="yes" name="inserted"/>
      <point x="709" y="641"/>
      <point x="804" y="614"/>
      <point x="854" y="614" type="qcurve" smooth="yes"/>
      <point x="896" y="614"/>
      <point x="984" y="640"/>
      <point x="1033" y="672" type="qcurve" smooth="yes"/>
      <point x="1053" y="685"/>
      <point x="1090" y="663"/>
      <point x="1101" y="643" type="qcurve" smooth="yes"/>
      <point x="1112" y="623"/>
      <point x="1111" y="576"/>
    </contour>
  </outline>
</glyph>
<glyph name="cent" format="1">
  <advance width="1228"/>
  <unicode hex="00A2"/>
  <outline>
    <contour>
      <point x="936" y="378" type="qcurve" smooth="yes"/>
      <point x="959" y="394"/>
      <point x="1009" y="386"/>
      <point x="1029" y="351" type="qcurve" smooth="yes"/>
      <point x="1047.5" y="318.0" name="inserted"/>
      <point x="1035.0" y="265.0"/>
      <point x="1004" y="245" type="qcurve" smooth="yes"/>
      <point x="925" y="194"/>
      <point x="734" y="129"/>
      <point x="635" y="120" type="qcurve"/>
      <point x="603" y="-60" type="line" smooth="yes"/>
      <point x="597" y="-95"/>
      <point x="558" y="-125"/>
      <point x="521" y="-125" type="qcurve" smooth="yes"/>
      <point x="484" y="-125"/>
      <point x="457" y="-95"/>
      <point x="463" y="-60" type="qcurve" smooth="yes"/>
      <point x="495" y="123" type="line"/>
      <point x="415" y="134"/>
      <point x="290" y="203"/>
      <point x="246.5" y="255.0" type="qcurve" smooth="yes" name="inserted"/>
      <point x="203" y="307"/>
      <point x="157" y="442"/>
      <point x="157" y="520" type="qcurve" smooth="yes"/>
      <point x="157" y="623"/>
      <point x="229" y="816"/>
      <point x="295.5" y="893.0" type="qcurve" smooth="yes" name="inserted"/>
      <point x="362" y="970"/>
      <point x="549" y="1071"/>
      <point x="664" y="1083" type="qcurve"/>
      <point x="693" y="1247" type="line" smooth="yes"/>
      <point x="699" y="1282"/>
      <point x="738" y="1312"/>
      <point x="775" y="1312" type="qcurve" smooth="yes"/>
      <point x="812" y="1312"/>
      <point x="839" y="1282"/>
      <point x="833" y="1247" type="qcurve" smooth="yes"/>
      <point x="803" y="1078" type="line"/>
      <point x="867" y="1064"/>
      <point x="965" y="999"/>
      <point x="996" y="951" type="qcurve"/>
      <point x="1009" y="1021" type="line" smooth="yes"/>
      <point x="1016" y="1056"/>
      <point x="1053" y="1086"/>
      <point x="1095" y="1086" type="qcurve" smooth="yes"/>
      <point x="1137" y="1086"/>
      <point x="1165" y="1056"/>
      <point x="1159" y="1021" type="qcurve" smooth="yes"/>
      <point x="1108" y="731" type="line" smooth="yes"/>
      <point x="1102" y="696"/>
      <point x="1066" y="666"/>
      <point x="1024" y="666" type="qcurve" smooth="yes"/>
      <point x="982" y="666"/>
      <point x="954" y="696"/>
      <point x="959" y="731" type="qcurve" smooth="yes"/>
      <point x="970" y="811"/>
      <point x="881" y="920"/>
      <point x="778" y="934" type="qcurve"/>
      <point x="661" y="271" type="line"/>
      <point x="733" y="280"/>
      <point x="871" y="334"/>
    </contour>
    <contour>
      <point x="315" y="531" type="qcurve" smooth="yes"/>
      <point x="315" y="480"/>
      <point x="343" y="393"/>
      <point x="369.0" y="359.5" type="qcurve" smooth="yes" name="inserted"/>
      <point x="395" y="326"/>
      <point x="472" y="281"/>
      <point x="521" y="272" type="qcurve"/>
      <point x="637" y="930" type="line"/>
      <point x="566" y="916"/>
      <point x="448" y="842"/>
      <point x="405.0" y="788.5" type="qcurve" smooth="yes" name="inserted"/>
      <point x="362" y="735"/>
      <point x="315" y="603"/>
    </contour>
  </outline>
</glyph>
<glyph name="brokenbar" format="1">
  <advance width="1228"/>
  <unicode hex="00A6"/>
  <outline>
    <contour>
      <point x="516" y="269" type="line" smooth="yes"/>
      <point x="522" y="304"/>
      <point x="560" y="334"/>
      <point x="602" y="334" type="qcurve" smooth="yes"/>
      <point x="644" y="334"/>
      <point x="672" y="304"/>
      <point x="666" y="269" type="qcurve" smooth="yes"/>
      <point x="557" y="-350" type="line" smooth="yes"/>
      <point x="551" y="-385"/>
      <point x="512" y="-415"/>
      <point x="470" y="-415" type="qcurve" smooth="yes"/>
      <point x="428" y="-415"/>
      <point x="401" y="-385"/>
      <point x="407" y="-350" type="qcurve" smooth="yes"/>
    </contour>
    <contour>
      <point x="692" y="1269" type="line" smooth="yes"/>
      <point x="698" y="1304"/>
      <point x="737" y="1334"/>
      <point x="779" y="1334" type="qcurve" smooth="yes"/>
      <point x="821" y="1334"/>
      <point x="848" y="1304"/>
      <point x="842" y="1269" type="qcurve" smooth="yes"/>
      <point x="733" y="650" type="line" smooth="yes"/>
      <point x="727" y="615"/>
      <point x="689" y="585"/>
      <point x="647" y="585" type="qcurve" smooth="yes"/>
      <point x="605" y="585"/>
      <point x="577" y="615"/>
      <point x="583" y="650" type="qcurve" smooth="yes"/>
    </contour>
  </outline>
</glyph>
<glyph name="dieresis" format="1">
  <advance width="1228"/>
  <unicode hex="00A8"/>
  <outline>
    <contour>
      <point x="516" y="1070" type="qcurve" smooth="yes"/>
      <point x="468" y="1070"/>
      <point x="408" y="1133"/>
      <point x="408" y="1178" type="qcurve" smooth="yes"/>
      <point x="408" y="1207"/>
      <point x="432" y="1258"/>
      <point x="452.5" y="1277.5" type="qcurve" smooth="yes" name="inserted"/>
      <point x="473" y="1297"/>
      <point x="525" y="1320"/>
      <point x="553" y="1320" type="qcurve" smooth="yes"/>
      <point x="601" y="1320"/>
      <point x="660" y="1258"/>
      <point x="660" y="1213" type="qcurve" smooth="yes"/>
      <point x="660" y="1183"/>
      <point x="636" y="1131"/>
      <point x="616.0" y="1111.5" type="qcurve" smooth="yes" name="inserted"/>
      <point x="596" y="1092"/>
      <point x="544" y="1070"/>
    </contour>
    <contour>
      <point x="956" y="1070" type="qcurve" smooth="yes"/>
      <point x="908" y="1070"/>
      <point x="848" y="1133"/>
      <point x="848" y="1178" type="qcurve" smooth="yes"/>
      <point x="848" y="1207"/>
      <point x="872" y="1258"/>
      <point x="892.5" y="1277.5" type="qcurve" smooth="yes" name="inserted"/>
      <point x="913" y="1297"/>
      <point x="965" y="1320"/>
      <point x="993" y="1320" type="qcurve" smooth="yes"/>
      <point x="1041" y="1320"/>
      <point x="1100" y="1258"/>
      <point x="1100" y="1213" type="qcurve" smooth="yes"/>
      <point x="1100" y="1183"/>
      <point x="1076" y="1131"/>
      <point x="1056.0" y="1111.5" type="qcurve" smooth="yes" name="inserted"/>
      <point x="1036" y="1092"/>
      <point x="984" y="1070"/>
    </contour>
  </outline>
</glyph>
<glyph name="copyright" format="1">
  <advance width="1228"/>
  <unicode hex="00A9"/>
  <outline>
    <contour>
      <point x="714" y="937" type="qcurve" smooth="yes"/>
      <point x="759" y="937"/>
      <point x="848" y="917"/>
      <point x="887" y="897" type="qcurve" smooth="yes"/>
      <point x="913" y="883"/>
      <point x="929" y="844"/>
      <point x="913" y="812" type="qcurve" smooth="yes"/>
      <point x="897" y="780"/>
      <point x="859" y="768"/>
      <point x="836" y="779" type="qcurve" smooth="yes"/>
      <point x="803" y="796"/>
      <point x="740" y="811"/>
      <point x="702" y="811" type="qcurve" smooth="yes"/>
      <point x="657" y="811"/>
      <point x="576" y="773"/>
      <point x="544" y="735" type="qcurve" smooth="yes"/>
      <point x="512" y="696"/>
      <point x="476" y="589"/>
      <point x="476" y="535" type="qcurve" smooth="yes"/>
      <point x="476" y="455"/>
      <point x="560" y="375"/>
      <point x="625" y="375" type="qcurve" smooth="yes"/>
      <point x="663" y="375"/>
      <point x="731" y="390"/>
      <point x="770" y="407" type="qcurve" smooth="yes"/>
      <point x="797" y="418"/>
      <point x="829" y="404"/>
      <point x="839" y="372" type="qcurve" smooth="yes"/>
      <point x="849" y="340"/>
      <point x="831" y="303"/>
      <point x="799" y="289" type="qcurve" smooth="yes"/>
      <point x="754" y="269"/>
      <point x="657" y="249"/>
      <point x="612" y="249" type="qcurve" smooth="yes"/>
      <point x="552" y="249"/>
      <point x="454" y="287"/>
      <point x="418.5" y="323.0" type="qcurve" smooth="yes" name="inserted"/>
      <point x="383" y="359"/>
      <point x="344" y="462"/>
      <point x="344" y="526" type="qcurve" smooth="yes"/>
      <point x="344" y="564"/>
      <point x="358" y="646"/>
      <point x="371.5" y="685.5" type="qcurve" smooth="yes" name="inserted"/>
      <point x="385" y="725"/>
      <point x="427" y="799"/>
      <point x="456" y="829" type="qcurve" smooth="yes"/>
      <point x="506" y="883"/>
      <point x="637" y="937"/>
    </contour>
    <contour>
      <point x="550" y="-22" type="qcurve" smooth="yes"/>
      <point x="438" y="-22"/>
      <point x="257" y="55"/>
      <point x="193.5" y="123.0" type="qcurve" smooth="yes" name="inserted"/>
      <point x="130" y="191"/>
      <point x="61" y="376"/>
      <point x="61" y="484" type="qcurve" smooth="yes"/>
      <point x="61" y="584"/>
      <point x="111" y="769"/>
      <point x="156.5" y="849.5" type="qcurve" smooth="yes" name="inserted"/>
      <point x="202" y="930"/>
      <point x="328" y="1062"/>
      <point x="404.0" y="1109.5" type="qcurve" smooth="yes" name="inserted"/>
      <point x="480" y="1157"/>
      <point x="654" y="1209"/>
      <point x="747" y="1209" type="qcurve" smooth="yes"/>
      <point x="859" y="1209"/>
      <point x="1040" y="1132"/>
      <point x="1103.5" y="1064.5" type="qcurve" smooth="yes" name="inserted"/>
      <point x="1167" y="997"/>
      <point x="1235" y="812"/>
      <point x="1235" y="705" type="qcurve" smooth="yes"/>
      <point x="1235" y="605"/>
      <point x="1185" y="420"/>
      <point x="1140.0" y="339.0" type="qcurve" smooth="yes" name="inserted"/>
      <point x="1095" y="258"/>
      <point x="969" y="125"/>
      <point x="893.0" y="77.5" type="qcurve" smooth="yes" name="inserted"/>
      <point x="817" y="30"/>
      <point x="643" y="-22"/>
    </contour>
    <contour>
      <point x="561" y="98" type="qcurve" smooth="yes"/>
      <point x="636" y="98"/>
      <point x="776" y="140"/>
      <point x="837.5" y="179.0" type="qcurve" smooth="yes" name="inserted"/>
      <point x="899" y="218"/>
      <point x="1001" y="328"/>
      <point x="1037.5" y="395.0" type="qcurve" smooth="yes" name="inserted"/>
      <point x="1074" y="462"/>
      <point x="1114" y="617"/>
      <point x="1114" y="702" type="qcurve" smooth="yes"/>
      <point x="1114" y="788"/>
      <point x="1062" y="930"/>
      <point x="1013.0" y="981.0" type="qcurve" smooth="yes" name="inserted"/>
      <point x="964" y="1032"/>
      <point x="824" y="1089"/>
      <point x="736" y="1089" type="qcurve" smooth="yes"/>
      <point x="624" y="1089"/>
      <point x="423" y="996"/>
      <point x="347.0" y="915.0" type="qcurve" smooth="yes" name="inserted"/>
      <point x="271" y="834"/>
      <point x="182" y="614"/>
      <point x="182" y="487" type="qcurve" smooth="yes"/>
      <point x="182" y="401"/>
      <point x="234" y="258"/>
      <point x="283.0" y="206.5" type="qcurve" smooth="yes" name="inserted"/>
      <point x="332" y="155"/>
      <point x="472" y="98"/>
    </contour>
  </outline>
</glyph>
<glyph name="ordfeminine" format="1">
  <advance width="1228"/>
  <unicode hex="00AA"/>
  <outline>
    <contour>
      <point x="599" y="597" type="qcurve" smooth="yes"/>
      <point x="667" y="597"/>
      <point x="768" y="646"/>
      <point x="801.0" y="687.5" type="qcurve" smooth="yes" name="inserted"/>
      <point x="834" y="729"/>
      <point x="867" y="838"/>
      <point x="867" y="898" type="qcurve" smooth="yes"/>
      <point x="867" y="990"/>
      <point x="772" y="1077"/>
      <point x="685" y="1077" type="qcurve" smooth="yes"/>
      <point x="628" y="1077"/>
      <point x="534" y="1026"/>
      <point x="501.0" y="983.0" type="qcurve" smooth="yes" name="inserted"/>
      <point x="468" y="940"/>
      <point x="432" y="830"/>
      <point x="432" y="770" type="qcurve" smooth="yes"/>
      <point x="432" y="687"/>
      <point x="521" y="597"/>
    </contour>
    <contour>
      <point x="952" y="483" type="line" smooth="yes"/>
      <point x="905.0" y="483.0" name="inserted"/>
      <point x="851.0" y="532.5"/>
      <point x="844" y="582" type="qcurve"/>
      <point x="785" y="519"/>
      <point x="653" y="465"/>
      <point x="579" y="465" type="qcurve" smooth="yes"/>
      <point x="517" y="465"/>
      <point x="411" y="507"/>
      <point x="372.0" y="545.5" type="qcurve" smooth="yes" name="inserted"/>
      <point x="333" y="584"/>
      <point x="289" y="694"/>
      <point x="289" y="763" type="qcurve" smooth="yes"/>
      <point x="289" y="813"/>
      <point x="311" y="918"/>
      <point x="333.5" y="967.5" type="qcurve" smooth="yes" name="inserted"/>
      <point x="356" y="1017"/>
      <point x="424" y="1105"/>
      <point x="469.0" y="1138.0" type="qcurve" smooth="yes" name="inserted"/>
      <point x="514" y="1171"/>
      <point x="626" y="1209"/>
      <point x="694" y="1209" type="qcurve" smooth="yes"/>
      <point x="775" y="1209"/>
      <point x="882" y="1140"/>
      <point x="910" y="1083" type="qcurve"/>
      <point x="923" y="1150" type="line" smooth="yes"/>
      <point x="928" y="1176"/>
      <point x="955" y="1200"/>
      <point x="995" y="1200" type="qcurve" smooth="yes"/>
      <point x="1035" y="1200"/>
      <point x="1056" y="1176"/>
      <point x="1051" y="1150" type="qcurve" smooth="yes"/>
      <point x="964" y="657" type="line" smooth="yes"/>
      <point x="959" y="626"/>
      <point x="980" y="602"/>
      <point x="1005" y="602" type="qcurve" smooth="yes"/>
      <point x="1022" y="602" type="line" smooth="yes"/>
      <point x="1048" y="602"/>
      <point x="1066" y="573"/>
      <point x="1060" y="541" type="qcurve" smooth="yes"/>
      <point x="1055" y="509"/>
      <point x="1027" y="483"/>
      <point x="1001" y="483" type="qcurve" smooth="yes"/>
    </contour>
  </outline>
</glyph>
<glyph name="degree" format="1">
  <advance width="1228"/>
  <unicode hex="00B0"/>
  <outline>
    <contour>
      <point x="580" y="649" type="qcurve" smooth="yes"/>
      <point x="528" y="649"/>
      <point x="439" y="687"/>
      <point x="406.5" y="720.0" type="qcurve" smooth="yes" name="inserted"/>
      <point x="374" y="753"/>
      <point x="337" y="842"/>
      <point x="337" y="892" type="qcurve" smooth="yes"/>
      <point x="337" y="949"/>
      <point x="384" y="1063"/>
      <point x="427.0" y="1108.0" type="qcurve" smooth="yes" name="inserted"/>
      <point x="470" y="1153"/>
      <point x="588" y="1209"/>
      <point x="659" y="1209" type="qcurve" smooth="yes"/>
      <point x="711" y="1209"/>
      <point x="800" y="1171"/>
      <point x="832.0" y="1138.0" type="qcurve" smooth="yes" name="inserted"/>
      <point x="864" y="1105"/>
      <point x="901" y="1017"/>
      <point x="901" y="967" type="qcurve" smooth="yes"/>
      <point x="901" y="908"/>
      <point x="854" y="794"/>
      <point x="811.0" y="749.0" type="qcurve" smooth="yes" name="inserted"/>
      <point x="768" y="704"/>
      <point x="650" y="649"/>
    </contour>
    <contour>
      <point x="594" y="784" type="qcurve" smooth="yes"/>
      <point x="627" y="784"/>
      <point x="689" y="812"/>
      <point x="713.0" y="835.0" type="qcurve" smooth="yes" name="inserted"/>
      <point x="737" y="858"/>
      <point x="766" y="920"/>
      <point x="766" y="954" type="qcurve" smooth="yes"/>
      <point x="766" y="979"/>
      <point x="748" y="1023"/>
      <point x="732.0" y="1039.5" type="qcurve" smooth="yes" name="inserted"/>
      <point x="716" y="1056"/>
      <point x="672" y="1074"/>
      <point x="645" y="1074" type="qcurve" smooth="yes"/>
      <point x="612" y="1074"/>
      <point x="550" y="1046"/>
      <point x="525.5" y="1023.0" type="qcurve" smooth="yes" name="inserted"/>
      <point x="501" y="1000"/>
      <point x="472" y="938"/>
      <point x="472" y="904" type="qcurve" smooth="yes"/>
      <point x="472" y="878"/>
      <point x="490" y="835"/>
      <point x="506.0" y="818.5" type="qcurve" smooth="yes" name="inserted"/>
      <point x="522" y="802"/>
      <point x="567" y="784"/>
    </contour>
  </outline>
</glyph>
<glyph name="plusminus" format="1">
  <advance width="1228"/>
  <unicode hex="00B1"/>
  <outline>
    <contour>
      <point x="281" y="674" type="line" smooth="yes"/>
      <point x="247" y="674"/>
      <point x="224" y="704"/>
      <point x="230" y="742" type="qcurve" smooth="yes"/>
      <point x="237" y="780"/>
      <point x="271" y="810"/>
      <point x="305" y="810" type="qcurve" smooth="yes"/>
      <point x="618" y="810" type="line"/>
      <point x="663" y="1063" type="line" smooth="yes"/>
      <point x="669" y="1097"/>
      <point x="704" y="1126"/>
      <point x="742" y="1126" type="qcurve" smooth="yes"/>
      <point x="780" y="1126"/>
      <point x="805" y="1097"/>
      <point x="799" y="1063" type="qcurve" smooth="yes"/>
      <point x="754" y="810" type="line"/>
      <point x="1067" y="810" type="line" smooth="yes"/>
      <point x="1101" y="810"/>
      <point x="1125" y="780"/>
      <point x="1118" y="742" type="qcurve" smooth="yes"/>
      <point x="1112" y="704"/>
      <point x="1077" y="674"/>
      <point x="1043" y="674" type="qcurve" smooth="yes"/>
      <point x="730" y="674" type="line"/>
      <point x="686" y="421" type="line" smooth="yes"/>
      <point x="680" y="387"/>
      <point x="645" y="358"/>
      <point x="607" y="358" type="qcurve" smooth="yes"/>
      <point x="569" y="358"/>
      <point x="544" y="387"/>
      <point x="550" y="421" type="qcurve" smooth="yes"/>
      <point x="594" y="674" type="line"/>
    </contour>
    <contour>
      <point x="969" y="250" type="line" smooth="yes"/>
      <point x="1003" y="250"/>
      <point x="1026" y="220"/>
      <point x="1020" y="182" type="qcurve" smooth="yes"/>
      <point x="1013" y="144"/>
      <point x="979" y="114"/>
      <point x="945" y="114" type="qcurve" smooth="yes"/>
      <point x="183" y="114" type="line" smooth="yes"/>
      <point x="149" y="114"/>
      <point x="125" y="144"/>
      <point x="132" y="182" type="qcurve" smooth="yes"/>
      <point x="138" y="220"/>
      <point x="173" y="250"/>
      <point x="207" y="250" type="qcurve" smooth="yes"/>
    </contour>
  </outline>
</glyph>
<glyph name="twosuperior" format="1">
  <advance width="1228"/>
  <unicode hex="00B2"/>
  <outline>
    <contour>
      <point x="563" y="1063" type="line" smooth="yes"/>
      <point x="558" y="1038"/>
      <point x="524" y="1012"/>
      <point x="486" y="1012" type="qcurve" smooth="yes"/>
      <point x="449" y="1012"/>
      <point x="423" y="1038"/>
      <point x="428" y="1063" type="qcurve" smooth="yes"/>
      <point x="454" y="1210" type="line" smooth="yes"/>
      <point x="456" y="1224"/>
      <point x="472" y="1245"/>
      <point x="483" y="1252" type="qcurve" smooth="yes"/>
      <point x="550" y="1292"/>
      <point x="709" y="1334"/>
      <point x="781" y="1334" type="qcurve" smooth="yes"/>
      <point x="899" y="1334"/>
      <point x="1026" y="1218"/>
      <point x="1026" y="1121" type="qcurve" smooth="yes"/>
      <point x="1026" y="1073"/>
      <point x="999" y="991"/>
      <point x="972.0" y="954.0" type="qcurve" smooth="yes" name="inserted"/>
      <point x="945" y="917"/>
      <point x="864" y="845"/>
      <point x="810" y="806" type="qcurve" smooth="yes"/>
      <point x="536" y="608" type="line"/>
      <point x="858" y="608" type="line"/>
      <point x="872" y="686" type="line" smooth="yes"/>
      <point x="877" y="711"/>
      <point x="911" y="737"/>
      <point x="949" y="737" type="qcurve" smooth="yes"/>
      <point x="986" y="737"/>
      <point x="1012" y="711"/>
      <point x="1007" y="686" type="qcurve" smooth="yes"/>
      <point x="980" y="536" type="line" smooth="yes"/>
      <point x="975.5" y="509.5" name="inserted"/>
      <point x="946.0" y="483.0"/>
      <point x="921" y="483" type="qcurve" smooth="yes"/>
      <point x="350" y="483" type="line" smooth="yes"/>
      <point x="331.5" y="483.0" name="inserted"/>
      <point x="313.0" y="508.0"/>
      <point x="313" y="533" type="qcurve" smooth="yes"/>
      <point x="313" y="566"/>
      <point x="338" y="605"/>
      <point x="358" y="620" type="qcurve" smooth="yes"/>
      <point x="739" y="900" type="line" smooth="yes"/>
      <point x="812" y="953"/>
      <point x="883" y="1042"/>
      <point x="883" y="1099" type="qcurve" smooth="yes"/>
      <point x="883" y="1147"/>
      <point x="816" y="1205"/>
      <point x="749" y="1205" type="qcurve" smooth="yes"/>
      <point x="706" y="1205"/>
      <point x="619" y="1184"/>
      <point x="581" y="1166" type="qcurve"/>
    </contour>
  </outline>
</glyph>
<glyph name="threesuperior" format="1">
  <advance width="1228"/>
  <unicode hex="00B3"/>
  <outline>
    <contour>
      <point x="485" y="1265" type="qcurve" smooth="yes"/>
      <point x="551" y="1300"/>
      <point x="701" y="1334"/>
      <point x="769" y="1334" type="qcurve" smooth="yes"/>
      <point x="831" y="1334"/>
      <point x="927" y="1304"/>
      <point x="959.5" y="1277.5" type="qcurve" smooth="yes" name="inserted"/>
      <point x="992" y="1251"/>
      <point x="1026" y="1176"/>
      <point x="1026" y="1131" type="qcurve" smooth="yes"/>
      <point x="1026" y="1055"/>
      <point x="948" y="949"/>
      <point x="878" y="915" type="qcurve"/>
      <point x="929" y="896"/>
      <point x="987" y="815"/>
      <point x="987" y="755" type="qcurve" smooth="yes"/>
      <point x="987" y="692"/>
      <point x="940" y="586"/>
      <point x="893.5" y="547.5" type="qcurve" smooth="yes" name="inserted"/>
      <point x="847" y="509"/>
      <point x="709" y="465"/>
      <point x="617" y="465" type="qcurve" smooth="yes"/>
      <point x="546" y="465"/>
      <point x="403" y="496"/>
      <point x="347" y="530" type="qcurve" smooth="yes"/>
      <point x="339.5" y="535.0" name="inserted"/>
      <point x="332.0" y="550.5"/>
      <point x="332" y="561" type="qcurve" smooth="yes"/>
      <point x="332" y="572"/>
      <point x="344" y="604"/>
      <point x="354.0" y="619.0" type="qcurve" smooth="yes" name="inserted"/>
      <point x="364" y="634"/>
      <point x="390" y="655"/>
      <point x="404" y="655" type="qcurve" smooth="yes"/>
      <point x="408.5" y="655.0" name="inserted"/>
      <point x="418.0" y="652.5"/>
      <point x="423" y="650" type="qcurve" smooth="yes"/>
      <point x="468" y="625"/>
      <point x="576" y="594"/>
      <point x="633" y="594" type="qcurve" smooth="yes"/>
      <point x="733" y="594"/>
      <point x="845" y="670"/>
      <point x="845" y="741" type="qcurve" smooth="yes"/>
      <point x="845" y="769"/>
      <point x="821" y="808"/>
      <point x="799.5" y="819.0" type="qcurve" smooth="yes" name="inserted"/>
      <point x="778" y="830"/>
      <point x="717" y="840"/>
      <point x="680" y="840" type="qcurve" smooth="yes"/>
      <point x="628" y="840" type="line" smooth="yes"/>
      <point x="609" y="840"/>
      <point x="593" y="864"/>
      <point x="593" y="884" type="qcurve" smooth="yes"/>
      <point x="593" y="898"/>
      <point x="599" y="927"/>
      <point x="605.5" y="938.5" type="qcurve" smooth="yes" name="inserted"/>
      <point x="612" y="950"/>
      <point x="634" y="965"/>
      <point x="650" y="965" type="qcurve" smooth="yes"/>
      <point x="689" y="965" type="line" smooth="yes"/>
      <point x="782" y="965"/>
      <point x="883" y="1031"/>
      <point x="883" y="1104" type="qcurve" smooth="yes"/>
      <point x="883" y="1155"/>
      <point x="804" y="1205"/>
      <point x="735" y="1205" type="qcurve" smooth="yes"/>
      <point x="693" y="1205"/>
      <point x="618" y="1190"/>
      <point x="583" y="1176" type="qcurve"/>
      <point x="572" y="1113" type="line" smooth="yes"/>
      <point x="567" y="1088"/>
      <point x="533" y="1062"/>
      <point x="495" y="1062" type="qcurve" smooth="yes"/>
      <point x="458" y="1062"/>
      <point x="432" y="1088"/>
      <point x="437" y="1113" type="qcurve" smooth="yes"/>
      <point x="457" y="1223" type="line" smooth="yes"/>
      <point x="459.5" y="1237.5" name="inserted"/>
      <point x="473.5" y="1258.5"/>
    </contour>
  </outline>
</glyph>
<glyph name="acute" format="1">
  <advance width="1228"/>
  <unicode hex="00B4"/>
  <outline>
    <contour>
      <point x="970" y="1363" type="line" smooth="yes"/>
      <point x="983" y="1370"/>
      <point x="1006" y="1376"/>
      <point x="1017.5" y="1371.0" type="qcurve" smooth="yes" name="inserted"/>
      <point x="1029" y="1366"/>
      <point x="1055" y="1337"/>
      <point x="1071" y="1309" type="qcurve" smooth="yes"/>
      <point x="1086" y="1282"/>
      <point x="1097" y="1245"/>
      <point x="1096.0" y="1232.5" type="qcurve" smooth="yes" name="inserted"/>
      <point x="1095" y="1220"/>
      <point x="1081" y="1205"/>
      <point x="1071" y="1202" type="qcurve" smooth="yes"/>
      <point x="590" y="1039" type="line" smooth="yes"/>
      <point x="571" y="1033"/>
      <point x="542" y="1054"/>
      <point x="535" y="1071" type="qcurve" smooth="yes"/>
      <point x="528" y="1088"/>
      <point x="537" y="1123"/>
      <point x="554" y="1133" type="qcurve" smooth="yes"/>
    </contour>
  </outline>
</glyph>
<glyph name="periodcentered" format="1">
  <advance width="1228"/>
  <unicode hex="00B7"/>
  <outline>
    <contour>
      <point x="621" y="413" type="qcurve" smooth="yes"/>
      <point x="589" y="413"/>
      <point x="536" y="436"/>
      <point x="516.5" y="455.5" type="qcurve" smooth="yes" name="inserted"/>
      <point x="497" y="475"/>
      <point x="475" y="529"/>
      <point x="475" y="559" type="qcurve" smooth="yes"/>
      <point x="475" y="599"/>
      <point x="508" y="669"/>
      <point x="536.0" y="695.0" type="qcurve" smooth="yes" name="inserted"/>
      <point x="564" y="721"/>
      <point x="634" y="751"/>
      <point x="672" y="751" type="qcurve" smooth="yes"/>
      <point x="704" y="751"/>
      <point x="757" y="728"/>
      <point x="776.5" y="708.5" type="qcurve" smooth="yes" name="inserted"/>
      <point x="796" y="689"/>
      <point x="817" y="637"/>
      <point x="817" y="607" type="qcurve" smooth="yes"/>
      <point x="817" y="567"/>
      <point x="784" y="496"/>
      <point x="757.0" y="470.0" type="qcurve" smooth="yes" name="inserted"/>
      <point x="730" y="444"/>
      <point x="659" y="413"/>
    </contour>
  </outline>
</glyph>
<glyph name="onesuperior" format="1">
  <advance width="1228"/>
  <unicode hex="00B9"/>
  <outline>
    <contour>
      <point x="707" y="1179" type="line"/>
      <point x="523" y="1122" type="line" smooth="yes"/>
      <point x="514.5" y="1119.5" name="inserted"/>
      <point x="501.5" y="1117.0"/>
      <point x="497" y="1117" type="qcurve" smooth="yes"/>
      <point x="488" y="1117"/>
      <point x="474" y="1129"/>
      <point x="469.0" y="1139.0" type="qcurve" smooth="yes" name="inserted"/>
      <point x="464" y="1149"/>
      <point x="459" y="1172"/>
      <point x="459" y="1184" type="qcurve" smooth="yes"/>
      <point x="459" y="1208"/>
      <point x="482" y="1233"/>
      <point x="503" y="1239" type="qcurve" smooth="yes"/>
      <point x="802" y="1330" type="line" smooth="yes"/>
      <point x="808.5" y="1332.0" name="inserted"/>
      <point x="821.0" y="1334.0"/>
      <point x="827" y="1334" type="qcurve" smooth="yes"/>
      <point x="847" y="1334"/>
      <point x="865" y="1312"/>
      <point x="862" y="1292" type="qcurve" smooth="yes"/>
      <point x="741" y="608" type="line"/>
      <point x="935" y="608" type="line" smooth="yes"/>
      <point x="955.0" y="608.0" name="inserted"/>
      <point x="975.0" y="586.0"/>
      <point x="975" y="564" type="qcurve" smooth="yes"/>
      <point x="975.0" y="523.5" name="inserted"/>
      <point x="944.0" y="483.0"/>
      <point x="913" y="483" type="qcurve" smooth="yes"/>
      <point x="380" y="483" type="line" smooth="yes"/>
      <point x="359.5" y="483.0" name="inserted"/>
      <point x="339.0" y="505.5"/>
      <point x="339" y="528" type="qcurve" smooth="yes"/>
      <point x="339.0" y="568.0" name="inserted"/>
      <point x="370.5" y="608.0"/>
      <point x="402" y="608" type="qcurve" smooth="yes"/>
      <point x="606" y="608" type="line"/>
    </contour>
  </outline>
</glyph>
<glyph name="ordmasculine" format="1">
  <advance width="1228"/>
  <unicode hex="00BA"/>
  <outline>
    <contour>
      <point x="635" y="465" type="qcurve" smooth="yes"/>
      <point x="563" y="465"/>
      <point x="442" y="512"/>
      <point x="399.0" y="553.5" type="qcurve" smooth="yes" name="inserted"/>
      <point x="356" y="595"/>
      <point x="308" y="710"/>
      <point x="308" y="778" type="qcurve" smooth="yes"/>
      <point x="308" y="857"/>
      <point x="368" y="1012"/>
      <point x="424.5" y="1073.0" type="qcurve" smooth="yes" name="inserted"/>
      <point x="481" y="1134"/>
      <point x="644" y="1209"/>
      <point x="747" y="1209" type="qcurve" smooth="yes"/>
      <point x="819" y="1209"/>
      <point x="939" y="1162"/>
      <point x="982.5" y="1120.0" type="qcurve" smooth="yes" name="inserted"/>
      <point x="1026" y="1078"/>
      <point x="1074" y="963"/>
      <point x="1074" y="895" type="qcurve" smooth="yes"/>
      <point x="1074" y="817"/>
      <point x="1014" y="664"/>
      <point x="958.0" y="602.5" type="qcurve" smooth="yes" name="inserted"/>
      <point x="902" y="541"/>
      <point x="738" y="465"/>
    </contour>
    <contour>
      <point x="649" y="597" type="qcurve" smooth="yes"/>
      <point x="708" y="597"/>
      <point x="812" y="641"/>
      <point x="850.5" y="680.0" type="qcurve" smooth="yes" name="inserted"/>
      <point x="889" y="719"/>
      <point x="934" y="825"/>
      <point x="934" y="887" type="qcurve" smooth="yes"/>
      <point x="934" y="972"/>
      <point x="828" y="1077"/>
      <point x="733" y="1077" type="qcurve" smooth="yes"/>
      <point x="665" y="1077"/>
      <point x="559" y="1025"/>
      <point x="522.0" y="983.5" type="qcurve" smooth="yes" name="inserted"/>
      <point x="485" y="942"/>
      <point x="447" y="838"/>
      <point x="447" y="787" type="qcurve" smooth="yes"/>
      <point x="447" y="745"/>
      <point x="475" y="675"/>
      <point x="501.0" y="650.0" type="qcurve" smooth="yes" name="inserted"/>
      <point x="527" y="625"/>
      <point x="602" y="597"/>
    </contour>
  </outline>
</glyph>
<glyph name="multiply" format="1">
  <advance width="1228"/>
  <unicode hex="00D7"/>
  <outline>
    <contour>
      <point x="653" y="678" type="line"/>
      <point x="950" y="930" type="line" smooth="yes"/>
      <point x="976" y="952"/>
      <point x="1018" y="948"/>
      <point x="1042" y="919" type="qcurve" smooth="yes"/>
      <point x="1066" y="890"/>
      <point x="1064" y="848"/>
      <point x="1038" y="826" type="qcurve" smooth="yes"/>
      <point x="742" y="574" type="line"/>
      <point x="964" y="315" type="line" smooth="yes"/>
      <point x="986" y="289"/>
      <point x="982" y="247"/>
      <point x="953" y="223" type="qcurve" smooth="yes"/>
      <point x="924" y="199"/>
      <point x="882" y="201"/>
      <point x="860" y="227" type="qcurve" smooth="yes"/>
      <point x="638" y="486" type="line"/>
      <point x="341" y="234" type="line" smooth="yes"/>
      <point x="315" y="212"/>
      <point x="273" y="216"/>
      <point x="249" y="245" type="qcurve" smooth="yes"/>
      <point x="225" y="274"/>
      <point x="227" y="316"/>
      <point x="253" y="338" type="qcurve" smooth="yes"/>
      <point x="549" y="590" type="line"/>
      <point x="328" y="849" type="line" smooth="yes"/>
      <point x="306" y="875"/>
      <point x="310" y="917"/>
      <point x="339" y="941" type="qcurve" smooth="yes"/>
      <point x="368" y="965"/>
      <point x="410" y="963"/>
      <point x="432" y="937" type="qcurve" smooth="yes"/>
    </contour>
  </outline>
</glyph>
<glyph name="germandbls" format="1">
  <advance width="1228"/>
  <unicode hex="00DF"/>
  <outline>
    <contour>
      <point x="331" y="943" type="line" smooth="yes"/>
      <point x="345" y="1025"/>
      <point x="417" y="1163"/>
      <point x="471.5" y="1212.5" type="qcurve" smooth="yes" name="inserted"/>
      <point x="526" y="1262"/>
      <point x="671" y="1317"/>
      <point x="758" y="1317" type="qcurve" smooth="yes"/>
      <point x="840" y="1317"/>
      <point x="965" y="1273"/>
      <point x="1006.0" y="1234.0" type="qcurve" smooth="yes" name="inserted"/>
      <point x="1047" y="1195"/>
      <point x="1089" y="1090"/>
      <point x="1089" y="1029" type="qcurve" smooth="yes"/>
      <point x="1089" y="917"/>
      <point x="972" y="750"/>
      <point x="862" y="697" type="qcurve"/>
      <point x="947" y="662"/>
      <point x="1039" y="522"/>
      <point x="1039" y="425" type="qcurve" smooth="yes"/>
      <point x="1039" y="383"/>
      <point x="1020" y="283"/>
      <point x="997.5" y="233.5" type="qcurve" smooth="yes" name="inserted"/>
      <point x="975" y="184"/>
      <point x="904" y="92"/>
      <point x="851.5" y="56.5" type="qcurve" smooth="yes" name="inserted"/>
      <point x="799" y="21"/>
      <point x="660" y="-22"/>
      <point x="570" y="-22" type="qcurve" smooth="yes"/>
      <point x="519" y="-22"/>
      <point x="489" y="11"/>
      <point x="493" y="55" type="qcurve" smooth="yes"/>
      <point x="496" y="93"/>
      <point x="532" y="126"/>
      <point x="567" y="126" type="qcurve" smooth="yes"/>
      <point x="656" y="126"/>
      <point x="777" y="181"/>
      <point x="813.5" y="224.0" type="qcurve" smooth="yes" name="inserted"/>
      <point x="850" y="267"/>
      <point x="882" y="372"/>
      <point x="882" y="422" type="qcurve" smooth="yes"/>
      <point x="882" y="518"/>
      <point x="768" y="619"/>
      <point x="666" y="619" type="qcurve" smooth="yes"/>
      <point x="632" y="619"/>
      <point x="608" y="652"/>
      <point x="615" y="688" type="qcurve" smooth="yes"/>
      <point x="621" y="724"/>
      <point x="656" y="756"/>
      <point x="690" y="759" type="qcurve" smooth="yes"/>
      <point x="756" y="765"/>
      <point x="848" y="816"/>
      <point x="877.0" y="852.0" type="qcurve" smooth="yes" name="inserted"/>
      <point x="906" y="888"/>
      <point x="933" y="973"/>
      <point x="933" y="1014" type="qcurve" smooth="yes"/>
      <point x="933" y="1088"/>
      <point x="835" y="1172"/>
      <point x="738" y="1172" type="qcurve" smooth="yes"/>
      <point x="686" y="1172"/>
      <point x="600" y="1138"/>
      <point x="566.5" y="1106.5" type="qcurve" smooth="yes" name="inserted"/>
      <point x="533" y="1075"/>
      <point x="489" y="987"/>
      <point x="479" y="932" type="qcurve" smooth="yes"/>
      <point x="324" y="55" type="line" smooth="yes"/>
      <point x="318" y="20"/>
      <point x="280" y="-10"/>
      <point x="238" y="-10" type="qcurve" smooth="yes"/>
      <point x="196" y="-10"/>
      <point x="168" y="20"/>
      <point x="174" y="55" type="qcurve" smooth="yes"/>
    </contour>
  </outline>
</glyph>
<glyph name="oslash" format="1">
  <advance width="1228"/>
  <unicode hex="00F8"/>
  <outline>
    <contour>
      <point x="126" y="386" type="qcurve" smooth="yes"/>
      <point x="126" y="496"/>
      <point x="209" y="698"/>
      <point x="284.5" y="775.5" type="qcurve" smooth="yes" name="inserted"/>
      <point x="360" y="853"/>
      <point x="571" y="946"/>
      <point x="700" y="946" type="qcurve" smooth="yes"/>
      <point x="785" y="946"/>
      <point x="926" y="898"/>
      <point x="981" y="853" type="qcurve"/>
      <point x="1064" y="923" type="line" smooth="yes"/>
      <point x="1093" y="947"/>
      <point x="1149" y="944"/>
      <point x="1169" y="918" type="qcurve" smooth="yes"/>
      <point x="1190" y="892"/>
      <point x="1193" y="846"/>
      <point x="1163" y="822" type="qcurve" smooth="yes"/>
      <point x="1071" y="745" type="line"/>
      <point x="1097" y="700"/>
      <point x="1124" y="596"/>
      <point x="1124" y="538" type="qcurve" smooth="yes"/>
      <point x="1124" y="428"/>
      <point x="1041" y="226"/>
      <point x="965.5" y="148.5" type="qcurve" smooth="yes" name="inserted"/>
      <point x="890" y="71"/>
      <point x="679" y="-22"/>
      <point x="550" y="-22" type="qcurve" smooth="yes"/>
      <point x="465" y="-22"/>
      <point x="323" y="26"/>
      <point x="268" y="71" type="qcurve"/>
      <point x="185" y="1" type="line" smooth="yes"/>
      <point x="156" y="-23"/>
      <point x="101" y="-20"/>
      <point x="81" y="6" type="qcurve" smooth="yes"/>
      <point x="60" y="32"/>
      <point x="56" y="77"/>
      <point x="85" y="101" type="qcurve" smooth="yes"/>
      <point x="178" y="179" type="line"/>
      <point x="152.0" y="224.0" name="inserted"/>
      <point x="126.0" y="327.5"/>
    </contour>
    <contour>
      <point x="967" y="530" type="qcurve" smooth="yes"/>
      <point x="967.0" y="559.5" name="inserted"/>
      <point x="957.0" y="614.5"/>
      <point x="947" y="640" type="qcurve"/>
      <point x="391" y="174" type="line"/>
      <point x="426.5" y="150.0" name="inserted"/>
      <point x="514.0" y="126.0"/>
      <point x="566" y="126" type="qcurve" smooth="yes"/>
      <point x="654" y="126"/>
      <point x="801" y="192"/>
      <point x="854.5" y="248.0" type="qcurve" smooth="yes" name="inserted"/>
      <point x="908" y="304"/>
      <point x="967" y="450"/>
    </contour>
    <contour>
      <point x="283" y="394" type="qcurve" smooth="yes"/>
      <point x="283.0" y="364.5" name="inserted"/>
      <point x="293.0" y="309.5"/>
      <point x="303" y="284" type="qcurve"/>
      <point x="858" y="750" type="line"/>
      <point x="824" y="773"/>
      <point x="737" y="798"/>
      <point x="684" y="798" type="qcurve" smooth="yes"/>
      <point x="596" y="798"/>
      <point x="449" y="732"/>
      <point x="395.5" y="676.0" type="qcurve" smooth="yes" name="inserted"/>
      <point x="342" y="620"/>
      <point x="283" y="474"/>
    </contour>
  </outline>
</glyph>
<glyph name="thorn" format="1">
  <advance width="1228"/>
  <unicode hex="00FE"/>
  <outline>
    <contour>
      <point x="604" y="28" type="qcurve" smooth="yes"/>
      <point x="504" y="28"/>
      <point x="361" y="116"/>
      <point x="316" y="194" type="qcurve"/>
      <point x="236" y="-257" type="line"/>
      <point x="488" y="-257" type="line" smooth="yes"/>
      <point x="522" y="-257"/>
      <point x="546" y="-287"/>
      <point x="539" y="-325" type="qcurve" smooth="yes"/>
      <point x="532" y="-363"/>
      <point x="498" y="-393"/>
      <point x="464" y="-393" type="qcurve" smooth="yes"/>
      <point x="-20" y="-393" type="line" smooth="yes"/>
      <point x="-54" y="-393"/>
      <point x="-77" y="-363"/>
      <point x="-70" y="-325" type="qcurve" smooth="yes"/>
      <point x="-64" y="-287"/>
      <point x="-30" y="-257"/>
      <point x="4" y="-257" type="qcurve" smooth="yes"/>
      <point x="86" y="-257" type="line"/>
      <point x="339" y="1176" type="line"/>
      <point x="257" y="1176" type="line" smooth="yes"/>
      <point x="223" y="1176"/>
      <point x="200" y="1206"/>
      <point x="206" y="1244" type="qcurve" smooth="yes"/>
      <point x="213" y="1282"/>
      <point x="247" y="1312"/>
      <point x="281" y="1312" type="qcurve" smooth="yes"/>
      <point x="450" y="1312" type="line" smooth="yes"/>
      <point x="484" y="1312"/>
      <point x="508" y="1282"/>
      <point x="501" y="1244" type="qcurve" smooth="yes"/>
      <point x="422" y="798" type="line"/>
      <point x="496" y="870"/>
      <point x="662" y="946"/>
      <point x="755" y="946" type="qcurve" smooth="yes"/>
      <point x="836" y="946"/>
      <point x="971" y="894"/>
      <point x="1019.5" y="845.5" type="qcurve" smooth="yes" name="inserted"/>
      <point x="1068" y="797"/>
      <point x="1122" y="659"/>
      <point x="1122" y="574" type="qcurve" smooth="yes"/>
      <point x="1122" y="467"/>
      <point x="1052" y="270"/>
      <point x="985.5" y="194.0" type="qcurve" smooth="yes" name="inserted"/>
      <point x="919" y="118"/>
      <point x="727" y="28"/>
    </contour>
    <contour>
      <point x="729" y="798" type="qcurve" smooth="yes"/>
      <point x="636" y="798"/>
      <point x="497" y="728"/>
      <point x="451.5" y="673.0" type="qcurve" smooth="yes" name="inserted"/>
      <point x="406" y="618"/>
      <point x="361" y="483"/>
      <point x="361" y="418" type="qcurve" smooth="yes"/>
      <point x="361" y="360"/>
      <point x="398" y="270"/>
      <point x="432.0" y="239.0" type="qcurve" smooth="yes" name="inserted"/>
      <point x="466" y="208"/>
      <point x="562" y="176"/>
      <point x="620" y="176" type="qcurve" smooth="yes"/>
      <point x="704" y="176"/>
      <point x="833" y="243"/>
      <point x="876.5" y="297.5" type="qcurve" smooth="yes" name="inserted"/>
      <point x="920" y="352"/>
      <point x="965" y="491"/>
      <point x="965" y="562" type="qcurve" smooth="yes"/>
      <point x="965" y="615"/>
      <point x="935" y="702"/>
      <point x="905.0" y="733.0" type="qcurve" smooth="yes" name="inserted"/>
      <point x="875" y="764"/>
      <point x="787" y="798"/>
    </contour>
  </outline>
</glyph>
<glyph name="aogonek" format="1">
  <advance width="1228"/>
  <unicode hex="0105"/>
  <outline>
    <contour>
      <point x="485" y="-22" type="qcurve" smooth="yes"/>
      <point x="404" y="-22"/>
      <point x="270" y="32"/>
      <point x="222.0" y="82.5" type="qcurve" smooth="yes" name="inserted"/>
      <point x="174" y="133"/>
      <point x="121" y="276"/>
      <point x="121" y="366" type="qcurve" smooth="yes"/>
      <point x="121" y="431"/>
      <point x="148" y="567"/>
      <point x="176.0" y="631.5" type="qcurve" smooth="yes" name="inserted"/>
      <point x="204" y="696"/>
      <point x="288" y="810"/>
      <point x="345.0" y="853.0" type="qcurve" smooth="yes" name="inserted"/>
      <point x="402" y="896"/>
      <point x="547" y="946"/>
      <point x="635" y="946" type="qcurve" smooth="yes"/>
      <point x="686" y="946"/>
      <point x="777" y="920"/>
      <point x="815.5" y="896.0" type="qcurve" smooth="yes" name="inserted"/>
      <point x="854" y="872"/>
      <point x="916" y="806"/>
      <point x="940" y="766" type="qcurve"/>
      <point x="959" y="869" type="line" smooth="yes"/>
      <point x="965" y="904"/>
      <point x="998" y="934"/>
      <point x="1040" y="934" type="qcurve" smooth="yes"/>
      <point x="1082" y="934"/>
      <point x="1105" y="904"/>
      <point x="1099" y="869" type="qcurve" smooth="yes"/>
      <point x="981" y="201" type="line" smooth="yes"/>
      <point x="976" y="170"/>
      <point x="997" y="136"/>
      <point x="1025" y="136" type="qcurve" smooth="yes"/>
      <point x="1050" y="136" type="line" smooth="yes"/>
      <point x="1084" y="136"/>
      <point x="1108" y="106"/>
      <point x="1101" y="68" type="qcurve" smooth="yes"/>
      <point x="1095" y="33"/>
      <point x="1064" y="2"/>
      <point x="1035" y="0" type="qcurve"/>
      <point x="923" y="-88"/>
      <point x="819" y="-223"/>
      <point x="819" y="-277" type="qcurve" smooth="yes"/>
      <point x="819" y="-306"/>
      <point x="854" y="-336"/>
      <point x="884" y="-336" type="qcurve" smooth="yes"/>
      <point x="913" y="-336"/>
      <point x="968" y="-331"/>
      <point x="995" y="-326" type="qcurve" smooth="yes"/>
      <point x="1015.0" y="-323.0" name="inserted"/>
      <point x="1038.5" y="-347.0"/>
      <point x="1042" y="-374" type="qcurve" smooth="yes"/>
      <point x="1046" y="-402"/>
      <point x="1029" y="-435"/>
      <point x="1006" y="-443" type="qcurve" smooth="yes"/>
      <point x="969" y="-456"/>
      <point x="875" y="-472"/>
      <point x="827" y="-472" type="qcurve" smooth="yes"/>
      <point x="746" y="-472"/>
      <point x="659" y="-382"/>
      <point x="659" y="-310" type="qcurve" smooth="yes"/>
      <point x="659" y="-221"/>
      <point x="782" y="-59"/>
      <point x="894" y="23" type="qcurve"/>
      <point x="866" y="41"/>
      <point x="832" y="101"/>
      <point x="830" y="143" type="qcurve"/>
      <point x="753.5" y="60.5" name="inserted"/>
      <point x="581.0" y="-22.0"/>
    </contour>
    <contour>
      <point x="511" y="126" type="qcurve" smooth="yes"/>
      <point x="600" y="126"/>
      <point x="739" y="198"/>
      <point x="786.5" y="256.5" type="qcurve" smooth="yes" name="inserted"/>
      <point x="834" y="315"/>
      <point x="884" y="464"/>
      <point x="884" y="541" type="qcurve" smooth="yes"/>
      <point x="884" y="602"/>
      <point x="848" y="698"/>
      <point x="814.5" y="731.0" type="qcurve" smooth="yes" name="inserted"/>
      <point x="781" y="764"/>
      <point x="687" y="798"/>
      <point x="629" y="798" type="qcurve" smooth="yes"/>
      <point x="545" y="798"/>
      <point x="414" y="724"/>
      <point x="369.0" y="664.0" type="qcurve" smooth="yes" name="inserted"/>
      <point x="324" y="604"/>
      <point x="278" y="452"/>
      <point x="278" y="375" type="qcurve" smooth="yes"/>
      <point x="278" y="319"/>
      <point x="308" y="227"/>
      <point x="337.0" y="194.5" type="qcurve" smooth="yes" name="inserted"/>
      <point x="366" y="162"/>
      <point x="454" y="126"/>
    </contour>
  </outline>
</glyph>
<glyph name="dcaron" format="1">
  <advance width="1228"/>
  <unicode hex="010F"/>
  <outline>
    <contour>
      <point x="445" y="-22" type="qcurve" smooth="yes"/>
      <point x="375" y="-22"/>
      <point x="258" y="29"/>
      <point x="216.0" y="76.5" type="qcurve" smooth="yes" name="inserted"/>
      <point x="174" y="124"/>
      <point x="128" y="259"/>
      <point x="128" y="343" type="qcurve" smooth="yes"/>
      <point x="128" y="408"/>
      <point x="153" y="540"/>
      <point x="178.0" y="601.5" type="qcurve" smooth="yes" name="inserted"/>
      <point x="203" y="663"/>
      <point x="279" y="770"/>
      <point x="329.5" y="810.0" type="qcurve" smooth="yes" name="inserted"/>
      <point x="380" y="850"/>
      <point x="508" y="896"/>
      <point x="586" y="896" type="qcurve" smooth="yes"/>
      <point x="677" y="896"/>
      <point x="804" y="816"/>
      <point x="838" y="750" type="qcurve"/>
      <point x="913" y="1176" type="line"/>
      <point x="731" y="1176" type="line" smooth="yes"/>
      <point x="697" y="1176"/>
      <point x="673" y="1206"/>
      <point x="680" y="1244" type="qcurve" smooth="yes"/>
      <point x="687" y="1282"/>
      <point x="721" y="1312"/>
      <point x="755" y="1312" type="qcurve" smooth="yes"/>
      <point x="1024" y="1312" type="line" smooth="yes"/>
      <point x="1058" y="1312"/>
      <point x="1082" y="1282"/>
      <point x="1075" y="1244" type="qcurve" smooth="yes"/>
      <point x="879" y="136" type="line"/>
      <point x="961" y="136" type="line" smooth="yes"/>
      <point x="995" y="136"/>
      <point x="1019" y="106"/>
      <point x="1012" y="68" type="qcurve" smooth="yes"/>
      <point x="1006" y="30"/>
      <point x="972" y="0"/>
      <point x="938" y="0" type="qcurve" smooth="yes"/>
      <point x="779" y="0" type="line" smooth="yes"/>
      <point x="745" y="0"/>
      <point x="720" y="30"/>
      <point x="727" y="68" type="qcurve" smooth="yes"/>
      <point x="739" y="133" type="line"/>
      <point x="712" y="100"/>
      <point x="650" y="44"/>
      <point x="614.0" y="23.0" type="qcurve" smooth="yes" name="inserted"/>
      <point x="578" y="2"/>
      <point x="494" y="-22"/>
    </contour>
    <contour>
      <point x="471" y="126" type="qcurve" smooth="yes"/>
      <point x="527" y="126"/>
      <point x="618" y="161"/>
      <point x="654.0" y="190.5" type="qcurve" smooth="yes" name="inserted"/>
      <point x="690" y="220"/>
      <point x="741" y="299"/>
      <point x="758.0" y="343.0" type="qcurve" smooth="yes" name="inserted"/>
      <point x="775" y="387"/>
      <point x="791" y="478"/>
      <point x="791" y="521" type="qcurve" smooth="yes"/>
      <point x="791" y="630"/>
      <point x="680" y="748"/>
      <point x="580" y="748" type="qcurve" smooth="yes"/>
      <point x="505" y="748"/>
      <point x="394" y="673"/>
      <point x="357.5" y="615.0" type="qcurve" smooth="yes" name="inserted"/>
      <point x="321" y="557"/>
      <point x="284" y="416"/>
      <point x="284" y="349" type="qcurve" smooth="yes"/>
      <point x="284" y="299"/>
      <point x="307" y="217"/>
      <point x="330.5" y="187.5" type="qcurve" smooth="yes" name="inserted"/>
      <point x="354" y="158"/>
      <point x="424" y="126"/>
    </contour>
    <contour>
      <point x="1259" y="897" type="line" smooth="yes"/>
      <point x="1247.0" y="879.5" name="inserted"/>
      <point x="1213.0" y="862.0"/>
      <point x="1191" y="862" type="qcurve" smooth="yes"/>
      <point x="1162" y="862"/>
      <point x="1139" y="892"/>
      <point x="1149" y="918" type="qcurve" smooth="yes"/>
      <point x="1290" y="1280" type="line" smooth="yes"/>
      <point x="1296.0" y="1296.0" name="inserted"/>
      <point x="1320.0" y="1312.0"/>
      <point x="1338" y="1312" type="qcurve" smooth="yes"/>
      <point x="1491" y="1312" type="line" smooth="yes"/>
      <point x="1511" y="1312"/>
      <point x="1520" y="1283"/>
      <point x="1505" y="1261" type="qcurve" smooth="yes"/>
    </contour>
  </outline>
</glyph>
<glyph name="dcroat" format="1">
  <advance width="1228"/>
  <unicode hex="0111"/>
  <outline>
    <contour>
      <point x="1061" y="136" type="line" smooth="yes"/>
      <point x="1095" y="136"/>
      <point x="1119" y="106"/>
      <point x="1112" y="68" type="qcurve" smooth="yes"/>
      <point x="1106" y="30"/>
      <point x="1072" y="0"/>
      <point x="1038" y="0" type="qcurve" smooth="yes"/>
      <point x="879" y="0" type="line" smooth="yes"/>
      <point x="845" y="0"/>
      <point x="820" y="30"/>
      <point x="827" y="68" type="qcurve" smooth="yes"/>
      <point x="840" y="138" type="line"/>
      <point x="764" y="60"/>
      <point x="592" y="-22"/>
      <point x="495" y="-22" type="qcurve" smooth="yes"/>
      <point x="414" y="-22"/>
      <point x="279" y="30"/>
      <point x="230.5" y="78.5" type="qcurve" smooth="yes" name="inserted"/>
      <point x="182" y="127"/>
      <point x="128" y="264"/>
      <point x="128" y="350" type="qcurve" smooth="yes"/>
      <point x="128" y="457"/>
      <point x="198" y="654"/>
      <point x="264.5" y="730.0" type="qcurve" smooth="yes" name="inserted"/>
      <point x="331" y="806"/>
      <point x="523" y="896"/>
      <point x="646" y="896" type="qcurve" smooth="yes"/>
      <point x="746" y="896"/>
      <point x="889" y="808"/>
      <point x="934" y="730" type="qcurve"/>
      <point x="976" y="970" type="line"/>
      <point x="674" y="970" type="line" smooth="yes"/>
      <point x="640" y="970"/>
      <point x="616" y="1000"/>
      <point x="623" y="1038" type="qcurve" smooth="yes"/>
      <point x="629" y="1076"/>
      <point x="664" y="1106"/>
      <point x="698" y="1106" type="qcurve" smooth="yes"/>
      <point x="1000" y="1106" type="line"/>
      <point x="1013" y="1176" type="line"/>
      <point x="811" y="1176" type="line" smooth="yes"/>
      <point x="777" y="1176"/>
      <point x="753" y="1206"/>
      <point x="760" y="1244" type="qcurve" smooth="yes"/>
      <point x="767" y="1282"/>
      <point x="801" y="1312"/>
      <point x="835" y="1312" type="qcurve" smooth="yes"/>
      <point x="1124" y="1312" type="line" smooth="yes"/>
      <point x="1158" y="1312"/>
      <point x="1182" y="1282"/>
      <point x="1175" y="1244" type="qcurve" smooth="yes"/>
      <point x="1150" y="1106" type="line"/>
      <point x="1260" y="1106" type="line" smooth="yes"/>
      <point x="1294" y="1106"/>
      <point x="1317" y="1076"/>
      <point x="1311" y="1038" type="qcurve" smooth="yes"/>
      <point x="1304" y="1000"/>
      <point x="1270" y="970"/>
      <point x="1236" y="970" type="qcurve" smooth="yes"/>
      <point x="1126" y="970" type="line"/>
      <point x="979" y="136" type="line"/>
    </contour>
    <contour>
      <point x="521" y="126" type="qcurve" smooth="yes"/>
      <point x="614" y="126"/>
      <point x="753" y="196"/>
      <point x="798.5" y="251.0" type="qcurve" smooth="yes" name="inserted"/>
      <point x="844" y="306"/>
      <point x="889" y="441"/>
      <point x="889" y="506" type="qcurve" smooth="yes"/>
      <point x="889" y="564"/>
      <point x="852" y="654"/>
      <point x="818.0" y="685.0" type="qcurve" smooth="yes" name="inserted"/>
      <point x="784" y="716"/>
      <point x="688" y="748"/>
      <point x="630" y="748" type="qcurve" smooth="yes"/>
      <point x="546" y="748"/>
      <point x="417" y="681"/>
      <point x="373.5" y="626.5" type="qcurve" smooth="yes" name="inserted"/>
      <point x="330" y="572"/>
      <point x="285" y="433"/>
      <point x="285" y="362" type="qcurve" smooth="yes"/>
      <point x="285" y="309"/>
      <point x="315" y="222"/>
      <point x="345.0" y="191.0" type="qcurve" smooth="yes" name="inserted"/>
      <point x="375" y="160"/>
      <point x="463" y="126"/>
    </contour>
  </outline>
</glyph>
<glyph name="Eogonek" format="1">
  <advance width="1228"/>
  <unicode hex="0118"/>
  <outline>
    <contour>
      <point x="804" y="-336" type="qcurve" smooth="yes"/>
      <point x="833" y="-336"/>
      <point x="888" y="-331"/>
      <point x="915" y="-326" type="qcurve" smooth="yes"/>
      <point x="935.0" y="-323.0" name="inserted"/>
      <point x="958.5" y="-347.0"/>
      <point x="962" y="-374" type="qcurve" smooth="yes"/>
      <point x="966" y="-402"/>
      <point x="949" y="-435"/>
      <point x="926" y="-443" type="qcurve" smooth="yes"/>
      <point x="889" y="-456"/>
      <point x="795" y="-472"/>
      <point x="747" y="-472" type="qcurve" smooth="yes"/>
      <point x="666" y="-472"/>
      <point x="579" y="-382"/>
      <point x="579" y="-310" type="qcurve" smooth="yes"/>
      <point x="579" y="-227"/>
      <point x="685" y="-76"/>
      <point x="783" y="0" type="qcurve"/>
      <point x="73" y="0" type="line" smooth="yes"/>
      <point x="39" y="0"/>
      <point x="15" y="30"/>
      <point x="21" y="68" type="qcurve" smooth="yes"/>
      <point x="28" y="106"/>
      <point x="62" y="136"/>
      <point x="96" y="136" type="qcurve" smooth="yes"/>
      <point x="198" y="136" type="line"/>
      <point x="360" y="1051" type="line"/>
      <point x="258" y="1051" type="line" smooth="yes"/>
      <point x="224" y="1051"/>
      <point x="200" y="1081"/>
      <point x="207" y="1119" type="qcurve" smooth="yes"/>
      <point x="214" y="1157"/>
      <point x="248" y="1187"/>
      <point x="282" y="1187" type="qcurve" smooth="yes"/>
      <point x="1156" y="1187" type="line" smooth="yes"/>
      <point x="1190" y="1187"/>
      <point x="1214" y="1157"/>
      <point x="1207" y="1119" type="qcurve" smooth="yes"/>
      <point x="1162" y="865" type="line" smooth="yes"/>
      <point x="1156" y="830"/>
      <point x="1118" y="800"/>
      <point x="1076" y="800" type="qcurve" smooth="yes"/>
      <point x="1034" y="800"/>
      <point x="1006" y="830"/>
      <point x="1012" y="865" type="qcurve" smooth="yes"/>
      <point x="1045" y="1051" type="line"/>
      <point x="510" y="1051" type="line"/>
      <point x="444" y="680" type="line"/>
      <point x="694" y="680" type="line"/>
      <point x="710" y="771" type="line" smooth="yes"/>
      <point x="717" y="806"/>
      <point x="755" y="836"/>
      <point x="797" y="836" type="qcurve" smooth="yes"/>
      <point x="839" y="836"/>
      <point x="867" y="806"/>
      <point x="860" y="771" type="qcurve" smooth="yes"/>
      <point x="804" y="453" type="line" smooth="yes"/>
      <point x="798" y="418"/>
      <point x="760" y="388"/>
      <point x="718" y="388" type="qcurve" smooth="yes"/>
      <point x="676" y="388"/>
      <point x="648" y="418"/>
      <point x="654" y="453" type="qcurve" smooth="yes"/>
      <point x="670" y="544" type="line"/>
      <point x="420" y="544" type="line"/>
      <point x="348" y="136" type="line"/>
      <point x="903" y="136" type="line"/>
      <point x="944" y="365" type="line" smooth="yes"/>
      <point x="950" y="400"/>
      <point x="988" y="430"/>
      <point x="1030" y="430" type="qcurve" smooth="yes"/>
      <point x="1072" y="430"/>
      <point x="1100" y="400"/>
      <point x="1094" y="365" type="qcurve" smooth="yes"/>
      <point x="1041" y="68" type="line" smooth="yes"/>
      <point x="1035" y="30"/>
      <point x="1001" y="0"/>
      <point x="967" y="0" type="qcurve" smooth="yes"/>
      <point x="955" y="0" type="line"/>
      <point x="843" y="-88"/>
      <point x="739" y="-223"/>
      <point x="739" y="-277" type="qcurve" smooth="yes"/>
      <point x="739" y="-306"/>
      <point x="774" y="-336"/>
    </contour>
  </outline>
</glyph>
<glyph name="iogonek" format="1">
  <advance width="1228"/>
  <unicode hex="012F"/>
  <outline>
    <contour>
      <point x="298" y="788" type="line" smooth="yes"/>
      <point x="264" y="788"/>
      <point x="241" y="818"/>
      <point x="247" y="856" type="qcurve" smooth="yes"/>
      <point x="254" y="894"/>
      <point x="288" y="924"/>
      <point x="322" y="924" type="qcurve" smooth="yes"/>
      <point x="662" y="924" type="line" smooth="yes"/>
      <point x="696" y="924"/>
      <point x="720" y="894"/>
      <point x="713" y="856" type="qcurve" smooth="yes"/>
      <point x="617" y="310" type="line" smooth="yes"/>
      <point x="614" y="292"/>
      <point x="610" y="258"/>
      <point x="610" y="244" type="qcurve" smooth="yes"/>
      <point x="610" y="181"/>
      <point x="674" y="124"/>
      <point x="744" y="124" type="qcurve" smooth="yes"/>
      <point x="802" y="124"/>
      <point x="914" y="162"/>
      <point x="976" y="200" type="qcurve" smooth="yes"/>
      <point x="1001" y="215"/>
      <point x="1045" y="196"/>
      <point x="1059" y="161" type="qcurve" smooth="yes"/>
      <point x="1073" y="125"/>
      <point x="1057" y="81"/>
      <point x="1029" y="65" type="qcurve" smooth="yes"/>
      <point x="966.0" y="29.0" name="inserted"/>
      <point x="842.0" y="-13.0"/>
      <point x="781" y="-19" type="qcurve"/>
      <point x="682" y="-100"/>
      <point x="589" y="-226"/>
      <point x="589" y="-277" type="qcurve" smooth="yes"/>
      <point x="589" y="-306"/>
      <point x="624" y="-336"/>
      <point x="654" y="-336" type="qcurve" smooth="yes"/>
      <point x="683" y="-336"/>
      <point x="738" y="-331"/>
      <point x="765" y="-326" type="qcurve" smooth="yes"/>
      <point x="785.0" y="-323.0" name="inserted"/>
      <point x="808.5" y="-347.0"/>
      <point x="812" y="-374" type="qcurve" smooth="yes"/>
      <point x="816" y="-402"/>
      <point x="799" y="-435"/>
      <point x="776" y="-443" type="qcurve" smooth="yes"/>
      <point x="739" y="-456"/>
      <point x="645" y="-472"/>
      <point x="597" y="-472" type="qcurve" smooth="yes"/>
      <point x="516" y="-472"/>
      <point x="429" y="-382"/>
      <point x="429" y="-310" type="qcurve" smooth="yes"/>
      <point x="429" y="-229"/>
      <point x="530" y="-82"/>
      <point x="623" y="-8" type="qcurve"/>
      <point x="543" y="16"/>
      <point x="460" y="138"/>
      <point x="460" y="229" type="qcurve" smooth="yes"/>
      <point x="460.0" y="249.0" name="inserted"/>
      <point x="463.5" y="288.0"/>
      <point x="467" y="307" type="qcurve" smooth="yes"/>
      <point x="551" y="788" type="line"/>
    </contour>
    <contour>
      <point x="768" y="1168" type="line" smooth="yes"/>
      <point x="762" y="1133"/>
      <point x="719" y="1103"/>
      <point x="662" y="1103" type="qcurve" smooth="yes"/>
      <point x="605" y="1103"/>
      <point x="572" y="1133"/>
      <point x="578" y="1168" type="qcurve" smooth="yes"/>
      <point x="601" y="1298" type="line" smooth="yes"/>
      <point x="607" y="1333"/>
      <point x="651" y="1363"/>
      <point x="708" y="1363" type="qcurve" smooth="yes"/>
      <point x="765" y="1363"/>
      <point x="797" y="1333"/>
      <point x="791" y="1298" type="qcurve" smooth="yes"/>
    </contour>
  </outline>
</glyph>
<glyph name="IJ" format="1">
  <advance width="1228"/>
  <unicode hex="0132"/>
  <outline>
    <contour>
      <point x="294" y="1051" type="line"/>
      <point x="208" y="1051" type="line" smooth="yes"/>
      <point x="174" y="1051"/>
      <point x="150" y="1081"/>
      <point x="157" y="1119" type="qcurve" smooth="yes"/>
      <point x="164" y="1157"/>
      <point x="198" y="1187"/>
      <point x="232" y="1187" type="qcurve" smooth="yes"/>
      <point x="544" y="1187" type="line" smooth="yes"/>
      <point x="578" y="1187"/>
      <point x="602" y="1157"/>
      <point x="595" y="1119" type="qcurve" smooth="yes"/>
      <point x="588" y="1081"/>
      <point x="554" y="1051"/>
      <point x="520" y="1051" type="qcurve" smooth="yes"/>
      <point x="444" y="1051" type="line"/>
      <point x="282" y="136" type="line"/>
      <point x="378" y="136" type="line" smooth="yes"/>
      <point x="412" y="136"/>
      <point x="436" y="106"/>
      <point x="429" y="68" type="qcurve" smooth="yes"/>
      <point x="423" y="30"/>
      <point x="389" y="0"/>
      <point x="355" y="0" type="qcurve" smooth="yes"/>
      <point x="23" y="0" type="line" smooth="yes"/>
      <point x="-11" y="0"/>
      <point x="-35" y="30"/>
      <point x="-29" y="68" type="qcurve" smooth="yes"/>
      <point x="-22" y="106"/>
      <point x="12" y="136"/>
      <point x="46" y="136" type="qcurve" smooth="yes"/>
      <point x="132" y="136" type="line"/>
    </contour>
    <contour>
      <point x="898" y="1051" type="line" smooth="yes"/>
      <point x="864" y="1051"/>
      <point x="840" y="1081"/>
      <point x="847" y="1119" type="qcurve" smooth="yes"/>
      <point x="854" y="1157"/>
      <point x="888" y="1187"/>
      <point x="922" y="1187" type="qcurve" smooth="yes"/>
      <point x="1284" y="1187" type="line" smooth="yes"/>
      <point x="1318" y="1187"/>
      <point x="1342" y="1157"/>
      <point x="1335" y="1119" type="qcurve" smooth="yes"/>
      <point x="1328" y="1081"/>
      <point x="1294" y="1051"/>
      <point x="1260" y="1051" type="qcurve" smooth="yes"/>
      <point x="1189" y="1051" type="line"/>
      <point x="1045" y="233" type="line" smooth="yes"/>
      <point x="1034" y="173"/>
      <point x="990" y="79"/>
      <point x="953.0" y="46.0" type="qcurve" smooth="yes" name="inserted"/>
      <point x="916" y="13"/>
      <point x="811" y="-22"/>
      <point x="740" y="-22" type="qcurve" smooth="yes"/>
      <point x="706" y="-22"/>
      <point x="640" y="-7"/>
      <point x="611.0" y="6.0" type="qcurve" smooth="yes" name="inserted"/>
      <point x="582" y="19"/>
      <point x="532" y="56"/>
      <point x="514" y="79" type="qcurve" smooth="yes"/>
      <point x="507.5" y="87.0" name="inserted"/>
      <point x="504.0" y="112.5"/>
      <point x="507" y="130" type="qcurve" smooth="yes"/>
      <point x="558" y="415" type="line" smooth="yes"/>
      <point x="564" y="450"/>
      <point x="602" y="480"/>
      <point x="644" y="480" type="qcurve" smooth="yes"/>
      <point x="686" y="480"/>
      <point x="714" y="450"/>
      <point x="708" y="415" type="qcurve" smooth="yes"/>
      <point x="663" y="161" type="line"/>
      <point x="680" y="142"/>
      <point x="728" y="126"/>
      <point x="757" y="126" type="qcurve" smooth="yes"/>
      <point x="820" y="126"/>
      <point x="887" y="191"/>
      <point x="900" y="263" type="qcurve" smooth="yes"/>
      <point x="1039" y="1051" type="line"/>
    </contour>
  </outline>
</glyph>
<glyph name="ij" format="1">
  <advance width="1228"/>
  <unicode hex="0133"/>
  <outline>
    <contour>
      <point x="387" y="250" type="line" smooth="yes"/>
      <point x="385.0" y="240.0" name="inserted"/>
      <point x="383.0" y="220.0"/>
      <point x="383" y="210" type="qcurve" smooth="yes"/>
      <point x="383.0" y="167.0" name="inserted"/>
      <point x="428.5" y="124.0"/>
      <point x="474" y="124" type="qcurve" smooth="yes"/>
      <point x="503.5" y="124.0" name="inserted"/>
      <point x="564.0" y="134.0"/>
      <point x="595" y="144" type="qcurve" smooth="yes"/>
      <point x="624" y="153"/>
      <point x="656" y="125"/>
      <point x="661" y="84" type="qcurve" smooth="yes"/>
      <point x="666" y="47"/>
      <point x="643" y="7"/>
      <point x="613" y="-1" type="qcurve" smooth="yes"/>
      <point x="578" y="-10"/>
      <point x="499" y="-22"/>
      <point x="459" y="-22" type="qcurve" smooth="yes"/>
      <point x="405" y="-22"/>
      <point x="320" y="9"/>
      <point x="291.0" y="37.5" type="qcurve" smooth="yes" name="inserted"/>
      <point x="262" y="66"/>
      <point x="232" y="145"/>
      <point x="232" y="193" type="qcurve" smooth="yes"/>
      <point x="232.0" y="208.0" name="inserted"/>
      <point x="234.5" y="237.0"/>
      <point x="237" y="251" type="qcurve" smooth="yes"/>
      <point x="331" y="788" type="line"/>
      <point x="208" y="788" type="line" smooth="yes"/>
      <point x="174" y="788"/>
      <point x="151" y="818"/>
      <point x="157" y="856" type="qcurve" smooth="yes"/>
      <point x="164" y="894"/>
      <point x="198" y="924"/>
      <point x="232" y="924" type="qcurve" smooth="yes"/>
      <point x="442" y="924" type="line" smooth="yes"/>
      <point x="476" y="924"/>
      <point x="500" y="894"/>
      <point x="493" y="856" type="qcurve" smooth="yes"/>
    </contour>
    <contour>
      <point x="548" y="1168" type="line" smooth="yes"/>
      <point x="542" y="1133"/>
      <point x="499" y="1103"/>
      <point x="442" y="1103" type="qcurve" smooth="yes"/>
      <point x="385" y="1103"/>
      <point x="352" y="1133"/>
      <point x="358" y="1168" type="qcurve" smooth="yes"/>
      <point x="381" y="1298" type="line" smooth="yes"/>
      <point x="387" y="1333"/>
      <point x="431" y="1363"/>
      <point x="488" y="1363" type="qcurve" smooth="yes"/>
      <point x="545" y="1363"/>
      <point x="577" y="1333"/>
      <point x="571" y="1298" type="qcurve" smooth="yes"/>
    </contour>
    <contour>
      <point x="1208" y="1168" type="line" smooth="yes"/>
      <point x="1202" y="1133"/>
      <point x="1159" y="1103"/>
      <point x="1102" y="1103" type="qcurve" smooth="yes"/>
      <point x="1045" y="1103"/>
      <point x="1012" y="1133"/>
      <point x="1018" y="1168" type="qcurve" smooth="yes"/>
      <point x="1041" y="1298" type="line" smooth="yes"/>
      <point x="1047" y="1333"/>
      <point x="1091" y="1363"/>
      <point x="1148" y="1363" type="qcurve" smooth="yes"/>
      <point x="1205" y="1363"/>
      <point x="1237" y="1333"/>
      <point x="1231" y="1298" type="qcurve" smooth="yes"/>
    </contour>
    <contour>
      <point x="404" y="-204" type="qcurve" smooth="yes"/>
      <point x="456" y="-236"/>
      <point x="565" y="-269"/>
      <point x="628" y="-269" type="qcurve" smooth="yes"/>
      <point x="678" y="-269"/>
      <point x="751" y="-242"/>
      <point x="776.5" y="-214.5" type="qcurve" smooth="yes" name="inserted"/>
      <point x="802" y="-187"/>
      <point x="834" y="-104"/>
      <point x="844" y="-49" type="qcurve" smooth="yes"/>
      <point x="991" y="788" type="line"/>
      <point x="768" y="788" type="line" smooth="yes"/>
      <point x="734" y="788"/>
      <point x="711" y="818"/>
      <point x="717" y="856" type="qcurve" smooth="yes"/>
      <point x="724" y="894"/>
      <point x="758" y="924"/>
      <point x="792" y="924" type="qcurve" smooth="yes"/>
      <point x="1102" y="924" type="line" smooth="yes"/>
      <point x="1136" y="924"/>
      <point x="1160" y="894"/>
      <point x="1153" y="856" type="qcurve" smooth="yes"/>
      <point x="990" y="-72" type="line" smooth="yes"/>
      <point x="975" y="-158"/>
      <point x="918" y="-287"/>
      <point x="873.0" y="-329.5" type="qcurve" smooth="yes" name="inserted"/>
      <point x="828" y="-372"/>
      <point x="699" y="-415"/>
      <point x="612" y="-415" type="qcurve" smooth="yes"/>
      <point x="531" y="-415"/>
      <point x="384" y="-373"/>
      <point x="330" y="-342" type="qcurve" smooth="yes"/>
      <point x="306" y="-328"/>
      <point x="297" y="-283"/>
      <point x="316" y="-246" type="qcurve" smooth="yes"/>
      <point x="336" y="-207"/>
      <point x="382" y="-190"/>
    </contour>
  </outline>
</glyph>
<glyph name="oe" format="1">
  <advance width="1228"/>
  <unicode hex="0153"/>
  <outline>
    <contour>
      <point x="452" y="798" type="qcurve" smooth="yes"/>
      <point x="400" y="798"/>
      <point x="319" y="730"/>
      <point x="289" y="656" type="qcurve" smooth="yes"/>
      <point x="275" y="622"/>
      <point x="250" y="530"/>
      <point x="241.0" y="480.5" type="qcurve" smooth="yes" name="inserted"/>
      <point x="232" y="431"/>
      <point x="221" y="334"/>
      <point x="221" y="294" type="qcurve" smooth="yes"/>
      <point x="221" y="206"/>
      <point x="277" y="126"/>
      <point x="334" y="126" type="qcurve" smooth="yes"/>
      <point x="386" y="126"/>
      <point x="466" y="194"/>
      <point x="496" y="268" type="qcurve" smooth="yes"/>
      <point x="510" y="302"/>
      <point x="535" y="393"/>
      <point x="544.0" y="442.5" type="qcurve" smooth="yes" name="inserted"/>
      <point x="553" y="492"/>
      <point x="564" y="590"/>
      <point x="564" y="630" type="qcurve" smooth="yes"/>
      <point x="564" y="718"/>
      <point x="509" y="798"/>
    </contour>
    <contour>
      <point x="675" y="806" type="qcurve"/>
      <point x="732" y="880"/>
      <point x="867" y="946"/>
      <point x="939" y="946" type="qcurve" smooth="yes"/>
      <point x="1003" y="946"/>
      <point x="1095" y="904"/>
      <point x="1124.0" y="865.5" type="qcurve" smooth="yes" name="inserted"/>
      <point x="1153" y="827"/>
      <point x="1181" y="716"/>
      <point x="1181" y="647" type="qcurve" smooth="yes"/>
      <point x="1181.0" y="613.5" name="inserted"/>
      <point x="1175.0" y="541.0"/>
      <point x="1169" y="502" type="qcurve" smooth="yes"/>
      <point x="1164" y="468"/>
      <point x="1129" y="440"/>
      <point x="1095" y="440" type="qcurve" smooth="yes"/>
      <point x="696" y="440" type="line"/>
      <point x="690.0" y="401.5" name="inserted"/>
      <point x="684.0" y="335.5"/>
      <point x="684" y="308" type="qcurve" smooth="yes"/>
      <point x="684" y="256"/>
      <point x="702" y="185"/>
      <point x="718.0" y="163.5" type="qcurve" smooth="yes" name="inserted"/>
      <point x="734" y="142"/>
      <point x="778" y="123"/>
      <point x="804" y="123" type="qcurve" smooth="yes"/>
      <point x="852" y="123"/>
      <point x="938" y="160"/>
      <point x="988" y="201" type="qcurve" smooth="yes"/>
      <point x="1010" y="220"/>
      <point x="1062" y="216"/>
      <point x="1080" y="187" type="qcurve" smooth="yes"/>
      <point x="1099" y="158"/>
      <point x="1085" y="107"/>
      <point x="1056" y="84" type="qcurve" smooth="yes"/>
      <point x="991" y="31"/>
      <point x="861" y="-22"/>
      <point x="789" y="-22" type="qcurve" smooth="yes"/>
      <point x="711" y="-22"/>
      <point x="602" y="45"/>
      <point x="573" y="116" type="qcurve"/>
      <point x="524" y="48"/>
      <point x="397" y="-22"/>
      <point x="318" y="-22" type="qcurve" smooth="yes"/>
      <point x="193" y="-22"/>
      <point x="66" y="144"/>
      <point x="66" y="299" type="qcurve" smooth="yes"/>
      <point x="66" y="348"/>
      <point x="80" y="467"/>
      <point x="93.5" y="527.5" type="qcurve" smooth="yes" name="inserted"/>
      <point x="107" y="588"/>
      <point x="147" y="705"/>
      <point x="173" y="753" type="qcurve" smooth="yes"/>
      <point x="224" y="847"/>
      <point x="371" y="946"/>
      <point x="468" y="946" type="qcurve" smooth="yes"/>
      <point x="548" y="946"/>
      <point x="650" y="875"/>
    </contour>
    <contour>
      <point x="926" y="801" type="qcurve" smooth="yes"/>
      <point x="857" y="801"/>
      <point x="759" y="699"/>
      <point x="726" y="580" type="qcurve"/>
      <point x="1026" y="580" type="line"/>
      <point x="1028" y="599"/>
      <point x="1031" y="633"/>
      <point x="1031" y="649" type="qcurve" smooth="yes"/>
      <point x="1031" y="721"/>
      <point x="983" y="801"/>
    </contour>
  </outline>
</glyph>
<glyph name="tbar" format="1">
  <advance width="1228"/>
  <unicode hex="0167"/>
  <outline>
    <contour>
      <point x="461" y="844" type="line"/>
      <point x="514" y="1144" type="line" smooth="yes"/>
      <point x="520" y="1179"/>
      <point x="559" y="1209"/>
      <point x="601" y="1209" type="qcurve" smooth="yes"/>
      <point x="643" y="1209"/>
      <point x="670" y="1179"/>
      <point x="664" y="1144" type="qcurve" smooth="yes"/>
      <point x="611" y="844" type="line"/>
      <point x="1022" y="844" type="line" smooth="yes"/>
      <point x="1056" y="844"/>
      <point x="1080" y="814"/>
      <point x="1073" y="776" type="qcurve" smooth="yes"/>
      <point x="1067" y="738"/>
      <point x="1032" y="708"/>
      <point x="998" y="708" type="qcurve" smooth="yes"/>
      <point x="587" y="708" type="line"/>
      <point x="564" y="576" type="line"/>
      <point x="836" y="576" type="line" smooth="yes"/>
      <point x="870" y="576"/>
      <point x="894" y="546"/>
      <point x="887" y="508" type="qcurve" smooth="yes"/>
      <point x="880" y="470"/>
      <point x="846" y="440"/>
      <point x="812" y="440" type="qcurve" smooth="yes"/>
      <point x="540" y="440" type="line"/>
      <point x="523" y="344" type="line" smooth="yes"/>
      <point x="518.5" y="320.5" name="inserted"/>
      <point x="514.0" y="279.0"/>
      <point x="514" y="261" type="qcurve" smooth="yes"/>
      <point x="514" y="192"/>
      <point x="581" y="124"/>
      <point x="661" y="124" type="qcurve" smooth="yes"/>
      <point x="731" y="124"/>
      <point x="889" y="182"/>
      <point x="962" y="225" type="qcurve" smooth="yes"/>
      <point x="987" y="240"/>
      <point x="1031" y="221"/>
      <point x="1045" y="186" type="qcurve" smooth="yes"/>
      <point x="1059" y="150"/>
      <point x="1043" y="106"/>
      <point x="1015" y="90" type="qcurve" smooth="yes"/>
      <point x="973" y="66"/>
      <point x="881" y="25"/>
      <point x="833.0" y="10.0" type="qcurve" smooth="yes" name="inserted"/>
      <point x="785" y="-5"/>
      <point x="690" y="-22"/>
      <point x="646" y="-22" type="qcurve" smooth="yes"/>
      <point x="500" y="-22"/>
      <point x="363" y="112"/>
      <point x="363" y="237" type="qcurve" smooth="yes"/>
      <point x="363" y="261"/>
      <point x="368" y="313"/>
      <point x="373" y="341" type="qcurve" smooth="yes"/>
      <point x="390" y="440" type="line"/>
      <point x="250" y="440" type="line" smooth="yes"/>
      <point x="216" y="440"/>
      <point x="192" y="470"/>
      <point x="199" y="508" type="qcurve" smooth="yes"/>
      <point x="206" y="546"/>
      <point x="240" y="576"/>
      <point x="274" y="576" type="qcurve" smooth="yes"/>
      <point x="414" y="576" type="line"/>
      <point x="437" y="708" type="line"/>
      <point x="234" y="708" type="line" smooth="yes"/>
      <point x="200" y="708"/>
      <point x="177" y="738"/>
      <point x="183" y="776" type="qcurve" smooth="yes"/>
      <point x="190" y="814"/>
      <point x="224" y="844"/>
      <point x="258" y="844" type="qcurve" smooth="yes"/>
    </contour>
  </outline>
</glyph>
<glyph name="ring" format="1">
  <advance width="1228"/>
  <unicode hex="02DA"/>
  <outline>
    <contour>
      <point x="744" y="1065" type="qcurve" smooth="yes"/>
      <point x="698" y="1065"/>
      <point x="620" y="1099"/>
      <point x="591.5" y="1128.0" type="qcurve" smooth="yes" name="inserted"/>
      <point x="563" y="1157"/>
      <point x="530" y="1236"/>
      <point x="530" y="1280" type="qcurve" smooth="yes"/>
      <point x="530" y="1330"/>
      <point x="571" y="1429"/>
      <point x="607.5" y="1468.5" type="qcurve" smooth="yes" name="inserted"/>
      <point x="644" y="1508"/>
      <point x="748" y="1557"/>
      <point x="811" y="1557" type="qcurve" smooth="yes"/>
      <point x="857" y="1557"/>
      <point x="935" y="1523"/>
      <point x="963.5" y="1493.5" type="qcurve" smooth="yes" name="inserted"/>
      <point x="992" y="1464"/>
      <point x="1025" y="1386"/>
      <point x="1025" y="1342" type="qcurve" smooth="yes"/>
      <point x="1025" y="1291"/>
      <point x="984" y="1192"/>
      <point x="947.5" y="1152.5" type="qcurve" smooth="yes" name="inserted"/>
      <point x="911" y="1113"/>
      <point x="807" y="1065"/>
    </contour>
    <contour>
      <point x="755" y="1185" type="qcurve" smooth="yes"/>
      <point x="783" y="1185"/>
      <point x="838" y="1209"/>
      <point x="859.0" y="1229.0" type="qcurve" smooth="yes" name="inserted"/>
      <point x="880" y="1249"/>
      <point x="906" y="1303"/>
      <point x="906" y="1333" type="qcurve" smooth="yes"/>
      <point x="906" y="1378"/>
      <point x="847" y="1437"/>
      <point x="800" y="1437" type="qcurve" smooth="yes"/>
      <point x="771" y="1437"/>
      <point x="717" y="1413"/>
      <point x="696.0" y="1392.5" type="qcurve" smooth="yes" name="inserted"/>
      <point x="675" y="1372"/>
      <point x="650" y="1318"/>
      <point x="650" y="1288" type="qcurve" smooth="yes"/>
      <point x="650" y="1243"/>
      <point x="708" y="1185"/>
    </contour>
  </outline>
</glyph>
<glyph name="tilde" format="1">
  <advance width="1228"/>
  <unicode hex="02DC"/>
  <outline>
    <contour>
      <point x="623" y="1297" type="qcurve" smooth="yes"/>
      <point x="660" y="1297"/>
      <point x="728" y="1277"/>
      <point x="761.0" y="1265.5" type="qcurve" smooth="yes" name="inserted"/>
      <point x="794" y="1254"/>
      <point x="858" y="1234"/>
      <point x="892" y="1234" type="qcurve" smooth="yes"/>
      <point x="922" y="1234"/>
      <point x="992" y="1255"/>
      <point x="1027" y="1276" type="qcurve" smooth="yes"/>
      <point x="1044" y="1286"/>
      <point x="1076" y="1273"/>
      <point x="1089" y="1251" type="qcurve" smooth="yes"/>
      <point x="1102" y="1229"/>
      <point x="1099" y="1190"/>
      <point x="1083" y="1177" type="qcurve" smooth="yes"/>
      <point x="1023" y="1127"/>
      <point x="926" y="1086"/>
      <point x="883" y="1086" type="qcurve" smooth="yes"/>
      <point x="846" y="1086"/>
      <point x="778" y="1106"/>
      <point x="745.0" y="1117.5" type="qcurve" smooth="yes" name="inserted"/>
      <point x="712" y="1129"/>
      <point x="648" y="1149"/>
      <point x="614" y="1149" type="qcurve" smooth="yes"/>
      <point x="584" y="1149"/>
      <point x="514" y="1128"/>
      <point x="479" y="1107" type="qcurve" smooth="yes"/>
      <point x="462" y="1097"/>
      <point x="430" y="1110"/>
      <point x="417" y="1132" type="qcurve" smooth="yes"/>
      <point x="404" y="1154"/>
      <point x="407" y="1193"/>
      <point x="423" y="1206" type="qcurve" smooth="yes"/>
      <point x="483" y="1256"/>
      <point x="580" y="1297"/>
    </contour>
  </outline>
</glyph>
<glyph name="endash" format="1">
  <advance width="1228"/>
  <unicode hex="2013"/>
  <outline>
    <contour>
      <point x="1039" y="650" type="line" smooth="yes"/>
      <point x="1073" y="650"/>
      <point x="1097" y="620"/>
      <point x="1090" y="582" type="qcurve" smooth="yes"/>
      <point x="1083" y="544"/>
      <point x="1049" y="514"/>
      <point x="1015" y="514" type="qcurve" smooth="yes"/>
      <point x="253" y="514" type="line" smooth="yes"/>
      <point x="219" y="514"/>
      <point x="195" y="544"/>
      <point x="202" y="582" type="qcurve" smooth="yes"/>
      <point x="209" y="620"/>
      <point x="243" y="650"/>
      <point x="277" y="650" type="qcurve" smooth="yes"/>
    </contour>
  </outline>
</glyph>
<glyph name="quoteleft" format="1">
  <advance width="1228"/>
  <unicode hex="2018"/>
  <outline>
    <contour>
      <point x="790" y="1204" type="line" smooth="yes"/>
      <point x="804.5" y="1225.5" name="inserted"/>
      <point x="846.5" y="1247.0"/>
      <point x="874" y="1247" type="qcurve" smooth="yes"/>
      <point x="909" y="1247"/>
      <point x="938" y="1210"/>
      <point x="925" y="1178" type="qcurve" smooth="yes"/>
      <point x="751" y="732" type="line" smooth="yes"/>
      <point x="743.5" y="712.0" name="inserted"/>
      <point x="714.0" y="692.0"/>
      <point x="692" y="692" type="qcurve" smooth="yes"/>
      <point x="503" y="692" type="line" smooth="yes"/>
      <point x="478" y="692"/>
      <point x="468" y="729"/>
      <point x="486" y="755" type="qcurve" smooth="yes"/>
    </contour>
  </outline>
</glyph>
<glyph name="quotesinglbase" format="1">
  <advance width="1228"/>
  <unicode hex="201A"/>
  <outline>
    <contour>
      <point x="468" y="-218" type="line" smooth="yes"/>
      <point x="453.5" y="-239.5" name="inserted"/>
      <point x="411.5" y="-261.0"/>
      <point x="384" y="-261" type="qcurve" smooth="yes"/>
      <point x="349" y="-261"/>
      <point x="320" y="-224"/>
      <point x="333" y="-192" type="qcurve" smooth="yes"/>
      <point x="507" y="254" type="line" smooth="yes"/>
      <point x="514.5" y="274.0" name="inserted"/>
      <point x="544.0" y="294.0"/>
      <point x="566" y="294" type="qcurve" smooth="yes"/>
      <point x="755" y="294" type="line" smooth="yes"/>
      <point x="780" y="294"/>
      <point x="790" y="257"/>
      <point x="772" y="231" type="qcurve" smooth="yes"/>
    </contour>
  </outline>
</glyph>
<glyph name="quotedblleft" format="1">
  <advance width="1228"/>
  <unicode hex="201C"/>
  <outline>
    <contour>
      <point x="995" y="1204" type="line" smooth="yes"/>
      <point x="1009.5" y="1225.5" name="inserted"/>
      <point x="1051.5" y="1247.0"/>
      <point x="1079" y="1247" type="qcurve" smooth="yes"/>
      <point x="1114" y="1247"/>
      <point x="1143" y="1210"/>
      <point x="1130" y="1178" type="qcurve" smooth="yes"/>
      <point x="956" y="732" type="line" smooth="yes"/>
      <point x="948.5" y="712.0" name="inserted"/>
      <point x="919.0" y="692.0"/>
      <point x="897" y="692" type="qcurve" smooth="yes"/>
      <point x="708" y="692" type="line" smooth="yes"/>
      <point x="683" y="692"/>
      <point x="673" y="729"/>
      <point x="691" y="755" type="qcurve" smooth="yes"/>
    </contour>
    <contour>
      <point x="585" y="1204" type="line" smooth="yes"/>
      <point x="599.5" y="1225.5" name="inserted"/>
      <point x="641.5" y="1247.0"/>
      <point x="669" y="1247" type="qcurve" smooth="yes"/>
      <point x="704" y="1247"/>
      <point x="733" y="1210"/>
      <point x="720" y="1178" type="qcurve" smooth="yes"/>
      <point x="546" y="732" type="line" smooth="yes"/>
      <point x="538.5" y="712.0" name="inserted"/>
      <point x="509.0" y="692.0"/>
      <point x="487" y="692" type="qcurve" smooth="yes"/>
      <point x="298" y="692" type="line" smooth="yes"/>
      <point x="273" y="692"/>
      <point x="263" y="729"/>
      <point x="281" y="755" type="qcurve" smooth="yes"/>
    </contour>
  </outline>
</glyph>
<glyph name="dagger" format="1">
  <advance width="1228"/>
  <unicode hex="2020"/>
  <outline>
    <contour>
      <point x="421" y="788" type="line" smooth="yes"/>
      <point x="387" y="788"/>
      <point x="364" y="818"/>
      <point x="370" y="856" type="qcurve" smooth="yes"/>
      <point x="377" y="894"/>
      <point x="411" y="924"/>
      <point x="445" y="924" type="qcurve" smooth="yes"/>
      <point x="638" y="924" type="line"/>
      <point x="678" y="1146" type="line" smooth="yes"/>
      <point x="684" y="1180"/>
      <point x="719" y="1209"/>
      <point x="757" y="1209" type="qcurve" smooth="yes"/>
      <point x="795" y="1209"/>
      <point x="820" y="1180"/>
      <point x="814" y="1146" type="qcurve" smooth="yes"/>
      <point x="774" y="924" type="line"/>
      <point x="967" y="924" type="line" smooth="yes"/>
      <point x="1001" y="924"/>
      <point x="1025" y="894"/>
      <point x="1018" y="856" type="qcurve" smooth="yes"/>
      <point x="1012" y="818"/>
      <point x="977" y="788"/>
      <point x="943" y="788" type="qcurve" smooth="yes"/>
      <point x="750" y="788" type="line"/>
      <point x="672" y="344" type="line" smooth="yes"/>
      <point x="666" y="310"/>
      <point x="631" y="281"/>
      <point x="593" y="281" type="qcurve" smooth="yes"/>
      <point x="555" y="281"/>
      <point x="530" y="310"/>
      <point x="536" y="344" type="qcurve" smooth="yes"/>
      <point x="614" y="788" type="line"/>
    </contour>
  </outline>
</glyph>
<glyph name="bullet" format="1">
  <advance width="1228"/>
  <unicode hex="2022"/>
  <outline>
    <contour>
      <point x="609" y="335" type="qcurve" smooth="yes"/>
      <point x="559" y="335"/>
      <point x="476" y="371"/>
      <point x="446.0" y="402.0" type="qcurve" smooth="yes" name="inserted"/>
      <point x="416" y="433"/>
      <point x="382" y="516"/>
      <point x="382" y="563" type="qcurve" smooth="yes"/>
      <point x="382" y="625"/>
      <point x="434" y="735"/>
      <point x="477.0" y="775.5" type="qcurve" smooth="yes" name="inserted"/>
      <point x="520" y="816"/>
      <point x="630" y="863"/>
      <point x="689" y="863" type="qcurve" smooth="yes"/>
      <point x="738" y="863"/>
      <point x="821" y="828"/>
      <point x="851.0" y="797.0" type="qcurve" smooth="yes" name="inserted"/>
      <point x="881" y="766"/>
      <point x="915" y="684"/>
      <point x="915" y="637" type="qcurve" smooth="yes"/>
      <point x="915" y="574"/>
      <point x="864" y="464"/>
      <point x="821.5" y="423.0" type="qcurve" smooth="yes" name="inserted"/>
      <point x="779" y="382"/>
      <point x="669" y="335"/>
    </contour>
  </outline>
</glyph>
<glyph name="ellipsis" format="1">
  <advance width="1228"/>
  <unicode hex="2026"/>
  <outline>
    <contour>
      <point x="543" y="-22" type="qcurve" smooth="yes"/>
      <point x="518" y="-22"/>
      <point x="476" y="-4"/>
      <point x="460.5" y="11.5" type="qcurve" smooth="yes" name="inserted"/>
      <point x="445" y="27"/>
      <point x="428" y="69"/>
      <point x="428" y="93" type="qcurve" smooth="yes"/>
      <point x="428" y="124"/>
      <point x="454" y="179"/>
      <point x="476.0" y="199.5" type="qcurve" smooth="yes" name="inserted"/>
      <point x="498" y="220"/>
      <point x="553" y="244"/>
      <point x="583" y="244" type="qcurve" smooth="yes"/>
      <point x="608" y="244"/>
      <point x="650" y="226"/>
      <point x="665.5" y="210.5" type="qcurve" smooth="yes" name="inserted"/>
      <point x="681" y="195"/>
      <point x="698" y="154"/>
      <point x="698" y="130" type="qcurve" smooth="yes"/>
      <point x="698" y="98"/>
      <point x="672" y="43"/>
      <point x="650.5" y="22.5" type="qcurve" smooth="yes" name="inserted"/>
      <point x="629" y="2"/>
      <point x="573" y="-22"/>
    </contour>
    <contour>
      <point x="143" y="-22" type="qcurve" smooth="yes"/>
      <point x="118" y="-22"/>
      <point x="76" y="-4"/>
      <point x="60.5" y="11.5" type="qcurve" smooth="yes" name="inserted"/>
      <point x="45" y="27"/>
      <point x="28" y="69"/>
      <point x="28" y="93" type="qcurve" smooth="yes"/>
      <point x="28" y="124"/>
      <point x="54" y="179"/>
      <point x="76.0" y="199.5" type="qcurve" smooth="yes" name="inserted"/>
      <point x="98" y="220"/>
      <point x="153" y="244"/>
      <point x="183" y="244" type="qcurve" smooth="yes"/>
      <point x="208" y="244"/>
      <point x="250" y="226"/>
      <point x="265.5" y="210.5" type="qcurve" smooth="yes" name="inserted"/>
      <point x="281" y="195"/>
      <point x="298" y="154"/>
      <point x="298" y="130" type="qcurve" smooth="yes"/>
      <point x="298" y="98"/>
      <point x="272" y="43"/>
      <point x="250.5" y="22.5" type="qcurve" smooth="yes" name="inserted"/>
      <point x="229" y="2"/>
      <point x="173" y="-22"/>
    </contour>
    <contour>
      <point x="943" y="-22" type="qcurve" smooth="yes"/>
      <point x="918" y="-22"/>
      <point x="876" y="-4"/>
      <point x="860.5" y="11.5" type="qcurve" smooth="yes" name="inserted"/>
      <point x="845" y="27"/>
      <point x="828" y="69"/>
      <point x="828" y="93" type="qcurve" smooth="yes"/>
      <point x="828" y="124"/>
      <point x="854" y="179"/>
      <point x="876.0" y="199.5" type="qcurve" smooth="yes" name="inserted"/>
      <point x="898" y="220"/>
      <point x="953" y="244"/>
      <point x="983" y="244" type="qcurve" smooth="yes"/>
      <point x="1008" y="244"/>
      <point x="1050" y="226"/>
      <point x="1065.5" y="210.5" type="qcurve" smooth="yes" name="inserted"/>
      <point x="1081" y="195"/>
      <point x="1098" y="154"/>
      <point x="1098" y="130" type="qcurve" smooth="yes"/>
      <point x="1098" y="98"/>
      <point x="1072" y="43"/>
      <point x="1050.5" y="22.5" type="qcurve" smooth="yes" name="inserted"/>
      <point x="1029" y="2"/>
      <point x="973" y="-22"/>
    </contour>
  </outline>
</glyph>
<glyph name="guilsinglleft" format="1">
  <advance width="1228"/>
  <unicode hex="2039"/>
  <outline>
    <contour>
      <point x="634" y="560" type="line"/>
      <point x="758" y="275" type="line" smooth="yes"/>
      <point x="769" y="250"/>
      <point x="736" y="213"/>
      <point x="710" y="204" type="qcurve" smooth="yes"/>
      <point x="684" y="195"/>
      <point x="630" y="203"/>
      <point x="620" y="225" type="qcurve" smooth="yes"/>
      <point x="479" y="551" type="line" smooth="yes"/>
      <point x="474.0" y="563.0" name="inserted"/>
      <point x="478.5" y="587.0"/>
      <point x="488" y="599" type="qcurve" smooth="yes"/>
      <point x="743" y="925" type="line" smooth="yes"/>
      <point x="752" y="936"/>
      <point x="775" y="945"/>
      <point x="788.0" y="945.0" type="qcurve" smooth="yes" name="inserted"/>
      <point x="801" y="945"/>
      <point x="827" y="937"/>
      <point x="838" y="930" type="qcurve" smooth="yes"/>
      <point x="860" y="916"/>
      <point x="878" y="870"/>
      <point x="859" y="845" type="qcurve" smooth="yes"/>
    </contour>
  </outline>
</glyph>
<glyph name="foursuperior" format="1">
  <advance width="1228"/>
  <unicode hex="2074"/>
  <outline>
    <contour>
      <point x="827" y="1151" type="line"/>
      <point x="505" y="832" type="line"/>
      <point x="764" y="832" type="line"/>
    </contour>
    <contour>
      <point x="846" y="523" type="line" smooth="yes"/>
      <point x="841" y="500"/>
      <point x="808" y="475"/>
      <point x="770" y="475" type="qcurve" smooth="yes"/>
      <point x="733" y="475"/>
      <point x="705" y="500"/>
      <point x="710" y="523" type="qcurve" smooth="yes"/>
      <point x="743" y="707" type="line"/>
      <point x="367" y="707" type="line" smooth="yes"/>
      <point x="347" y="707"/>
      <point x="323" y="734"/>
      <point x="323" y="763" type="qcurve" smooth="yes"/>
      <point x="323" y="797"/>
      <point x="341" y="826"/>
      <point x="352" y="838" type="qcurve"/>
      <point x="811" y="1291" type="line" smooth="yes"/>
      <point x="832" y="1311"/>
      <point x="873" y="1334"/>
      <point x="900" y="1334" type="qcurve" smooth="yes"/>
      <point x="916" y="1334"/>
      <point x="947" y="1326"/>
      <point x="958.0" y="1318.5" type="qcurve" smooth="yes" name="inserted"/>
      <point x="969" y="1311"/>
      <point x="981" y="1291"/>
      <point x="979" y="1279" type="qcurve" smooth="yes"/>
      <point x="900" y="832" type="line"/>
      <point x="1009" y="832" type="line" smooth="yes"/>
      <point x="1029" y="832"/>
      <point x="1049" y="812"/>
      <point x="1049" y="789" type="qcurve" smooth="yes"/>
      <point x="1049.0" y="748.0" name="inserted"/>
      <point x="1018.5" y="707.0"/>
      <point x="988" y="707" type="qcurve" smooth="yes"/>
      <point x="878" y="707" type="line"/>
    </contour>
  </outline>
</glyph>
